<svg id="Layer_1" data-name="Layer 1" xmlns="http://www.w3.org/2000/svg" xmlns:xlink="http://www.w3.org/1999/xlink" viewBox="0 0 2880 588"><defs><style>.cls-1{fill:none;}.cls-2{fill:#aedede;}.cls-3{fill:#fff;}.cls-4{fill:#3e3c3c;}.cls-5{fill:#f7a3a7;}.cls-6{fill:url(#New_Pattern_12);}</style><pattern id="New_Pattern_12" data-name="New Pattern 12" width="1122" height="1122" patternTransform="translate(1077.11 4180.08) scale(0.56)" patternUnits="userSpaceOnUse" viewBox="0 0 1122 1122"><rect class="cls-1" width="1122" height="1122"/><polygon class="cls-2" points="941.7 1058.53 968.4 1070.81 894.17 1232.29 867.47 1220.02 941.7 1058.53"/><polygon class="cls-3" points="256.15 1115.18 268.43 1145.77 47.21 1234.51 34.94 1203.92 256.15 1115.18"/><polygon class="cls-4" points="469.7 1258.51 437.33 1249.02 514.61 985.49 546.98 994.98 469.7 1258.51"/><polygon class="cls-5" points="942.2 230.73 966.78 199.62 1301.8 464.34 1277.22 495.44 942.2 230.73"/><polygon class="cls-3" points="972.67 884.29 952.5 857.26 1207.76 666.77 1227.94 693.81 972.67 884.29"/><polygon class="cls-2" points="409.56 416.34 381.05 434.38 256 236.79 284.5 218.75 409.56 416.34"/><polygon class="cls-3" points="729.72 1049.3 760.22 1031.69 640.85 824.95 610.35 842.55 729.72 1049.3"/><polygon class="cls-4" points="331.4 998.3 317.31 1028.95 79.1 919.45 93.19 888.8 331.4 998.3"/><polygon class="cls-4" points="941.7 1058.53 968.4 1070.81 894.17 1232.29 867.47 1220.02 941.7 1058.53"/><polygon class="cls-2" points="941.7 -63.47 968.4 -51.2 894.17 110.29 867.47 98.02 941.7 -63.47"/><polygon class="cls-3" points="256.15 -6.82 268.43 23.77 47.21 112.51 34.94 81.92 256.15 -6.82"/><polygon class="cls-5" points="256.15 1115.18 268.43 1145.77 47.21 1234.51 34.94 1203.92 256.15 1115.18"/><polygon class="cls-5" points="-179.8 230.73 -155.22 199.62 179.8 464.34 155.22 495.44 -179.8 230.73"/><polygon class="cls-3" points="942.2 230.73 966.78 199.62 1301.8 464.34 1277.22 495.44 942.2 230.73"/><polygon class="cls-2" points="972.67 884.29 952.5 857.26 1207.76 666.77 1227.94 693.81 972.67 884.29"/><polygon class="cls-3" points="-149.32 884.29 -169.5 857.26 85.76 666.77 105.94 693.81 -149.32 884.29"/><polygon class="cls-4" points="469.7 136.51 437.33 127.02 514.61 -136.51 546.98 -127.02 469.7 136.51"/><polygon class="cls-2" points="469.7 1258.51 437.33 1249.02 514.61 985.49 546.98 994.98 469.7 1258.51"/><polygon class="cls-4" points="312.09 736.76 284.42 734.72 299.89 525.47 327.56 527.51 312.09 736.76"/><polygon class="cls-4" points="925.36 372.85 962.17 387.59 803.39 783.96 766.59 769.22 925.36 372.85"/><polygon class="cls-5" points="738.1 53.09 709.97 59.19 774.48 356.59 802.61 350.49 738.1 53.09"/><polygon class="cls-5" points="637.22 605.49 652.83 626.41 421.22 799.24 405.61 778.32 637.22 605.49"/><polygon class="cls-3" points="526.61 355.86 518.36 379.25 683.61 437.55 691.86 414.16 526.61 355.86"/><polygon class="cls-3" points="-179.8 230.73 -155.22 199.62 179.8 464.34 155.22 495.44 -179.8 230.73"/><polygon class="cls-2" points="-149.32 884.29 -169.5 857.26 85.76 666.77 105.94 693.81 -149.32 884.29"/><polygon class="cls-4" points="941.7 -63.47 968.4 -51.2 894.17 110.29 867.47 98.02 941.7 -63.47"/><polygon class="cls-5" points="256.15 -6.82 268.43 23.77 47.21 112.51 34.94 81.92 256.15 -6.82"/><polygon class="cls-2" points="469.7 136.51 437.33 127.02 514.61 -136.51 546.98 -127.02 469.7 136.51"/></pattern></defs><title>app-banner-exp2</title><rect class="cls-6" width="2880" height="588"/></svg>