<?xml version="1.0" encoding="UTF-8"?>
<svg width="244px" height="146px" viewBox="0 0 244 146" version="1.1" xmlns="http://www.w3.org/2000/svg" xmlns:xlink="http://www.w3.org/1999/xlink">
    <title>Group 205 Copy</title>
    <defs>
        <polygon id="path-1" points="0.287874487 0.269783296 20.9530403 0.269783296 20.9530403 46.7242602 0.287874487 46.7242602"></polygon>
        <polygon id="path-3" points="0 0.0850631841 12.1693276 0.0850631841 12.1693276 24.4369721 0 24.4369721"></polygon>
        <polygon id="path-5" points="0.00689378109 0.0157256874 12.5356368 0.0157256874 12.5356368 22.383346 0.00689378109 22.383346"></polygon>
        <polygon id="path-7" points="0.0542125666 0.0732636816 8.55164981 0.0732636816 8.55164981 7.24678952 0.0542125666 7.24678952"></polygon>
    </defs>
    <g id="Onboarding" stroke="none" stroke-width="1" fill="none" fill-rule="evenodd">
        <g id="Group-130">
            <path d="M6.55637742,126.317741 C6.36584382,125.908329 6.53728871,125.449859 6.91234651,125.221506 C7.77310591,124.697741 9.06831022,125.250094 9.81135591,125.749153 C9.99411263,125.871271 10.165204,126.007153 10.3253371,126.153624 C10.3914406,126.185388 10.4561301,126.218918 10.5197591,126.254212 C10.3705844,125.627388 10.233782,124.996682 10.1111194,124.363153 C9.66147419,124.035624 9.2602578,123.686565 8.72577392,123.452212 C8.13473091,123.1928 7.5178828,122.946094 6.89007634,122.792565 C6.33473629,122.656682 5.73238145,122.675741 5.34601183,122.185153 C5.03175511,121.786329 5.00736398,121.247035 5.31808575,120.841153 C6.10531828,119.813035 7.5242457,120.590918 8.31642715,121.172212 C8.90676317,121.605271 9.40978602,122.120565 9.81948629,122.704682 C9.71520538,122.040094 9.62647823,121.372329 9.55012339,120.703859 C9.23622016,120.315624 8.85621344,119.979976 8.42883844,119.728329 C7.80598091,119.361624 7.08980081,119.175271 6.42735188,118.893976 C5.433325,118.471859 3.56121747,117.107388 4.70441909,115.886565 C5.75500511,114.764918 7.41713683,116.031624 8.24183978,116.797859 C8.65684247,117.183624 9.01811398,117.614212 9.32176586,118.079035 C9.30090968,117.727859 9.28500242,117.376682 9.27156962,117.025506 C9.1287578,116.811271 9.05028199,116.550094 8.92903333,116.312212 C8.7402672,115.941624 8.52534247,115.581976 8.27931022,115.246329 C7.76921747,114.549624 7.16191371,113.946094 6.55814489,113.332682 C5.98972554,112.754918 5.45488817,112.136918 5.16431559,111.369976 C4.92782769,110.744918 4.69240027,109.725271 5.33894194,109.262212 C6.00245134,108.786447 6.84164758,109.301741 7.36022419,109.760565 C7.9452578,110.277976 8.36450242,110.953859 8.74910457,111.626212 C8.94494059,111.968212 9.12734382,112.319388 9.29560726,112.677976 C9.31292849,112.322918 9.33307769,111.967506 9.35817581,111.612447 C9.39882769,111.040329 9.44937742,110.468918 9.509825,109.898212 C9.57239355,109.310918 9.59218925,108.685506 9.84705887,108.1448 C10.0782444,107.654918 10.8704258,107.609388 10.9757672,108.229153 C11.1348398,109.166565 10.8633559,110.207035 10.7852336,111.149741 C10.7325629,111.788565 10.6936785,112.428094 10.6657524,113.067976 C11.019247,112.3568 11.3688532,111.593035 11.8542013,110.974329 C12.6534527,109.956447 14.6535253,109.400565 15.4393438,110.780918 C16.2990427,112.291506 14.2261503,113.383153 13.2331839,114.037506 C12.5152363,114.5108 11.7817349,115.012329 11.2306368,115.681153 C11.0044003,115.955388 10.8046758,116.2568 10.6657524,116.584329 C10.6537336,116.612565 10.6441892,116.642212 10.6339379,116.671506 C10.6434823,117.031506 10.6558546,117.391859 10.6724688,117.751506 C10.9107242,117.287741 11.2087202,116.853624 11.5646892,116.461153 C12.4537282,115.482094 13.8708882,114.650918 15.132864,115.520212 C15.5874581,115.833624 15.9303478,116.416329 15.7907175,116.980682 C15.6330589,117.6188 14.7553317,117.966447 14.2226153,118.222682 C13.5011328,118.569976 12.7351099,118.736918 11.9878223,119.008682 C11.6194809,119.142447 11.2316973,119.318212 10.9637484,119.615035 C10.9022403,119.683153 10.854872,119.754447 10.8149272,119.828212 C10.824118,119.930212 10.8322484,120.032212 10.8421462,120.134565 C10.9103707,120.8408 10.9930884,121.547035 11.089239,122.251859 C11.381579,121.701976 11.7538089,121.200094 12.2320871,120.795271 C13.1692013,120.001859 14.8440589,119.230329 15.9618089,120.107388 C16.4082726,120.457859 16.675161,121.073741 16.5454285,121.635976 C16.3884769,122.317859 15.758903,122.618212 15.1332175,122.768565 C13.8733626,123.072447 12.0072645,123.069271 11.4201099,124.359271 C11.5699917,125.204212 11.7403761,126.045624 11.9312632,126.882447 C12.1030616,126.427506 12.3703035,126.004682 12.7230911,125.634094 C13.3936704,124.928918 14.6552927,124.226565 15.6327054,124.716447 C16.6900078,125.245859 16.1010858,126.461388 15.3226906,126.924094 C14.7178613,127.283035 14.0342027,127.354682 13.3685723,127.532212 C12.930239,127.649388 12.4908452,127.871035 12.2582457,128.233859 C12.5608371,129.412682 12.9044339,130.579506 13.2908035,131.729741 C13.9977927,133.835035 14.7486153,136.099153 16.149868,137.8568 C16.4432685,138.224212 15.9165616,138.689388 15.5984164,138.338918 C14.2413505,136.841035 13.4378573,134.965153 12.6941046,133.111506 C12.0571073,131.523271 11.5091906,129.896565 11.0418707,128.249388 C10.7265535,128.006918 10.3942685,127.802918 9.9898707,127.6568 C9.31717043,127.413976 8.60664624,127.303153 7.91415027,127.133388 C7.4121879,127.009859 6.79533978,126.830918 6.55637742,126.317741" id="Fill-96" fill="#82B378" transform="translate(10.462269, 123.116920) rotate(-17.000000) translate(-10.462269, -123.116920) "></path>
            <path d="M60.5186769,129.425129 L19.940322,144.944306 C17.4389941,145.901129 15.3544363,144.201012 15.3544363,141.120541 L15.3544363,23.9670118 C15.3544363,20.8865412 17.4389941,19.1864235 19.940322,20.1432471 L60.5186769,35.6624235 C61.8934175,36.1883059 62.9857159,38.3941882 62.9857159,40.5997176 L62.9857159,124.487835 C62.9857159,126.693718 61.8934175,128.8996 60.5186769,129.425129" id="Fill-5" fill="#90AEFF"></path>
            <polygon id="Fill-7" fill="#D0E1FC" points="60.3955901 125.722502 20.1576505 138.308835 20.1576505 30.3088353 60.3955901 44.392642"></polygon>
            <path d="M48.8709583,36.4289412 L36.8341129,32.2935294 C36.4205242,32.1516471 36.0808159,31.5749412 36.0808159,31.0127059 C36.0808159,30.4504706 36.4205242,30.112 36.8341129,30.2598824 L48.8709583,34.5622353 C49.2170296,34.6864706 49.4991183,35.2049412 49.4991183,35.7156471 C49.4991183,36.2267059 49.2170296,36.5478824 48.8709583,36.4289412" id="Fill-11" fill="#649BEA"></path>
            <path d="M228.896544,93.7621059 C227.468426,102.243282 224.552095,110.667988 220.285415,118.316224 C210.574918,124.319753 191.542767,135.003635 171.040079,140.558929 C132.551584,150.991518 98.0999983,132.980929 72.3797294,119.089518 C46.6594606,105.1974 20.1544337,111.320929 20.1544337,111.320929 L20.1473638,77.8374 C77.4912617,73.6303412 104.003358,116.142106 141.106154,124.983282 C172.514151,132.465635 216.220227,102.988341 228.896544,93.7621059" id="Fill-15" fill="#F8F8F8"></path>
            <path d="M70.5413099,100.067941 C70.5413099,100.067941 67.7971312,102.130529 69.455728,103.055588 C71.1143247,103.980294 73.6202481,104.258059 74.712193,104.699941 C75.8037844,105.141824 78.068978,106.388412 78.3500062,105.258294 C78.6306809,104.127824 76.6486366,103.123 75.4753879,102.318294 C74.3021392,101.513588 73.6138852,100.828529 73.6138852,100.828529 L70.5413099,100.067941 Z" id="Fill-17" fill="#5B5B5B"></path>
            <path d="M75.1624391,96.8115294 L75.1624391,96.8115294 C75.4554862,96.8838824 75.6354149,97.1824706 75.5629485,97.4750588 L73.6710453,105.090118 C73.5985789,105.382353 73.2995224,105.562353 73.0064754,105.489647 C72.7137819,105.417294 72.5334996,105.118706 72.6063195,104.826471 L74.4982227,97.2114118 C74.5706891,96.9191765 74.8697456,96.7391765 75.1624391,96.8115294" id="Fill-19" fill="#3A216E"></path>
            <path d="M75.8238629,106.945812 L69.9197957,105.483576 C69.3605672,105.345224 69.0169704,104.775576 69.1555403,104.217224 C69.2941102,103.658871 69.865004,103.315812 70.423879,103.454165 L76.3279462,104.9164 C76.8868212,105.054753 77.2307715,105.624753 77.0922016,106.182753 C76.9536317,106.740753 76.3827379,107.084165 75.8238629,106.945812" id="Fill-21" fill="#3A216E"></path>
            <path d="M72.3317249,63.1475059 C72.3317249,63.1475059 72.1213956,80.5775059 71.963737,82.5952706 C71.8057249,84.6126824 68.9929681,93.1715059 70.5412746,100.067976 L73.6138499,100.828565 C73.6138499,100.828565 77.8292733,85.9330353 78.8293095,80.5249176 C79.8296993,75.1168 82.0722692,64.0171529 82.0722692,64.0171529 L72.3317249,63.1475059 Z" id="Fill-23" fill="#CC8A5E"></path>
            <path d="M110.605648,65.6970471 L106.570507,64.6569294 C105.883667,64.4797529 105.466543,63.7738706 105.643998,63.0881059 C105.821452,62.4023412 106.528441,61.9858706 107.215635,62.1630471 L111.250422,63.2031647 C111.937616,63.3803412 112.354386,64.0862235 112.176932,64.7719882 C111.999831,65.4577529 111.292488,65.8742235 110.605648,65.6970471" id="Fill-25" fill="#3A216E"></path>
            <path d="M106.694089,88.9637412 C98.0005956,86.7229176 89.1335364,91.9429176 86.8891991,100.6228 C84.6448617,109.303035 89.8730472,118.155859 98.5665405,120.397035 C107.260034,122.637506 116.127093,117.417506 118.37143,108.737624 C120.615768,100.057741 115.387582,91.2049176 106.694089,88.9637412 M106.042598,91.4833882 C113.330597,93.3620941 117.729484,100.810212 115.848186,108.087506 C113.96618,115.364094 106.506383,119.755741 99.218031,117.877388 C91.9296789,115.998682 87.5311453,108.550212 89.4124437,101.273271 C91.2940956,93.9966824 98.7542461,89.6046824 106.042598,91.4833882" id="Fill-27" fill="#3A216E"></path>
            <path d="M53.1572574,75.1644118 C44.4637641,72.9235882 35.596705,78.1435882 33.3523676,86.8234706 C31.1080302,95.5033529 36.3362157,104.356176 45.029709,106.597353 C53.7235558,108.838176 62.5902614,103.618176 64.8345988,94.9382941 C67.0789362,86.2584118 61.8507507,77.4052353 53.1572574,75.1644118 M52.5057668,77.6840588 C59.794119,79.5624118 64.1926526,87.0108824 62.3113542,94.2878235 C60.4297023,101.564412 52.9695517,105.956412 45.6811996,104.077706 C38.3928474,102.199353 33.9943138,94.7508824 35.8759657,87.4735882 C37.7576176,80.197 45.2177681,75.8053529 52.5057668,77.6840588" id="Fill-29" fill="#3A216E"></path>
            <path d="M49.307807,67.8639647 L49.5283876,88.3165529 L59.6507062,70.5300824 L49.307807,67.8639647 Z M48.6683352,91.6394941 L48.6679817,91.6394941 C48.3572599,91.5590235 48.1384468,91.2805529 48.1352653,90.9597294 L47.8764627,66.9530235 C47.8740328,66.7320824 47.9747788,66.5227882 48.1486981,66.3865529 C48.322971,66.2506706 48.5506215,66.2030235 48.7648392,66.2580824 L60.9052586,69.3872588 C61.1191228,69.4426706 61.2955167,69.5944353 61.3817694,69.7977294 C61.4683755,70.0013765 61.4545892,70.2332588 61.3453594,70.4252588 L49.4640516,91.3031412 C49.3053325,91.5816118 48.979057,91.7192588 48.6683352,91.6394941 L48.6683352,91.6394941 Z" id="Fill-31" fill="#FF6F5C"></path>
            <path d="M100.702108,71.9100471 C100.193075,71.7787529 99.8166035,71.3185176 99.814129,70.7693412 L99.8059919,68.5468706 C99.8045847,68.1265176 100.026579,67.7368706 100.388911,67.5236941 C100.75195,67.3098118 101.200535,67.3052235 101.567816,67.5095765 C102.133054,67.8205176 103.858108,68.5415765 105.002016,68.1304 C105.298245,68.0241647 105.727741,67.7929882 106.035281,67.0179294 C106.358022,66.2036941 106.397613,65.5514588 106.152641,65.0792235 C105.785714,64.3726353 104.847185,64.1404 104.838348,64.1365176 C104.831985,64.1351059 104.826329,64.1333412 104.82032,64.1319294 C104.198876,63.9716941 103.811446,63.3445176 103.956733,62.7184 C104.103786,62.0862824 104.726997,61.6888706 105.36152,61.8293412 C105.567254,61.8741647 107.365481,62.3149882 108.239673,63.9596941 C108.83107,65.0725176 108.830716,66.3946353 108.237906,67.8886353 C107.754325,69.1084 106.90912,69.9628706 105.793491,70.3602824 C104.556613,70.8004 103.217575,70.6059294 102.181836,70.3016941 L102.183603,70.7605176 C102.186078,71.4134588 101.657603,71.9453412 101.003285,71.9474658 C100.899358,71.9478118 100.798258,71.9347529 100.702108,71.9100471" id="Fill-33" fill="#F45E4A"></path>
            <path d="M104.072714,64.0131647 L100.037573,62.9730471 C99.3507329,62.7958706 98.9336093,62.0899882 99.1110636,61.4042235 C99.2885179,60.7184588 99.9955071,60.3019882 100.682347,60.4791647 L104.717488,61.5192824 C105.404682,61.6961059 105.821452,62.4023412 105.643998,63.0881059 C105.466543,63.7738706 104.759554,64.1899882 104.072714,64.0131647" id="Fill-35" fill="#3A216E"></path>
            <path d="M62.5892363,71.3576941 L45.6193734,66.9833412 C44.7048828,66.7475765 44.1498962,65.8080471 44.3856772,64.8949882 C44.6218116,63.9819294 45.5631677,63.4278118 46.4776583,63.6635765 L63.4478747,68.0375765 C64.3623653,68.2733412 64.9169984,69.2132235 64.680864,70.1262824 C64.4450831,71.0393412 63.5037269,71.5934588 62.5892363,71.3576941" id="Fill-37" fill="#F45E4A"></path>
            <path d="M105.802929,105.498224 C105.350456,107.2474 103.56354,108.299518 101.811268,107.848106 C100.058995,107.396341 99.0052273,105.611871 99.4577004,103.862341 C99.9101735,102.113165 101.697089,101.061047 103.449362,101.512812 C105.201635,101.964224 106.255402,103.748694 105.802929,105.498224" id="Fill-39" fill="#3A216E"></path>
            <path d="M52.2660974,91.6986824 C51.8136243,93.4482118 50.026709,94.4999765 48.2744362,94.0485647 C46.5221633,93.5968 45.4687493,91.8123294 45.920869,90.0631529 C46.3733421,88.3136235 48.1602574,87.2615059 49.9125302,87.7132706 C51.6648031,88.1646824 52.7185706,89.9491529 52.2660974,91.6986824" id="Fill-41" fill="#3A216E"></path>
            <path d="M76.0523972,95.3135765 L74.3231015,75.2499294 L98.0189066,80.6456941 L76.0523972,95.3135765 Z M71.5357964,76.0151059 L73.23858,95.7738118 L51.7188878,90.2269882 L71.5357964,76.0151059 Z M104.057302,104.827106 L102.836685,80.5941647 C102.959701,80.3319294 103.004241,80.0340471 102.94945,79.7368706 C102.918342,79.5692235 102.854713,79.4146353 102.770228,79.2741647 L102.49026,72.1108706 C102.451022,71.3280471 101.783271,70.7252235 100.99922,70.7647529 C100.215169,70.8042824 99.6113999,71.4706353 99.6506378,72.2538118 L99.86733,78.1553412 L74.0675249,72.2799294 L73.4538582,65.1618118 C73.3863407,64.3807529 72.6980867,63.8019294 71.9158031,63.8696941 C71.1335195,63.9367529 70.5541418,64.6242824 70.6213058,65.4053412 L71.2519402,72.7235765 L47.5936055,89.6901647 C47.5921915,89.6908706 47.591131,89.6922824 47.5897171,89.6929882 C47.5543676,89.7184 47.5200786,89.7462824 47.4872036,89.7748706 C47.4755383,89.7851059 47.46458,89.7960471 47.4532681,89.8066353 C47.42817,89.8299294 47.4037789,89.8528706 47.3804483,89.8779294 C47.3634805,89.8955765 47.3486337,89.9149882 47.33308,89.9336941 C47.3189402,89.9506353 47.3040934,89.9668706 47.2906606,89.9841647 C47.2743999,90.0056941 47.2599066,90.0282824 47.2450598,90.0505176 C47.2341015,90.0667529 47.2224362,90.0822824 47.2121848,90.0992235 C47.1962776,90.1246353 47.1828448,90.1511059 47.168705,90.1775765 C47.1609281,90.1920471 47.1520907,90.2061647 47.1446673,90.2209882 C47.1033085,90.3060471 47.0711405,90.3942824 47.0474563,90.4849882 L47.0463958,90.4881647 C47.0432144,90.5008706 47.0414469,90.5135765 47.038619,90.5266353 C47.0311956,90.5580471 47.0241257,90.5894588 47.0188233,90.6215765 C47.0152883,90.6445176 47.0135208,90.6678118 47.0110464,90.6907529 C47.0085719,90.7133412 47.0053905,90.7355765 47.0039765,90.7585176 C47.0022483,90.7842824 47.002916,90.8100471 47.0022483,90.8361647 C47.0022483,90.8562824 47.0022483,90.8764 47.0022483,90.8965176 C47.003623,90.9222824 47.0060974,90.9469882 47.0082184,90.9720471 C47.0103394,90.9935765 47.0117534,91.0144 47.0145813,91.0355765 C47.0177628,91.0581647 47.0223582,91.0807529 47.0266001,91.1033412 C47.0308421,91.1266353 47.035084,91.1499294 47.0403864,91.1732235 C47.0453353,91.1926353 47.0513448,91.2124 47.0570007,91.2321647 C47.0640706,91.2572235 47.0711405,91.2819294 47.0796243,91.3066353 C47.0859872,91.3249882 47.0934106,91.3426353 47.1004805,91.3602824 C47.1103784,91.3853412 47.1199227,91.4104 47.1312345,91.4351059 C47.1397184,91.4541647 47.1499698,91.4725176 47.1598676,91.4912235 C47.1711794,91.5131059 47.1821378,91.5356941 47.1948636,91.5575765 C47.2090034,91.5819294 47.2249106,91.6045176 47.2404644,91.6281647 C47.2500087,91.6422824 47.2577856,91.6571059 47.268037,91.6712235 C47.2690974,91.6726353 47.2701579,91.6736941 47.2708649,91.6744 C47.2984375,91.7125176 47.3274241,91.7492235 47.3585316,91.7845176 C47.3627735,91.7891059 47.367369,91.7926353 47.3712574,91.7972235 C47.3984765,91.8272235 47.426756,91.8565176 47.4564496,91.8840471 C47.4709429,91.8974588 47.4861431,91.9091059 47.5009899,91.9221647 C47.5218461,91.9394588 47.5416418,91.9574588 47.563205,91.9736941 C47.5808797,91.9871059 47.5989079,91.9984 47.6169362,92.0107529 C47.6374388,92.0248706 47.6572345,92.0396941 47.6784442,92.0527529 C47.6982399,92.0647529 47.7190961,92.0746353 47.7392453,92.0859294 C47.759748,92.0972235 47.7795437,92.1092235 47.8007534,92.1194588 C47.8339819,92.1353412 47.8679173,92.1491059 47.9018528,92.1625176 C47.9113972,92.1664 47.9202345,92.1709882 47.9294254,92.1741647 C47.9732587,92.1904 48.0181526,92.2041647 48.0630464,92.2161647 C48.0648138,92.2165176 48.0658743,92.2172235 48.0672883,92.2175765 L73.8808797,98.8708706 C73.9830397,98.9651059 74.0982789,99.0462824 74.2269509,99.1080471 C74.3114362,99.1486353 74.3983958,99.1800471 74.487123,99.2033412 C74.8749066,99.3032235 75.2923837,99.2358118 75.6327991,99.0085176 L100.094981,82.6747529 L101.217679,104.969694 C101.249494,105.605341 101.695604,106.122047 102.281698,106.273106 C102.41744,106.308047 102.561313,106.323224 102.709073,106.316165 C103.492771,106.276635 104.09654,105.609929 104.057302,104.827106 L104.057302,104.827106 Z" id="Fill-43" fill="#82A0F0"></path>
            <path d="M79.4539345,66.0458235 C79.4539345,66.0458235 73.1338042,68.4175882 67.3050313,65.2054706 C63.3996227,63.0532353 66.9048754,58.8652353 70.2436321,60.7442941 C73.5823888,62.623 77.5570824,63.5205294 79.2344144,63.4435882 C80.9117464,63.3666471 81.4048714,65.4031176 79.4539345,66.0458235" id="Fill-45" fill="#F45E4A"></path>
            <path d="M79.3211973,98.1050588 C78.7230844,100.512118 76.2839715,101.98 73.8727847,101.382471 C71.4619513,100.785647 69.9921207,98.35 70.5902336,95.9429412 C71.1883465,93.5358824 73.6274594,92.0683529 76.0382927,92.6655294 C78.4494796,93.2623529 79.9189567,95.698 79.3211973,98.1050588" id="Fill-47" fill="#F45E4A"></path>
            <path d="M76.653232,97.4443176 C76.4206325,98.3803176 75.4722065,98.9513765 74.5343852,98.7187882 C73.5969175,98.4865529 73.0253167,97.5399647 73.2582696,96.6036118 C73.4905156,95.6676118 74.4389417,95.0969059 75.3767629,95.3291412 C76.3142306,95.5613765 76.8858315,96.5083176 76.653232,97.4443176" id="Fill-49" fill="#3A216E"></path>
            <path d="M49.0653097,87.6122941 C49.0653097,87.6122941 74.5915099,90.8000588 78.3194642,92.8308824 C82.6084145,95.1673529 80.9494642,103.397941 74.3493661,102.133353 C68.2961242,100.973235 50.4729253,94.9284118 47.562604,93.9352353 C47.0291806,93.7531176 46.5459535,93.4277059 46.2267478,92.9635882 C45.8156336,92.3671176 45.5148097,91.4099412 45.954557,89.9681765 C46.8344051,87.0846471 49.0653097,87.6122941 49.0653097,87.6122941 Z" id="Stroke-51" stroke="#085486" stroke-width="2"></path>
            <path d="M93.8676425,45.0397882 C93.8676425,45.0397882 99.9661317,55.1307294 102.279754,56.0741412 C106.263285,57.6980235 110.938605,61.9887294 110.941083,63.3606118 C110.943554,64.7324941 109.613353,66.6313176 109.247487,65.3409647 C108.88162,64.0502588 108.231897,62.5184941 107.503698,61.9954353 C106.775499,61.4720235 97.1929664,58.5849647 96.989707,58.0202588 C96.7868011,57.4559059 90.1004503,48.0030824 90.1004503,48.0030824 C90.1004503,48.0030824 89.3383159,43.2327294 93.8676425,45.0397882" id="Fill-53" fill="#CC8A5E"></path>
            <path d="M83.6038554,61.9970235 C83.6038554,61.9970235 94.9312371,68.9157294 95.3854777,73.9984353 C95.8393648,79.0814941 77.9857653,83.2296118 77.9857653,83.2296118 L76.9715892,81.0932588 C76.9715892,81.0932588 80.3174159,76.6084353 83.629307,75.7147882 C86.9411981,74.8211412 87.868768,73.8509059 87.868768,73.8509059 C87.868768,73.8509059 79.9024132,70.6783176 78.2010435,68.5430235 C76.5000274,66.4080824 83.6038554,61.9970235 83.6038554,61.9970235" id="Fill-55" fill="#E59D6C"></path>
            <path d="M76.9716953,81.0932235 C76.9716953,81.0932235 74.7892195,80.8952235 75.0751966,82.5088706 C75.3608203,84.1221647 74.5976254,86.5038118 75.6492719,87.1073412 C76.7009184,87.7105176 80.541991,88.8332235 80.4592733,87.7842824 C80.3765555,86.7353412 79.4475716,87.0194588 78.7179587,85.8102824 C77.9883458,84.6014588 77.9858714,83.2295765 77.9858714,83.2295765 L76.9716953,81.0932235 Z" id="Fill-57" fill="#5B5B5B"></path>
            <path d="M91.8405629,39.6776235 C91.8405629,39.6776235 92.359493,40.3828 93.1774796,39.2897412 L96.5501718,41.6569176 L94.7240185,44.1836235 C94.7240185,44.1836235 94.1442874,45.3430353 92.1813317,44.4479765 C90.2187296,43.5529176 90.3127591,41.1091529 91.8405629,39.6776235" id="Fill-59" fill="#CC8A5E"></path>
            <path d="M91.8405629,39.6776235 C91.8405629,39.6776235 83.8848129,42.9377412 78.4805871,48.7979765 C73.0763613,54.6582118 67.8874137,57.7489176 70.7242081,61.2218588 C74.6978411,66.0868 71.5796651,67.7145647 73.7670898,70.6556235 L90.7358922,67.2045647 C90.7358922,67.2045647 84.9778183,61.9944471 84.4111664,61.5112706 C83.8445145,61.0284471 85.9782081,56.5863294 88.481657,55.4922118 C90.9847524,54.3980941 92.4390293,54.0726824 93.0003788,51.8124471 C93.5620817,49.5518588 94.7240185,44.1836235 94.7240185,44.1836235 C94.7240185,44.1836235 90.6372672,44.5213882 91.8405629,39.6776235" id="Fill-61" fill="#2A4282"></path>
            <path d="M85.5917677,44.3215176 C85.5917677,44.3215176 86.1386239,55.9403412 87.3571199,59.3271647 C88.5756159,62.7139882 99.7651347,60.5148118 101.425145,62.1256353 C103.084803,63.7361059 101.18689,64.4659882 102.520625,64.6248118 C103.85436,64.7839882 104.819754,62.2805765 103.604793,60.9514 C102.390186,59.6222235 90.8659075,55.5683412 90.8659075,55.5683412 C90.8659075,55.5683412 91.2505097,45.0372824 90.804046,44.0698706 C90.3575823,43.1024588 86.9580245,40.2037529 85.5917677,44.3215176" id="Fill-63" fill="#E59D6C"></path>
            <path d="M77.1391103,88.8551765 L77.1391103,88.8551765 C77.4318039,88.9275294 77.6120862,89.2261176 77.5392663,89.5183529 L75.6477165,97.1334118 C75.5748966,97.4256471 75.2758402,97.6056471 74.9831466,97.5332941 C74.6904531,97.4605882 74.5101708,97.162 74.5829907,96.8697647 L76.474894,89.2547059 C76.5473603,88.9624706 76.8464168,88.7824706 77.1391103,88.8551765" id="Fill-65" fill="#3A216E"></path>
            <path d="M79.9418985,90.3692941 L74.0378313,88.9070588 C73.4786028,88.7687059 73.135006,88.1990588 73.2735759,87.6410588 C73.4121458,87.0827059 73.9830397,86.7396471 74.5419147,86.8776471 L80.4459819,88.3398824 C81.0048569,88.4785882 81.3488071,89.0482353 81.2102372,89.6065882 C81.0716673,90.1645882 80.5007735,90.508 79.9418985,90.3692941" id="Fill-67" fill="#3A216E"></path>
            <path d="M96.5502778,41.6570588 C96.5502778,41.6570588 97.8981528,42.3107059 99.1806313,42.3918824 C100.463463,42.4730588 101.710946,42.1557647 103.102654,40.8449412 C104.494009,39.5341176 106.168867,37.1457647 106.890703,35.6694118 C107.612892,34.1927059 105.398955,27.85 100.854782,28.0254118 C96.3106085,28.2008235 91.8823813,34.3977647 93.1772321,39.2898824 C94.4724364,44.182 96.5502778,41.6570588 96.5502778,41.6570588" id="Fill-69" fill="#CC8A5E"></path>
            <polygon id="Fill-71" fill="#FFBE55" points="64.2203312 68.4519647 45.260647 63.8464353 49.306393 47.2430235 68.2660772 51.8485529"></polygon>
            <polygon id="Fill-73" fill="#FFBE55" points="68.9937458 54.1535412 47.6907458 48.9787176 48.6699259 44.9601294 69.9729259 50.1349529"></polygon>
            <polygon id="Fill-75" fill="#E1A749" points="67.6425833 54.4268588 48.6761828 49.8199176 48.8151062 49.2502706 67.7815067 53.8572118"></polygon>
            <polygon id="Fill-77" fill="#FFBE55" points="65.8454167 49.4796471 49.187336 45.4331765 52.742078 30.8457647 69.4001586 34.8918824"></polygon>
            <polygon id="Fill-79" fill="#FFBE55" points="70.0393829 36.9171647 51.3225496 32.3705765 52.1829555 28.8397529 70.8997888 33.3863412"></polygon>
            <polygon id="Fill-81" fill="#E1A749" points="68.8522066 37.1572353 52.18847 33.1093529 52.3104257 32.6088824 68.9741622 36.6567647"></polygon>
            <polygon id="Fill-83" fill="#E1A749" points="65.9429458 49.1986 49.2792093 45.1507176 49.4011649 44.6502471 66.0649015 48.6981294"></polygon>
            <path d="M97.9830622,26.4912824 C94.5032612,27.0454 91.9018942,29.1189294 89.1923579,31.1963412 C86.5535206,33.2190471 82.38087,35.2978706 79.3093552,32.8671647 C77.1940434,31.1931647 76.3453028,28.2132824 73.2455085,28.0209294 C70.7611483,27.8670471 68.4390421,29.6095176 67.5849991,31.8775176 C66.3958431,35.0359882 67.4432477,38.1799882 69.4995259,40.6304588 C69.5094238,40.6428118 69.5196751,40.6548118 69.529573,40.6671647 C69.560327,40.7035176 69.5914345,40.7391647 69.6225421,40.7748118 C69.723288,40.8948118 69.827569,41.0126941 69.9375058,41.1277529 C71.762952,43.0876353 74.2317585,44.5329294 76.6348149,45.0683412 C84.3166066,46.7801059 91.2712598,42.3503412 96.8603633,37.6036353 C97.1127585,37.3890471 97.1756805,37.1324588 97.1212423,36.8966941 C97.1272517,36.8635176 97.1307867,36.8289294 97.1311402,36.7932824 C97.141038,35.7944588 97.2983431,34.5397529 98.556077,34.4066941 C99.247866,34.3332824 99.908194,34.7815176 100.455404,35.1312824 C101.212236,35.6148118 101.90049,36.2162235 102.759128,36.5229294 C104.081551,36.9951647 105.578248,36.8261059 106.756799,36.0951647 C106.92683,36.1096353 107.095447,36.0386941 107.181346,35.8435176 C107.191597,35.8198706 107.199021,35.7965765 107.209272,35.7732824 C107.217402,35.7662235 107.22624,35.7605765 107.234724,35.7535176 C107.355972,35.6536353 107.385312,35.5223412 107.357386,35.3981059 C109.4324,29.7489294 103.166,25.6657529 97.9830622,26.4912824" id="Fill-85" fill="#3A216E"></path>
            <path d="M96.6847118,42.5614706 C96.4397401,42.5614706 96.2198664,42.391 96.1664887,42.1421765 C95.3746608,38.4274706 100.323585,34.5634706 100.534975,34.4007647 C100.766868,34.2225294 101.099506,34.2655882 101.278374,34.4964118 C101.457243,34.7275882 101.41447,35.0600588 101.182931,35.239 C101.136623,35.2746471 96.5507374,38.8573529 97.2039954,41.9215882 C97.2647965,42.2078235 97.0820398,42.4887647 96.7957091,42.5498235 C96.7582387,42.5575882 96.7214753,42.5614706 96.6847118,42.5614706" id="Fill-87" fill="#654FB2"></path>
            <path d="M105.480153,37.7855412 L90.6789796,29.9086 C90.6789796,29.9086 90.3689648,21.9783647 101.91516,25.5204824 C107.334939,27.1831882 109.360463,31.8031882 108.184033,34.2437765 C107.007603,36.6840118 105.480153,37.7855412 105.480153,37.7855412" id="Fill-89" fill="#466EB6"></path>
            <path d="M97.3230171,39.3136353 C97.1529862,39.3136353 96.9857832,39.2321059 96.8832698,39.0806941 C95.75138,37.4105765 95.5650883,31.9710471 95.5474136,31.3565765 C95.5392832,31.0643412 95.7697617,30.8208118 96.0624552,30.8123412 C96.3555023,30.8035176 96.5990601,31.0339882 96.607544,31.3262235 C96.6527913,32.9112824 96.9486663,37.2877529 97.7617039,38.4877529 C97.9257254,38.7298706 97.8620964,39.0588118 97.6195991,39.2225765 C97.5287509,39.2843412 97.425177,39.3136353 97.3230171,39.3136353" id="Fill-91" fill="#654FB2"></path>
            <g id="Group-95" transform="translate(222.790323, 13.882353)">
                <mask id="mask-2" fill="white">
                    <use xlink:href="#path-1"></use>
                </mask>
                <g id="Clip-94"></g>
                <path d="M20.9495761,24.8100353 C20.9997723,24.1373294 20.5172522,23.5867412 19.8721245,23.4649765 C18.3920425,23.1858 16.8730761,24.6402706 16.0975089,25.7294471 C15.9073288,25.9966235 15.7397723,26.2768588 15.5934255,26.5659176 C15.5177777,26.6449765 15.4446043,26.7261529 15.3746124,26.8090941 C15.2519497,25.8536824 15.1098449,24.9000353 14.9468839,23.9495647 C15.4021849,23.2549765 15.7783032,22.5558 16.4022212,21.9462706 C17.0915358,21.2728588 17.8232696,20.6026235 18.6200465,20.0573294 C19.3249148,19.5745059 20.1768368,19.2836824 20.4582185,18.3946235 C20.6869296,17.6714471 20.4363019,16.9045059 19.7869323,16.5007412 C18.1428288,15.4779176 16.5701312,17.3132118 15.7698194,18.5432118 C15.1731204,19.4598 14.741857,20.4452118 14.4777965,21.4775647 C14.2724161,20.4932118 14.0440586,19.5130941 13.7973194,18.5379176 C14.0313328,17.8302706 14.3848274,17.1603882 14.8496728,16.5833294 C15.5266151,15.7426235 16.4297938,15.1045059 17.206775,14.3626235 C18.3740142,13.2483882 20.2705129,10.3553294 18.026529,9.25062353 C15.9649484,8.23521176 14.310947,10.8819176 13.5629524,12.3882706 C13.1861272,13.1460353 12.9086339,13.9380353 12.7294121,14.7483882 C12.5731675,14.2461529 12.4102065,13.7463882 12.2430035,13.2480353 C12.3292562,12.8739176 12.3013301,12.4669765 12.3451634,12.0709765 C12.4133879,11.4529765 12.5236782,10.8370941 12.6905277,10.2378 C13.0355384,8.99509412 13.5650734,7.8318 14.0854175,6.6558 C14.574654,5.54897647 14.9963731,4.40332941 14.9970801,3.17791765 C14.9977871,2.17909412 14.7881648,0.629682353 13.6393073,0.322623529 C12.4600492,0.00709411765 11.5593449,1.16968235 11.0761177,2.08415294 C10.531736,3.11544706 10.303025,4.28156471 10.1202683,5.42403529 C10.0276527,6.00532941 9.95801425,6.59262353 9.91241344,7.18309412 C9.70031667,6.69497647 9.48433145,6.20897647 9.26198333,5.7258 C8.9024793,4.94721176 8.52954247,4.17462353 8.14352634,3.40909412 C7.74584489,2.62097647 7.38810833,1.75662353 6.74545511,1.13509412 C6.16360296,0.572152941 5.03206667,0.925447059 5.21199543,1.84732941 C5.48524677,3.24215294 6.41458414,4.55332941 7.0218879,5.83097647 C7.43300215,6.69568235 7.82538118,7.56956471 8.20255995,8.4498 C7.33260968,7.64156471 6.44038925,6.7578 5.43469704,6.14862353 C3.77928172,5.14591765 0.68973871,5.42297647 0.320336828,7.76650588 C-0.0840610215,10.3313294 3.39079113,10.7654471 5.12538925,11.1575647 C6.37888118,11.4413294 7.66949005,11.7558 8.79395645,12.4006235 C9.25455995,12.6649765 9.69324677,12.9815647 10.0605277,13.3659176 C10.0923422,13.3990941 10.1213288,13.4354471 10.1510223,13.4710941 C10.3284766,13.9796824 10.5013355,14.4896824 10.6681849,15.0018 C10.0902212,14.4787412 9.44403306,14.0283882 8.7384578,13.6673294 C6.97876156,12.7666235 4.55767688,12.3512118 3.25257473,14.2316824 C2.78242688,14.9089765 2.61168898,15.9042706 3.10481398,16.6196824 C3.662275,17.4289765 5.07342554,17.4526235 5.95362715,17.5306235 C7.14525753,17.6358 8.30471989,17.4656824 9.49316882,17.4519176 C10.0792629,17.4448588 10.7141392,17.4865059 11.2454417,17.7603882 C11.3673973,17.8235647 11.4716782,17.8983882 11.5664148,17.9799176 C11.6074202,18.1274471 11.650193,18.2746235 11.6904914,18.4225059 C11.9683382,19.4463882 12.2253288,20.4773294 12.4635841,21.5135647 C11.7640183,20.8980353 10.9785532,20.3926235 10.0958772,20.0785059 C8.36622796,19.4629765 5.61674677,19.2663882 4.51808548,21.0819176 C4.07869167,21.8068588 4.03132339,22.8081529 4.50924812,23.5263882 C5.0893328,24.3970941 6.1279,24.4849765 7.08233548,24.3660353 C9.00463925,24.1267412 11.6116621,23.1395647 13.1143677,24.6339176 C13.3512091,25.8942706 13.5580035,27.1602706 13.7333368,28.4305059 C13.2522306,27.8848588 12.6555317,27.4348588 11.9665707,27.1023882 C10.6565196,26.4702706 8.5210586,26.1526235 7.41320645,27.3519176 C6.21485968,28.6493294 7.68080188,30.0388588 9.01276962,30.2753294 C10.0488624,30.4592118 11.0421823,30.1987412 12.0666097,30.0967412 C12.7417844,30.0296824 13.4735183,30.1080353 13.9903274,30.4923882 C14.1900519,32.2998 14.3257938,34.1125059 14.3933113,35.9245059 C14.5173879,39.2400353 14.6644417,42.8012118 13.6336513,45.9967412 C13.4180196,46.6652118 14.4003812,47.0379176 14.6594927,46.3800353 C15.7659309,43.5716824 15.8977844,40.5254471 15.9578785,37.5416824 C16.0091352,34.9856824 15.9161661,32.4222706 15.6987669,29.8733294 C16.0116097,29.3689765 16.3682858,28.9083882 16.8568153,28.4908588 C17.6687925,27.7969765 18.6037858,27.2679176 19.4822199,26.6654471 C20.1185102,26.2288588 20.886654,25.6532118 20.9495761,24.8100353" id="Fill-93" fill="#82B378" mask="url(#mask-2)"></path>
            </g>
            <path d="M166.073561,45.9401294 C165.973522,43.7384824 164.678317,41.6321294 162.59376,40.6957765 C160.537128,39.7717765 158.336624,40.2284824 156.573393,41.4164824 C156.095115,38.6437765 154.000305,36.0062471 150.892027,36.5391882 C148.339796,36.9764824 147.179627,39.3761294 147.062266,41.7408353 C144.231481,41.7496588 141.981135,43.8768353 142.014717,46.6520118 C140.847831,46.8616588 139.815627,47.6723647 139.423248,48.8811882 C138.835033,50.6931882 139.820222,52.6777765 141.348026,53.6864824 C144.574018,55.8164824 149.199495,54.9164824 151.713549,52.1473059 C154.674066,54.1795412 159.104768,54.1431882 161.667604,51.5243647 C163.272823,52.5627176 164.941671,53.5336588 166.962953,53.1418941 C168.530348,52.8376588 170.19248,51.7121294 170.616674,50.1073059 C171.401078,47.1380118 168.542367,45.4294235 166.073561,45.9401294" id="Fill-98" fill="#FFFFFF"></path>
            <path d="M59.2198966,8.28894118 C58.5546198,8.02388235 57.8790915,7.99388235 57.1703348,8.07929412 C56.9257165,8.10858824 56.6849867,8.15764706 56.4559222,8.18341176 C56.7744208,6.07141176 55.6626802,3.87611765 53.511312,2.95 C51.9209397,2.26529412 49.7674504,2.43117647 48.3287273,3.38129412 C48.9671386,2.95988235 45.6460566,0.851411765 45.2625149,0.734588235 C43.7463765,0.272588235 41.8922972,0.409176471 40.4804397,1.14047059 C38.6709007,2.07752941 37.3908966,3.93717647 37.2261681,5.96164706 C37.1894047,6.41411765 37.2318241,6.97388235 37.3612031,7.52835294 C36.3123845,7.66952941 35.3045714,7.98894118 34.4236628,8.59705882 C32.5586251,9.88564706 31.7950767,12.1388235 32.6448778,14.2670588 C34.2069706,18.1804706 39.505148,18.7765882 42.72407,16.5685882 C45.0981399,19.072 50.1131681,17.6362353 52.9884934,16.0744706 C55.6008187,17.4047059 58.9219007,17.4167059 60.8548093,14.8914118 C62.5091641,12.73 61.8650969,9.34423529 59.2198966,8.28894118" id="Fill-100" fill="#FFFFFF"></path>
            <path d="M199.921305,121.400941 L235.421305,121.400941 C235.697447,121.400941 235.921305,121.177084 235.921305,120.900941 L235.921305,34.6838824 C235.921305,34.40774 235.697447,34.1838824 235.421305,34.1838824 L199.921305,34.1838824 C199.36902,34.1838824 198.921305,34.6315976 198.921305,35.1838824 L198.921305,120.400941 C198.921305,120.953226 199.36902,121.400941 199.921305,121.400941 Z" id="Fill-102" fill="#C6EBBD"></path>
            <g id="Group-48" transform="translate(185.000000, 46.000000)">
                <g id="Group-3" transform="translate(0.000000, 11.063552)">
                    <mask id="mask-4" fill="white">
                        <use xlink:href="#path-3"></use>
                    </mask>
                    <g id="Clip-2"></g>
                    <path d="M1.12970572,21.5789338 C1.12970572,21.5789338 4.01855896,14.121409 4.2739694,13.4631403 C4.52947189,12.8047796 5.98370075,2.55688408 5.98370075,2.55688408 L12.1693276,0.0850631841 C12.1693276,0.0850631841 8.68460871,13.2553144 8.00452662,14.9107423 C6.88072065,17.6461652 2.62829776,21.8725408 2.62829776,21.8725408 C2.90082761,22.4219264 2.61191468,23.1351428 1.96349428,23.6034413 C1.31516592,24.0718318 1.55612612,24.0034463 1.10660373,24.345098 C0.657081343,24.6867498 0.238760448,23.9655259 0.238760448,23.9655259 C-0.624296766,22.1827149 1.12970572,21.5789338 1.12970572,21.5789338" id="Fill-1" fill="#E8945B" mask="url(#mask-4)"></path>
                </g>
                <g id="Group-6" transform="translate(11.320896, 9.774995)">
                    <mask id="mask-6" fill="white">
                        <use xlink:href="#path-5"></use>
                    </mask>
                    <g id="Clip-5"></g>
                </g>
                <path d="M2.32352637,36.2646664 C2.32352637,36.2646664 2.67373781,40.6346241 3.0853398,45.8877037 C3.64484975,53.0234575 5.77465075,70.8037062 5.77465075,70.8037062 C5.77465075,70.8037062 5.32328756,71.5125047 7.51475522,71.050649 C7.51475522,71.050649 10.2003846,64.9945221 10.7582378,58.0282137 C10.7667975,57.9140843 10.7754493,57.7990346 10.784101,57.6840769 C11.3030214,50.5924102 12.1099343,35.6593206 12.1099343,35.6593206 L2.32352637,36.2646664 Z" id="Fill-7" fill="#2B478B"></path>
                <path d="M2.20398507,34.7546338 C2.20398507,34.7546338 2.67375622,40.6346886 3.08535821,45.8876761 L10.7581642,58.0281861 C10.7668159,57.9140567 10.7754677,57.799007 10.7841194,57.6840493 C11.3029478,50.5923826 12.1099527,35.659293 12.1099527,35.659293 L2.20398507,34.7546338 Z" id="Fill-9" fill="#233862"></path>
                <path d="M3.91534552,33.6480945 L17.1035445,71.5931592 C17.1035445,71.5931592 18.4826689,71.3333308 18.7921067,70.7236592 C18.7921067,70.7236592 19.1713107,54.6764279 16.9373206,50.8047736 C15.6749948,48.6172637 14.7941739,42.4810622 14.9443828,40.4090622 C15.2386341,36.3485423 14.028955,32.5682836 14.028955,32.5682836 L3.91534552,33.6480945 Z" id="Fill-11" fill="#2B478B"></path>
                <path d="M7.82901592,73.9114577 L6.7552796,73.9114577 C6.3956801,73.8547612 6.13005323,73.7506642 5.76115771,73.7024353 C5.20091144,73.6290796 4.94310796,73.8586269 4.89184179,73.9114577 C4.88493881,73.9182687 4.88180945,73.9221343 4.88180945,73.9221343 L0.320777114,73.9221343 C0.205911443,73.7583955 0.316083085,73.3787313 0.423953731,73.0994826 C0.496757214,72.9096965 0.655157711,72.7658383 0.851110448,72.7091418 C1.33459552,72.5690572 2.28831194,72.4444353 3.16140149,71.6538134 C3.65280199,71.2099055 5.5338194,70.0213035 5.5338194,70.0213035 L5.54385174,70.0190945 C5.58517761,70.0199229 5.78186667,70.080393 6.6375607,70.8028134 C7.0797199,71.1754826 7.83361791,70.2762537 7.83361791,70.2762537 C7.83361791,70.2762537 7.97517512,70.3933284 8.08083682,70.6113706 C8.16569751,70.7836692 8.22773234,71.0201194 8.1788592,71.3117015 C8.11074975,71.7226592 8.33026468,72.4864055 8.5056005,73.0030249 C8.61190647,73.3159602 8.70146119,73.5379602 8.70146119,73.5379602 C8.70146119,73.5379602 8.75272736,73.7958557 7.82901592,73.9114577" id="Fill-13" fill="#424242"></path>
                <path d="M7.82703706,73.9267363 L6.75790274,73.9267363 C6.39811915,73.8701318 6.13009925,73.7506642 5.76120373,73.7024353 C5.20095746,73.6290796 4.94306194,73.8586269 4.89179577,73.9114577 C4.88489279,73.9182687 4.88185547,73.9221343 4.88185547,73.9221343 L0.320731095,73.9221343 C0.205865423,73.7583955 0.316129104,73.3787313 0.423907711,73.0994826 C0.562519652,72.9762413 0.601544527,73.6343259 0.678029602,73.7392512 C0.754606716,73.8440846 4.39892264,73.7775398 4.60941766,73.6243856 C4.81991269,73.4714154 5.45130572,73.2035796 6.33129826,73.4139826 C7.09734552,73.5968657 8.22621368,73.1277388 8.50555448,73.0030249 C8.61186045,73.3159602 8.70141517,73.5379602 8.70141517,73.5379602 C8.70141517,73.5379602 8.75074851,73.8112264 7.82703706,73.9267363" id="Fill-15" fill="#424242"></path>
                <path d="M18.7928983,73.9114577 L17.7191619,73.9114577 C17.3595624,73.8547612 17.0939356,73.7506642 16.72504,73.7024353 C16.1648858,73.6290796 15.9069903,73.8586269 15.8557241,73.9114577 C15.8488211,73.9182687 15.8456918,73.9221343 15.8456918,73.9221343 L11.2845674,73.9221343 C11.1697938,73.7583955 11.2799654,73.3787313 11.3878361,73.0994826 C11.4606396,72.9096965 11.61904,72.7658383 11.8149928,72.7091418 C12.2984779,72.5690572 13.2521943,72.4444353 14.1253759,71.6538134 C14.6167764,71.2099055 16.4977017,70.0213035 16.4977017,70.0213035 L16.5077341,70.0190945 C16.54906,70.0199229 16.745749,70.080393 17.601351,70.8028134 C18.0436943,71.1754826 18.7975923,70.2762537 18.7975923,70.2762537 C18.7975923,70.2762537 18.9390575,70.3933284 19.0446271,70.6113706 C19.1295799,70.7836692 19.1916147,71.0201194 19.1427415,71.3117015 C19.07454,71.7226592 19.294147,72.4864055 19.4694828,73.0030249 C19.5757888,73.3159602 19.6653435,73.5379602 19.6653435,73.5379602 C19.6653435,73.5379602 19.7166097,73.7958557 18.7928983,73.9114577" id="Fill-17" fill="#424242"></path>
                <path d="M18.7910114,73.9267363 L17.7217851,73.9267363 C17.3620935,73.8701318 17.0939816,73.7506642 16.7250861,73.7024353 C16.1649318,73.6290796 15.9069443,73.8586269 15.8556781,73.9114577 C15.8487751,73.9182687 15.8457378,73.9221343 15.8457378,73.9221343 L11.2845214,73.9221343 C11.1697478,73.7583955 11.2800114,73.3787313 11.38779,73.0994826 C11.526402,72.9762413 11.5654269,73.6343259 11.642004,73.7392512 C11.7184891,73.8440846 15.362897,73.7775398 15.5733,73.6243856 C15.783703,73.4714154 16.4151881,73.2035796 17.2952726,73.4139826 C18.0613199,73.5968657 19.190096,73.1277388 19.4694368,73.0030249 C19.5757428,73.3159602 19.6653896,73.5379602 19.6653896,73.5379602 C19.6653896,73.5379602 19.7147229,73.8112264 18.7910114,73.9267363" id="Fill-19" fill="#424242"></path>
                <path d="M12.0208766,11.0175323 C12.0208766,11.0175323 7.74719254,13.12101 5.2771204,12.3415249 C5.2771204,12.3415249 5.88504328,11.564801 6.94515771,10.9816368 C6.88468756,10.6222214 6.83618259,10.2936393 6.79817015,10.0009527 C6.66103085,8.94221891 6.6560607,8.33935821 6.6560607,8.33935821 L9.27523731,6.22814925 L9.86254328,5.75469652 C9.84560796,6.25566915 9.87662537,6.72000995 9.94270995,7.14762687 C9.94777214,7.18140547 9.95255821,7.21518408 9.95826468,7.24822637 C10.3838567,9.78926119 12.0208766,11.0175323 12.0208766,11.0175323" id="Fill-21" fill="#FFB27D"></path>
                <path d="M14.4598393,33.3920122 C14.4725408,33.6642659 13.9119264,33.9633032 13.6683891,34.0723704 C12.5879338,34.55696 11.5509214,34.9545719 10.4872174,35.2365818 C9.74500846,35.4341913 8.98945373,35.5757485 8.1973592,35.6516813 C5.90897363,35.886659 3.20475224,35.37096 2.27680697,35.3835694 C2.17832438,35.3835694 2.09180697,35.3462933 2.01725473,35.2850868 C1.95531194,35.2352012 1.90607065,32.4402286 1.95531194,28.9150122 C1.95531194,28.7792535 1.95531194,28.630149 1.96727711,28.4943903 L1.96727711,28.445149 C1.97988657,27.0718231 2.02986418,25.6247734 2.09180697,24.1903331 C2.22765771,21.0239799 2.47450846,17.9687187 2.89586667,16.2739898 C3.39039652,14.2831689 4.52800846,12.9717858 5.56704577,12.0073007 L6.30529701,11.2727311 C6.35159303,11.2266192 6.41758557,11.2070147 6.48182935,11.2188878 C7.30788657,11.3710296 8.21226965,11.3585122 9.07965274,10.9309873 C10.0567473,10.4490669 11.1204512,9.92922612 11.2934861,10.0531117 C13.3216751,11.5683629 14.3311677,16.0460993 14.3122075,21.1365445 C14.3114711,21.2969699 14.3099985,21.4587759 14.3079736,21.6204898 C14.2987697,22.1460371 14.2797174,22.6779351 14.2495284,23.2125022 C14.0285408,26.9684624 14.2550507,30.2241863 14.3846428,32.1172609 C14.4219189,32.6618604 14.4514637,33.0938032 14.4598393,33.3920122" id="Fill-23" fill="#E7A164"></path>
                <path d="M14.4598393,33.3920122 C14.4725408,33.6642659 13.9119264,33.9633032 13.6683891,34.0723704 C12.5879338,34.55696 11.5509214,34.9545719 10.4872174,35.2365818 C7.53614527,25.7021789 11.0698294,16.4603704 11.0698294,16.4603704 L14.3079736,21.6204898 C14.2987697,22.1460371 14.2797174,22.6779351 14.2495284,23.2125022 C14.0285408,26.9684624 14.2550507,30.2241863 14.3846428,32.1172609 C14.4219189,32.6618604 14.4514637,33.0938032 14.4598393,33.3920122" id="Fill-33" fill="#CF7528"></path>
                <path d="M9.92040871,17.9461321 C10.9785903,17.3190649 13.1029609,16.181453 14.8579759,16.0016072 C15.2425182,15.9622142 15.4778639,15.5590799 15.3228689,15.2050027 C14.768145,13.9377067 13.2013515,11.2854878 11.2934585,10.0530749 C11.114349,9.93728881 10.9794187,10.0379803 10.7934062,10.1423535 C10.0890256,10.5373883 8.57303806,11.7060177 8.48007786,13.0836694 C8.39715,14.3089032 8.81721965,16.4343784 9.07115746,17.5779729 C9.15537388,17.9577291 9.58565995,18.1444779 9.92040871,17.9461321" id="Fill-35" fill="#CF7528"></path>
                <path d="M9.9793694,7.20956965 C9.9793694,7.20956965 9.97237438,7.22300746 9.95829229,7.24822637 C9.79298881,7.54450249 8.66384453,9.45377612 6.79819776,10.0009527 C6.66096642,8.94221891 6.65608831,8.33935821 6.65608831,8.33935821 L9.27526493,6.22814925 C9.62059826,6.6334005 9.85622015,7.00487313 9.94273756,7.14762687 C9.96666791,7.18775622 9.9793694,7.20956965 9.9793694,7.20956965" id="Fill-37" fill="#E8945B"></path>
                <path d="M5.90031269,8.2806092 C5.90031269,8.2806092 9.98006891,8.95829826 10.3630465,6.41118881 C10.7459321,3.86407935 11.5305714,2.23607935 8.94195199,1.69562164 C6.35333259,1.15516393 5.69985,2.05089527 5.36528532,2.86995746 C5.03062861,3.68911169 4.84894204,8.03863657 5.90031269,8.2806092" id="Fill-39" fill="#FFB27D"></path>
                <g id="Group-43" transform="translate(3.865672, 0.018776)">
                    <mask id="mask-8" fill="white">
                        <use xlink:href="#path-7"></use>
                    </mask>
                    <g id="Clip-42"></g>
                    <path d="M7.96006219,1.25898483 C7.99733831,1.10122861 8.0854204,0.910522139 8.29425871,0.811671393 C8.29425871,0.811671393 8.00166418,0.843333085 7.844,1.032751 C7.8178607,0.789305721 7.76107214,0.44774602 7.63249254,0.214701244 C7.63249254,0.214701244 7.63902736,0.5399699 7.60561692,0.81314403 C5.83734826,-0.972612189 1.71322886,0.985258458 0.866554726,1.37550721 C-0.621820896,2.06157189 0.21270398,3.3343903 1.16494776,3.64622114 C2.11700746,3.95814403 4.48629602,2.95601468 4.51906219,3.61271866 C4.5519204,4.2693306 4.99518408,4.99165896 5.24148259,5.00804204 C5.48759701,5.02451716 5.6681791,4.49915398 5.98000995,4.84384303 C6.29193284,5.18862413 5.75018657,5.73598483 5.75018657,5.73598483 C5.42648259,6.32770871 6.09257463,7.22942264 6.09257463,7.22942264 C6.09257463,7.22942264 6.30840796,7.35542512 6.68586318,6.92863657 C7.05153731,6.51537786 9.7115796,3.86444751 7.96006219,1.25898483" id="Fill-41" fill="#2C3A64" mask="url(#mask-8)"></path>
                </g>
                <path d="M4.46282587,28.4537731 C5.21994527,28.2644473 6.66432587,28.508905 6.9546194,28.5613677 C6.9546194,28.5613677 12.1734602,24.9006687 13.0880597,23.9859771 C13.75001,23.3242109 11.0940174,20.3392682 9.71047512,18.0206015 C9.78208209,18.010109 9.85295274,17.9859025 9.92060199,17.9465095 C10.9784154,17.3193502 13.1032463,16.1814622 14.857709,16.0015244 C14.9247139,15.9949896 14.9871169,15.9765816 15.0435373,15.9502582 C16.2418955,18.5381413 17.4768856,21.9334896 17.7344129,25.3288378 C17.7344129,25.3288378 13.3268109,29.6314224 7.75591791,30.3875294 C7.75591791,30.3875294 4.42757463,31.2325468 3.90009453,31.1974796 C3.37243035,31.1622284 3.16129104,30.4586761 3.09106468,30.0718328 C3.02065423,29.6848975 3.61863682,28.6648204 4.46282587,28.4537731" id="Fill-46" fill="#FFB27D"></path>
            </g>
            <path d="M211.83639,121.426353 L213.818983,121.426353 L213.818983,121.426353 L213.818983,29.0323529 L211.83639,29.0323529 C211.560247,29.0323529 211.33639,29.2562106 211.33639,29.5323529 L211.33639,120.926353 C211.33639,121.202495 211.560247,121.426353 211.83639,121.426353 Z" id="Fill-104" fill="#82B378"></path>
            <path d="M213.816084,29.0337294 C213.81573,29.2684353 213.799116,121.389259 213.799116,121.389259 L236.281216,121.389259 C236.557358,121.389259 236.781216,121.165401 236.781216,120.889259 L236.781216,34.5293218 C236.781216,34.2949025 236.618354,34.0919549 236.389498,34.0411877 L213.816084,29.0337294 L213.816084,29.0337294 Z" id="Fill-105" fill="#A5DD98"></path>
            <path d="M233.149907,65.3151294 C232.000342,65.5346588 231.064642,66.3714824 230.704077,67.4659529 L219.474967,66.0863059 C219.221865,65.0899529 218.499322,64.2707765 217.541705,63.8934824 L217.649167,39.9654824 C218.862715,39.8126588 219.869821,38.9761882 220.26927,37.8552471 L231.507571,40.2400706 C231.730626,41.1852471 232.378228,41.9874824 233.256309,42.4060706 L233.149907,65.3151294 Z M232.314599,39.5010118 L219.561927,36.7953647 C219.555917,38.0956 218.491192,39.1004235 217.248658,39.1004235 C217.088525,39.1004235 216.925917,39.0834824 216.761896,39.0488941 L216.64701,64.5781882 C217.812835,64.7211294 218.687028,65.7125412 218.681725,66.8857176 L231.436165,68.4527765 C231.442174,67.1641882 232.494528,66.1487765 233.750141,66.1487765 C233.844877,66.1487765 233.940674,66.1544235 234.037532,66.1664235 L234.15065,41.7757176 C233.076026,41.5477176 232.309297,40.5979529 232.314599,39.5010118 L232.314599,39.5010118 Z" id="Fill-106" fill="#82B378"></path>
            <path d="M233.169208,114.525435 C232.115087,114.828612 231.280486,115.658729 230.973299,116.710141 L229.170123,116.706965 C228.86541,115.655906 228.034698,114.824376 226.981991,114.518024 L226.981991,86.7510824 C228.106811,86.5036706 229.012111,85.6650824 229.353233,84.5783765 L231.209433,84.7382588 C231.481271,85.7441412 232.238103,86.5693176 233.218343,86.9279059 L233.169208,114.525435 Z M231.99207,83.9120235 L228.607713,83.6208471 C228.607713,84.9090824 227.558187,85.9354353 226.29303,85.9354353 C226.225866,85.9354353 226.158349,85.9322588 226.090478,85.9266118 L226.090478,115.281435 C227.369421,115.283553 228.404453,116.319082 228.404453,117.595671 L231.737201,117.601671 C231.739675,116.325082 232.777182,115.291318 234.055419,115.291318 L234.05966,115.291318 L234.110917,86.2220235 C232.910803,86.1189647 231.989949,85.1148471 231.99207,83.9120235 L231.99207,83.9120235 Z" id="Fill-107" fill="#82B378"></path>
            <path d="M223.712908,114.505106 C222.657373,114.808635 221.823126,115.640165 221.517,116.693341 L220.320067,116.691224 C220.009699,115.647929 219.178986,114.823106 218.132289,114.519224 L217.913829,85.9867529 C218.5077,85.8561647 219.053142,85.5572235 219.493596,85.1146353 C219.866533,84.7394588 220.134836,84.2891059 220.285071,83.7981647 L221.699756,83.9195765 C221.966998,84.9388706 222.718881,85.7576941 223.712908,86.1106353 L223.712908,114.505106 Z M222.485575,83.0936941 L219.533188,82.8399294 C219.542732,84.1352235 218.490379,85.1721647 217.218505,85.1721647 C217.151341,85.1721647 217.083824,85.1693412 217.015953,85.1633412 L217.246431,115.283341 C218.518305,115.285812 219.550862,116.3104 219.560407,117.580282 L222.282315,117.585224 C222.282315,116.306518 223.320529,115.270635 224.600533,115.270635 L224.604422,115.270635 L224.604422,85.3998118 C223.406075,85.2967529 222.485575,84.2951059 222.485575,83.0936941 L222.485575,83.0936941 Z" id="Fill-108" fill="#82B378"></path>
            <path d="M220.000154,75.2598824 C220.000154,76.2611765 219.58091,77.0729412 219.0641,77.0729412 C218.546938,77.0729412 218.127693,76.2611765 218.127693,75.2598824 C218.127693,74.2585882 218.546938,73.4464706 219.0641,73.4464706 C219.58091,73.4464706 220.000154,74.2585882 220.000154,75.2598824" id="Fill-109" fill="#FFE823"></path>
            <path d="M220.876998,74.6215529 L220.876998,76.0513176 L218.914749,76.0513176 C218.856776,75.8152 218.824608,75.5508471 218.824608,75.2727294 C218.824608,75.0436706 218.846878,74.8237882 218.88753,74.6215529 L220.876998,74.6215529 Z" id="Fill-110" fill="#F47458"></path>
            <path d="M222.22816,75.2598824 C222.22816,76.7690588 221.596465,77.9923529 220.81701,77.9923529 C220.037907,77.9923529 219.406213,76.7690588 219.406213,75.2598824 C219.406213,73.7507059 220.037907,72.5270588 220.81701,72.5270588 C221.596465,72.5270588 222.22816,73.7507059 222.22816,75.2598824" id="Fill-111" fill="#FAE0B2"></path>
            <path d="M222.606859,75.2598824 C222.606859,76.7690588 221.97481,77.9923529 221.195708,77.9923529 C220.416253,77.9923529 219.784558,76.7690588 219.784558,75.2598824 C219.784558,73.7507059 220.416253,72.5270588 221.195708,72.5270588 C221.97481,72.5270588 222.606859,73.7507059 222.606859,75.2598824" id="Fill-112" fill="#F6E552"></path>
        </g>
    </g>
</svg>