<?xml version="1.0" encoding="UTF-8"?>
<svg width="267px" height="138px" viewBox="0 0 267 138" version="1.1" xmlns="http://www.w3.org/2000/svg" xmlns:xlink="http://www.w3.org/1999/xlink">
    <title>Group Copy</title>
    <g id="Onboarding" stroke="none" stroke-width="1" fill="none" fill-rule="evenodd">
        <g id="Group-Copy">
            <path d="M147.142406,37.8016988 L147.142406,40.5943621 L21.8866838,40.5943621 C22.0768525,39.6528727 22.2949743,38.7206276 22.5396185,37.8016988 L147.142406,37.8016988" id="Fill-4" fill="#D5E5FB"></path>
            <path d="M147.142406,10.673599 L147.142406,13.4661522 L37.3284299,13.4661522 C38.316471,12.510026 39.3403888,11.5792116 40.3989729,10.673599 L147.142406,10.673599" id="Fill-5" fill="#D5E5FB"></path>
            <path d="M147.142406,63.334164 L147.142406,66.1266071 L23.3175715,66.1266071 C23.0395818,65.187869 22.7869039,64.2570546 22.5595378,63.334164 L147.142406,63.334164" id="Fill-6" fill="#D5E5FB"></path>
            <polygon id="Fill-7" fill="#D5E5FB" points="143.844167 77.4563943 147.035657 77.4563943 147.035657 6.1788815 143.844167 6.1788815"></polygon>
            <path d="M154.430007,81.9629974 L154.430007,137.29792 L12.6844094,137.29792 C8.87982392,131.391464 7.04460748,126.463364 6.55796038,122.179065 C6.55796038,122.175763 6.55663977,122.172462 6.55663977,122.16916 C6.46749817,121.366886 6.42237711,120.589923 6.42237711,119.83277 C6.42237711,119.644582 6.42501834,119.459696 6.43030081,119.278111 L6.43030081,119.277011 C6.43030081,119.204377 6.43294204,119.137245 6.43558327,119.066813 C6.51140866,117.036365 6.89702861,115.147884 7.51012472,113.36065 C8.15370506,111.473269 9.0527146,109.69814 10.1031548,107.980239 C10.1963683,107.828368 10.2880411,107.679799 10.3824652,107.530129 C10.397102,107.508118 10.4104182,107.485008 10.4237344,107.464098 C11.3772194,105.959696 12.4410858,104.496013 13.5540352,103.036732 C14.1485326,102.256468 14.7588775,101.476204 15.3693324,100.689336 C17.8347029,97.5319629 20.350807,94.3019556 22.2537051,90.6394464 C22.3082905,90.5337971 22.362766,90.4281478 22.4173514,90.321398 C23.1180484,88.939153 23.7298239,87.4952791 24.2177916,85.9699673 C24.6247616,84.6944721 24.9465517,83.3639512 25.1607117,81.9629974 L154.430007,81.9629974" id="Fill-8" fill="#FFFFFF"></path>
            <path d="M104.910198,75.4204442 C104.525018,75.0352645 102.895158,74.6919042 102.295378,74.6919042 L102.283272,74.6919042 C101.7,74.6897032 101.194864,74.2858147 101.0573,73.7179497 C99.008584,65.2654552 96.323551,65.198544 95.2504402,57.0946922 C94.1181218,48.544252 90.9308144,45.0223885 90.9308144,45.0223885 L88.9397652,54.0404369 C88.9397652,54.0404369 91.4663243,63.415712 92.5111519,65.0894831 C93.4074101,66.524993 98.0531181,72.929982 99.3574468,74.7238191 C99.5401321,74.9747362 99.6846295,75.2542667 99.7546222,75.5569079 C99.9731842,76.5022491 100.623147,76.4076049 100.623147,76.4076049 L105.811519,76.4076049 C105.811519,76.4076049 105.296478,75.8067245 104.910198,75.4204442" id="Fill-9" fill="#FFB27D"></path>
            <path d="M79.8366471,33.4018455 C79.8366471,33.4018455 78.5755686,37.5723518 74.7201394,37.8399967 C74.7201394,37.8399967 70.9853265,38.6409505 71.1058327,41.2958294 C71.226339,43.9508184 71.0456346,45.1679864 69.7805943,46.1256533 C68.5155539,47.0832102 71.0502568,51.242161 75.2623624,49.5566144 C79.474358,47.8709578 82.5381878,43.0962696 82.604989,43.0115301 C82.6717902,42.9266805 79.8366471,33.4018455 79.8366471,33.4018455" id="Fill-10" fill="#212121"></path>
            <path d="M88.9644167,43.9373921 C88.9644167,43.9373921 91.8418195,44.8795418 92.6993397,46.5087421 C93.5568599,48.1380524 96.7295304,57.7591823 96.7295304,57.7591823 C96.7295304,57.7591823 96.0509538,60.9133643 92.3315481,60.4709578 C88.6119222,60.0286614 88.9644167,43.9373921 88.9644167,43.9373921" id="Fill-11" fill="#F9DDBF"></path>
            <path d="M89.5755319,29.5416841 C89.5755319,29.5416841 89.2298606,26.4677296 81.5648936,27.0160055 C80.2621056,27.109219 78.537931,28.6318896 77.9429934,29.7945822 C77.080741,31.4795785 77.5529714,31.9804222 80.3387014,36.7365117 L89.5755319,29.5416841" id="Fill-12" fill="#212121"></path>
            <path d="M76.6289802,63.3693804 C76.6495598,62.4946922 76.656493,61.6097692 76.639325,60.7248463 C76.587821,57.8230121 76.2002201,55.5420877 75.7509905,53.6487641 C75.394204,52.1396298 74.9963683,50.8807524 74.697909,49.7488742 C74.2005869,47.8727186 73.9742113,46.3497179 74.6499266,44.648434 C74.6499266,44.648434 74.9242847,44.5249563 75.4251284,44.3500847 C75.8744681,44.1922711 76.5055026,43.9898866 77.2875275,43.7944354 C77.5825752,43.7189402 77.901504,43.643445 78.2411225,43.574883 C78.5130594,43.5179864 79.0725605,43.4222417 79.4905356,43.3536797 C79.8327953,43.2974435 80.1072634,43.047737 80.2014674,42.7139512 C80.2965517,42.3774141 80.391526,41.9224618 80.4568966,41.324883 C80.556383,40.388456 80.5803742,39.0987641 80.4053925,37.3597326 C80.3848129,37.1608698 80.3642333,36.9515521 80.3368305,36.7389329 L80.8719002,36.9001581 L83.0327586,37.5587054 L86.5759721,38.635778 C86.5759721,38.635778 86.4764857,39.2050737 86.4559061,40.0660055 L86.4559061,40.1928947 C86.4524945,40.4536064 86.4593177,40.7451324 86.4764857,41.0504149 C86.50708,41.6242227 86.5785033,42.259219 86.7291636,42.9055506 C86.7909024,43.1705543 86.9975789,43.3780011 87.2646735,43.4299453 L87.2688555,43.4308257 C87.3614087,43.4479937 87.4540719,43.4651618 87.5466251,43.4856313 C87.5637931,43.4856313 87.5774395,43.4925645 87.5911959,43.4959761 C87.6289435,43.5029094 87.6666911,43.5131442 87.7078503,43.523489 C88.0747616,43.6297986 88.3973221,43.8252498 88.7883346,43.9281478 C88.8499633,43.9453158 88.9117021,43.9830634 88.9666178,44.0448023 C89.2101614,44.2883459 89.4263023,44.8783312 89.6766691,45.704927 C89.927036,46.538456 90.2083272,47.6188301 90.5787601,48.8296152 C90.5787601,48.8433716 90.5821717,48.8536064 90.5889949,48.8673628 C90.9286134,49.9958294 91.3470286,51.2374288 91.8786867,52.5031295 C91.8786867,52.5031295 92.245708,54.1358514 92.4069332,56.2657854 C92.4069332,56.2898866 92.4103448,56.3172894 92.4138665,56.3412806 C92.434336,56.6567979 92.451504,56.9861816 92.4652605,57.3188668 C92.4994864,58.3410238 92.4754952,59.4283312 92.3315481,60.4709578 C92.3315481,60.4813026 92.3315481,60.4915374 92.3246148,60.4984706 C92.245708,61.1226819 92.1188188,61.7263136 91.9404255,62.2957194 C91.7038151,63.0503415 91.5939839,64.0999013 91.5665811,65.3072747 C91.497909,68.83277 92.1702128,73.6904369 92.6024945,76.3932982 L75.2398019,76.3932982 C75.6309244,74.2351911 76.2036317,70.5759835 76.484923,66.439153 C76.553485,65.4409871 76.6015774,64.4154185 76.6289802,63.3762036 C76.6323918,63.3762036 76.6323918,63.372792 76.6289802,63.3693804" id="Fill-13" fill="#FFB27D"></path>
            <path d="M73.5172781,48.6211779 C73.6775128,52.5390062 75.3166178,58.2123738 75.6862803,65.2016254 C75.7191856,65.8250664 76.0963316,66.2652718 76.7195525,66.56131 C80.4983859,68.3584486 93.3275128,64.8611265 93.3275128,64.8611265 C93.3275128,64.8611265 93.1426266,62.3928947 93.2679751,60.795059 C93.3037417,60.3438485 91.9170946,48.1333202 89.4992663,45.4875756 C89.4992663,45.4875756 88.9647469,43.937172 87.5902054,43.4969666 C87.4848863,43.4631808 87.3695525,43.4392997 87.2652238,43.4247729 C87.2652238,43.4247729 88.6462583,45.5533863 85.6343727,45.5717648 C82.6216067,45.5909138 80.1012106,43.8502315 79.6517608,43.3075682 C79.6517608,43.3075682 74.9897652,43.3340906 74.1241012,44.9384193 C73.60708,45.8966364 73.455099,47.132183 73.5172781,48.6211779" id="Fill-14" fill="#F9DDBF"></path>
            <path d="M78.0993764,43.3826232 C78.0993764,43.3826232 80.1393984,46.0643547 80.9731475,48.8685734 L79.4902054,48.8685734 C79.4902054,48.8685734 78.1164343,44.6577883 77.0755686,43.5313026 L78.0993764,43.3826232" id="Fill-15" fill="#2A4282"></path>
            <path d="M87.5905356,43.4970767 C88.6262289,44.738566 90.0417095,49.0874655 90.0417095,49.0874655 L91.4707263,48.8682432 C90.863573,46.7411706 89.6238445,44.8855946 88.9644167,43.9373921 C88.5389582,43.7925645 88.0260088,43.5845675 87.5905356,43.4970767" id="Fill-16" fill="#2A4282"></path>
            <path d="M93.5568599,63.8095858 L93.2447542,60.184164 L93.2447542,60.1806423 L93.2413426,60.1464163 L93.2413426,60.1430048 L93.0423698,57.8208111 L93.0423698,57.8173995 L92.912069,56.3082652 L92.9051357,56.215602 L92.8537417,55.6256166 L92.3426632,49.6505983 C92.2979824,49.1430414 91.9035583,48.7622637 91.4302274,48.7279277 L91.4268158,48.7279277 C91.3548423,48.7245161 91.2827586,48.7245161 91.2073734,48.7382725 C91.159281,48.7450957 91.107777,48.7554406 91.056383,48.7622637 C90.9089142,48.7862549 90.7511005,48.8068345 90.5796405,48.8308257 C90.4939105,48.8445822 90.4012472,48.8548169 90.3086941,48.8685734 C89.9896552,48.9097326 89.6329787,48.9508918 89.2453778,48.9886394 L89.2419663,48.9886394 C87.2216434,49.180679 84.3302641,49.2870987 81.0270726,48.8789182 C80.9928467,48.8753965 80.955099,48.872095 80.920763,48.872095 L80.4509538,48.8685734 L80.440609,48.8685734 L79.5145268,48.8617502 L79.4904255,48.8617502 C78.8044754,48.8685734 78.2488261,49.4379791 78.2488261,50.1479204 C78.2454145,51.6091823 78.2008437,54.1095491 77.9573001,56.6923444 L77.9573001,56.695756 C77.9573001,56.6992777 77.9573001,56.6992777 77.9573001,56.6992777 C77.7309244,59.1276709 77.3329787,61.6247362 76.6298606,63.370591 C76.6333822,63.3740026 76.6333822,63.3774141 76.6298606,63.3774141 C76.3966618,63.9639879 76.1257153,64.4647216 75.8204329,64.8523224 C75.7621056,64.9208844 75.7175348,64.9963797 75.6797872,65.0786981 C75.638628,65.1644281 75.6146368,65.2569813 75.6008804,65.3530561 L74.0883346,76.3943987 L93.7318415,76.3943987 C93.7558327,72.3775242 93.7695891,65.3462329 93.5568599,63.8095858" id="Fill-17" fill="#2A4282"></path>
            <path d="M86.4560161,40.1208111 C86.4523844,40.4026526 86.4560161,40.7171794 86.4776963,41.0496445 C80.5341526,39.6133643 80.6404622,37.4280745 80.6404622,37.4280745 L86.5753118,38.6352278 C86.5753118,38.6352278 86.4776963,39.2063943 86.4560161,40.0665557 L86.4560161,40.1208111" id="Fill-18" fill="#E8945B"></path>
            <path d="M87.788628,40.221288 C87.788628,40.221288 80.1812179,40.5688301 80.0377109,35.8280378 C79.8940939,31.0871353 78.8155906,27.9391163 83.6666544,27.5167392 C88.5177183,27.0943621 89.5166544,28.8747729 89.9494864,30.4455359 C90.3822084,32.016299 89.7638298,40.0086687 87.788628,40.221288" id="Fill-19" fill="#FFB27D"></path>
            <path d="M88.3589142,29.0423811 C88.3589142,29.0423811 90.3495231,31.4251031 89.987234,34.0508184 C89.987234,34.0508184 91.9792737,33.010723 91.2430301,30.640657 C90.7923698,29.1901801 89.2514307,27.7840539 87.167058,27.7840539 C85.0827953,27.7840539 88.3589142,29.0423811 88.3589142,29.0423811" id="Fill-20" fill="#212121"></path>
            <path d="M88.808584,37.4901434 C88.808584,37.4901434 88.6278797,38.3711045 87.460785,38.3673628 C86.8504402,38.3653819 86.0083272,38.0012219 85.9774028,37.4825499 C85.9774028,37.4825499 87.4681585,37.0951691 88.808584,37.4901434" id="Fill-21" fill="#FFFFFF"></path>
            <path d="M88.3508804,28.733467 C88.3508804,28.733467 86.9350697,32.5724985 83.4158474,32.8969299 C79.896515,33.2212513 79.9911592,36.0895198 79.9911592,36.0895198 L79.080044,29.3202608 C79.080044,29.3202608 81.0679017,27.3096225 81.248606,27.2645015 C81.4293103,27.2193804 84.9586574,27.2193804 84.9586574,27.2193804 L88.3508804,28.733467" id="Fill-22" fill="#212121"></path>
            <path d="M86.3117388,23.4685 C86.3117388,23.4685 88.1948276,24.3660789 89.5891783,28.4998279 L87.497102,28.4955359 L86.3117388,23.4685" id="Fill-23" fill="#2A4282"></path>
            <path d="M87.497102,28.4955359 C87.497102,28.4955359 81.5932869,28.5873188 79.555796,27.9174362 C79.555796,27.9174362 79.570653,25.5409871 81.9907924,23.1614567 L86.3117388,23.4685 C86.3117388,23.4685 87.7897285,27.0072014 87.497102,28.4955359" id="Fill-24" fill="#466EB6"></path>
            <path d="M76.3323918,54.0261302 L74.3788701,44.6232322 C74.3788701,44.6232322 71.1540352,48.5299453 70.0218269,57.0804956 C68.9454145,65.2091089 67.8590976,63.6799453 64.3552825,73.7454626 C64.2086941,74.1669593 63.8601614,74.4894097 63.4267792,74.5939585 C63.2300073,74.6412806 63.0156273,74.6775976 62.815664,74.6775976 C62.2153338,74.6775976 60.5861335,75.0209578 60.2002935,75.4061375 C59.8143434,75.7924178 59.2999633,76.3932982 59.2999633,76.3932982 L64.4877843,76.3932982 C64.4877843,76.3932982 65.3451944,76.5891896 65.5738811,75.1772307 C65.5738811,75.1772307 71.7161775,66.7494978 72.7610051,65.0752865 C73.8058327,63.4014053 76.3323918,54.0261302 76.3323918,54.0261302" id="Fill-25" fill="#FFB27D"></path>
            <path d="M75.6246515,43.9052567 C75.6246515,43.9052567 74.0488261,43.8933716 71.6050257,47.7521023 C69.1611152,51.6108331 68.174945,55.5982139 68.174945,55.5982139 C68.174945,55.5982139 69.3115554,58.7280745 75.6246515,59.4569446 L77.2644167,55.6410238 L75.6246515,43.9052567" id="Fill-26" fill="#F9DDBF"></path>
            <path d="M40.6840059,91.8180965 L37.4596112,91.8180965 C34.9868672,91.8180965 32.9823918,89.8140612 32.9823918,87.3412072 L32.9823918,78.2025425 L45.1612252,78.2025425 L45.1612252,87.3412072 C45.1612252,89.8140612 43.1567498,91.8180965 40.6840059,91.8180965" id="Fill-27" fill="#FCECDB"></path>
            <path d="M32.9826119,78.2025425 L32.9826119,87.3412072 C32.9826119,89.8140612 30.9772561,91.8180965 28.5051724,91.8180965 L25.2803375,91.8180965 C24.1128026,91.8180965 23.0515774,91.3723885 22.2537051,90.6394464 C22.3082905,90.5337971 22.362766,90.4281478 22.4173514,90.321398 C23.1180484,88.939153 23.7298239,87.4952791 24.2177916,85.9699673 C24.6247616,84.6944721 24.9465517,83.3639512 25.1607117,81.9629974 C25.2138665,81.6163356 25.2617388,81.2641713 25.3015774,80.9065044 C25.3469186,80.4883092 25.3841159,80.063511 25.4119589,79.6332102 L25.4119589,79.6321097 C25.4346295,79.2788448 25.4492663,78.9211779 25.4573001,78.5591089 C25.4598313,78.4446555 25.4612619,78.3313026 25.4625825,78.2157487 L25.4625825,78.2025425 L32.9826119,78.2025425" id="Fill-28" fill="#EE9849"></path>
            <path d="M52.8628393,91.8180965 L49.6383346,91.8180965 C47.1657007,91.8180965 45.1612252,89.8140612 45.1612252,87.3412072 L45.1612252,78.2025425 L57.3400587,78.2025425 L57.3400587,87.3412072 C57.3400587,89.8140612 55.3354732,91.8180965 52.8628393,91.8180965" id="Fill-29" fill="#EE9849"></path>
            <path d="M64.7198826,91.8180965 L61.4954879,91.8180965 C59.0227439,91.8180965 57.0182685,89.8140612 57.0182685,87.3412072 L57.0182685,78.2025425 L69.197102,78.2025425 L69.197102,87.3412072 C69.197102,89.8140612 67.1925165,91.8180965 64.7198826,91.8180965" id="Fill-30" fill="#FCECDB"></path>
            <path d="M76.8987161,91.8180965 L73.6742113,91.8180965 C71.2015774,91.8180965 69.197102,89.8140612 69.197102,87.3412072 L69.197102,78.2025425 L81.3759354,78.2025425 L81.3759354,87.3412072 C81.3759354,89.8140612 79.37135,91.8180965 76.8987161,91.8180965" id="Fill-31" fill="#EE9849"></path>
            <path d="M89.0775495,91.8180965 L85.8530448,91.8180965 C83.3804109,91.8180965 81.3759354,89.8140612 81.3759354,87.3412072 L81.3759354,78.2025425 L93.5547689,78.2025425 L93.5547689,87.3412072 C93.5547689,89.8140612 91.5502935,91.8180965 89.0775495,91.8180965" id="Fill-32" fill="#FCECDB"></path>
            <path d="M101.256493,91.8180965 L98.0318782,91.8180965 C95.5592443,91.8180965 93.5547689,89.8140612 93.5547689,87.3412072 L93.5547689,78.2025425 L105.733382,78.2025425 L105.733382,87.3412072 C105.733382,89.8140612 103.729347,91.8180965 101.256493,91.8180965" id="Fill-33" fill="#EE9849"></path>
            <path d="M113.434776,91.8180965 L110.210271,91.8180965 C107.738518,91.8180965 105.733382,89.8140612 105.733382,87.3412072 L105.733382,78.2025425 L117.912766,78.2025425 L117.912766,87.3412072 C117.912766,89.8140612 115.90763,91.8180965 113.434776,91.8180965" id="Fill-34" fill="#FCECDB"></path>
            <path d="M125.61416,91.8180965 L122.389655,91.8180965 C119.916801,91.8180965 117.912766,89.8140612 117.912766,87.3412072 L117.912766,78.2025425 L130.091049,78.2025425 L130.091049,87.3412072 C130.091049,89.8140612 128.087014,91.8180965 125.61416,91.8180965" id="Fill-35" fill="#EE9849"></path>
            <path d="M137.792443,91.8180965 L134.567938,91.8180965 C132.096185,91.8180965 130.091049,89.8140612 130.091049,87.3412072 L130.091049,78.2025425 L142.270433,78.2025425 L142.270433,87.3412072 C142.270433,89.8140612 140.265297,91.8180965 137.792443,91.8180965" id="Fill-36" fill="#FCECDB"></path>
            <path d="M149.971827,91.8180965 L146.747322,91.8180965 C144.274468,91.8180965 142.270433,89.8140612 142.270433,87.3412072 L142.270433,78.2025425 L154.448716,78.2025425 L154.448716,87.3412072 C154.448716,89.8140612 152.444681,91.8180965 149.971827,91.8180965" id="Fill-37" fill="#EE9849"></path>
            <path d="M83.4439105,130.446123 L83.3086574,130.365785 C83.3307777,130.328368 85.5618489,126.603129 89.4028613,122.373856 C92.9491563,118.469234 98.6331988,113.323232 105.572707,110.98354 L105.62223,111.13321 C98.7167278,113.460796 93.0551357,118.586989 89.5217168,122.477304 C85.690609,126.694472 83.4660308,130.409806 83.4439105,130.446123" id="Fill-38" fill="#82B378"></path>
            <path d="M94.2595378,110.451992 C94.2595378,110.451992 93.229237,113.103129 93.2941673,114.213548 C93.3589875,115.322865 94.9732208,117.311493 94.9732208,117.311493 C94.9732208,117.311493 96.1979824,114.933284 96.1764123,114.053973 C96.1546222,113.175763 94.2595378,110.451992 94.2595378,110.451992" id="Fill-39" fill="#82B378"></path>
            <path d="M101.077109,120.082587 C101.077109,120.082587 99.3487528,117.822132 98.3675348,117.300488 C97.3862069,116.778845 94.8479824,117.121105 94.8479824,117.121105 C94.8479824,117.121105 96.2409024,119.40467 97.002788,119.843775 C97.7646735,120.28288 101.077109,120.082587 101.077109,120.082587" id="Fill-40" fill="#82B378"></path>
            <path d="M99.2238445,108.58222 C99.2238445,108.58222 97.3416361,110.715015 97.0194057,111.779212 C96.6972854,112.842308 97.525752,115.266739 97.525752,115.266739 C97.525752,115.266739 99.4961115,113.457495 99.7792737,112.625507 C100.062436,111.792418 99.2238445,108.58222 99.2238445,108.58222" id="Fill-41" fill="#82B378"></path>
            <path d="M104.028687,117.398434 C104.028687,117.398434 102.075275,115.329468 101.045194,114.912374 C100.015004,114.495279 97.5263023,115.100562 97.5263023,115.100562 C97.5263023,115.100562 99.1491196,117.226754 99.9526045,117.584421 C100.755979,117.942088 104.028687,117.398434 104.028687,117.398434" id="Fill-42" fill="#82B378"></path>
            <path d="M104.011079,107.625873 C104.011079,107.625873 101.637271,109.066446 101.027586,109.964465 C100.418122,110.861383 100.485253,113.36065 100.485253,113.36065 C100.485253,113.36065 102.847836,112.24803 103.352971,111.554707 C103.859208,110.861383 104.011079,107.625873 104.011079,107.625873" id="Fill-43" fill="#82B378"></path>
            <path d="M107.07931,114.179432 C107.07931,114.179432 104.783639,112.616702 103.71394,112.435118 C102.644241,112.252432 100.397982,113.350745 100.397982,113.350745 C100.397982,113.350745 102.390022,115.038933 103.230814,115.210613 C104.071607,115.383394 107.07931,114.179432 107.07931,114.179432" id="Fill-44" fill="#82B378"></path>
            <path d="M110.066104,108.314795 C110.066104,108.314795 107.289508,108.377524 106.313353,108.851846 C105.337197,109.325066 104.148643,111.524993 104.148643,111.524993 C104.148643,111.524993 106.751357,111.739593 107.534923,111.39073 C108.319589,111.041868 110.066104,108.314795 110.066104,108.314795" id="Fill-45" fill="#82B378"></path>
            <path d="M91.3370139,113.074516 C91.3370139,113.074516 90.3239912,115.732256 90.3889215,116.840474 C90.4538518,117.948691 92.0460748,119.919711 92.0460748,119.919711 C92.0460748,119.919711 93.2510271,117.533797 93.2289068,116.655587 C93.2068966,115.777377 91.3370139,113.074516 91.3370139,113.074516" id="Fill-46" fill="#82B378"></path>
            <path d="M98.5534116,121.533063 C98.5534116,121.533063 96.4069699,119.666592 95.3447542,119.345242 C94.2823184,119.024993 91.8829787,119.840474 91.8829787,119.840474 C91.8829787,119.840474 93.7080704,121.793885 94.5399486,122.075617 C95.3716067,122.357348 98.5534116,121.533063 98.5534116,121.533063" id="Fill-47" fill="#82B378"></path>
            <path d="M87.9014307,115.618904 C87.9014307,115.618904 86.730044,118.646416 86.7977256,119.910906 C86.8655172,121.175397 88.6715701,123.435851 88.6715701,123.435851 C88.6715701,123.435851 90.0605282,120.718683 90.0403888,119.716116 C90.0201394,118.714648 87.9014307,115.618904 87.9014307,115.618904" id="Fill-48" fill="#82B378"></path>
            <path d="M96.3672414,123.960796 C96.3672414,123.960796 93.6044021,122.256101 92.348606,122.091024 C91.09281,121.927047 88.5412693,123.289483 88.5412693,123.289483 C88.5412693,123.289483 90.9583272,125.151552 91.9471387,125.314428 C92.9360602,125.478405 96.3672414,123.960796 96.3672414,123.960796" id="Fill-49" fill="#FCECDB"></path>
            <path d="M84.1630961,118.308559 C84.1630961,118.308559 83.0895451,121.828001 83.2705796,123.252066 C83.4517241,124.67613 85.6798239,127.079652 85.6798239,127.079652 C85.6798239,127.079652 87.0249817,123.894766 86.9193324,122.763438 C86.8136831,121.63321 84.1630961,118.308559 84.1630961,118.308559" id="Fill-50" fill="#82B378"></path>
            <path d="M94.5221203,126.572315 C94.5221203,126.572315 91.1580704,125.08222 89.7227806,125.089894 C88.2874908,125.098727 85.6322817,127.021325 85.6322817,127.021325 C85.6322817,127.021325 88.6322817,128.740327 89.7676816,128.771141 C90.9030814,128.803056 94.5221203,126.572315 94.5221203,126.572315" id="Fill-51" fill="#FCECDB"></path>
            <path d="M78.4187454,128.874589 L78.5609318,128.941721 C78.5794204,128.903203 80.4287234,124.973269 81.7983125,119.42668 C83.0628026,114.305991 84.1658474,106.71795 82.2395084,99.6537531 L82.0875275,99.6944721 C84.0048423,106.725653 82.9058694,114.283981 81.6464417,119.385961 C80.2808144,124.918243 78.437234,128.836072 78.4187454,128.874589" id="Fill-52" fill="#82B378"></path>
            <path d="M88.9880778,108.748397 C88.9880778,108.748397 87.3610785,111.082587 86.4037417,111.64715 C85.4462949,112.211713 82.8955246,111.980606 82.8955246,111.980606 C82.8955246,111.980606 84.1866471,109.637612 84.9286134,109.165492 C85.6704696,108.693372 88.9880778,108.748397 88.9880778,108.748397" id="Fill-53" fill="#82B378"></path>
            <path d="M77.192113,108.457862 C77.192113,108.457862 80.0315481,108.632843 81.0121056,109.156688 C81.9926632,109.679432 83.1227806,111.978405 83.1227806,111.978405 C83.1227806,111.978405 80.4505136,112.095059 79.6613353,111.707678 C78.872047,111.320297 77.192113,108.457862 77.192113,108.457862" id="Fill-54" fill="#82B378"></path>
            <path d="M87.7724505,103.584788 C87.7724505,103.584788 87.0510638,106.337172 86.3475055,107.197774 C85.6439472,108.057275 83.1701027,108.720884 83.1701027,108.720884 C83.1701027,108.720884 83.5732208,106.077451 84.1065297,105.377524 C84.6398386,104.678698 87.7724505,103.584788 87.7724505,103.584788" id="Fill-55" fill="#82B378"></path>
            <path d="M77.7748349,104.510319 C77.7748349,104.510319 80.5807043,104.979138 81.501394,105.602029 C82.4221937,106.22492 83.3072267,108.628441 83.3072267,108.628441 C83.3072267,108.628441 80.6372707,108.466666 79.8926632,107.998948 C79.1479457,107.531229 77.7748349,104.510319 77.7748349,104.510319" id="Fill-56" fill="#82B378"></path>
            <path d="M85.8968452,99.077084 C85.8968452,99.077084 86.024945,101.851479 85.6195158,102.858449 C85.2141966,103.864318 83.1017608,105.202543 83.1017608,105.202543 C83.1017608,105.202543 82.7085473,102.620738 83.0021643,101.814061 C83.2957814,101.007385 85.8968452,99.077084 85.8968452,99.077084" id="Fill-57" fill="#82B378"></path>
            <path d="M78.745818,100.184201 C78.745818,100.184201 81.3231108,101.218683 82.0706897,102.005551 C82.8182685,102.791317 83.1589875,105.268573 83.1589875,105.268573 C83.1589875,105.268573 80.6471753,104.555441 80.0350697,103.95346 C79.422964,103.351479 78.745818,100.184201 78.745818,100.184201" id="Fill-58" fill="#82B378"></path>
            <path d="M81.9498533,94.4340172 C81.9498533,94.4340172 83.4452311,96.7748096 83.5962216,97.8489108 C83.747212,98.9241126 82.5840792,101.137245 82.5840792,101.137245 C82.5840792,101.137245 80.9552091,99.0957927 80.80708,98.2505983 C80.6590609,97.4054039 81.9498533,94.4340172 81.9498533,94.4340172" id="Fill-59" fill="#82B378"></path>
            <path d="M88.4398019,112.636512 C88.4398019,112.636512 86.7979457,114.959696 85.8421497,115.523159 C84.8863536,116.087722 82.3617755,115.864318 82.3617755,115.864318 C82.3617755,115.864318 83.6710565,113.53343 84.4121423,113.06241 C85.1532282,112.591391 88.4398019,112.636512 88.4398019,112.636512" id="Fill-60" fill="#82B378"></path>
            <path d="M77.3949376,111.362117 C77.3949376,111.362117 80.1410492,112.102763 80.9994497,112.805991 C81.8579604,113.509219 82.5184886,115.955661 82.5184886,115.955661 C82.5184886,115.955661 79.8794571,115.529762 79.1819516,114.996013 C78.4844461,114.462264 77.3949376,111.362117 77.3949376,111.362117" id="Fill-61" fill="#82B378"></path>
            <path d="M98.2395451,104.246196 C98.2395451,104.246196 96.8007337,106.621105 95.903485,107.230789 C95.0061262,107.841574 92.5067498,107.775543 92.5067498,107.775543 C92.5067498,107.775543 93.6178283,105.412741 94.3109318,104.906504 C95.0040352,104.400268 98.2395451,104.246196 98.2395451,104.246196" id="Fill-62" fill="#82B378"></path>
            <path d="M91.6836757,101.182366 C91.6836757,101.182366 93.2479457,103.476937 93.4308511,104.546636 C93.6137564,105.616336 92.5172047,107.863584 92.5172047,107.863584 C92.5172047,107.863584 90.8281365,105.871655 90.6550257,105.030862 C90.4818048,104.19007 91.6836757,101.182366 91.6836757,101.182366" id="Fill-63" fill="#82B378"></path>
            <path d="M97.5473221,98.1911706 C97.5473221,98.1911706 97.4858034,100.967766 97.0126926,101.943922 C96.5395818,102.921178 94.3408657,104.111934 94.3408657,104.111934 C94.3408657,104.111934 94.1246148,101.509219 94.4725972,100.724553 C94.8204696,99.9398866 97.5473221,98.1911706 97.5473221,98.1911706" id="Fill-64" fill="#82B378"></path>
            <path d="M102.019149,131.577451 C100.229604,132.670261 68.8573734,133.399901 69.3554659,130.578185 C69.3554659,130.578185 69.9909024,125.396967 76.6579237,122.658889 C77.8331621,122.177964 79.1964784,121.770774 80.7773661,121.481339 C82.4151504,121.184201 84.2854732,121.01142 86.42135,121.01142 C86.42135,121.01142 86.42135,121.01142 86.4242113,121.01142 C86.5674982,121.01142 86.7105649,121.01142 86.8568232,121.014722 C88.8375275,121.036732 90.5885547,121.191904 92.1307043,121.453826 C93.619259,121.702543 94.9168745,122.050305 96.038518,122.465198 C96.038518,122.465198 96.038518,122.462997 96.0414894,122.465198 C96.8290169,122.757935 97.529934,123.082587 98.1564563,123.43255 C103.325459,126.314795 103.233015,130.834604 102.019149,131.577451" id="Fill-65" fill="#EE9849"></path>
            <path d="M92.1307043,121.453826 C90.2783199,121.836805 83.8111519,123.309292 80.3479457,125.864685 C80.4165077,125.733724 82.3792737,122.115235 86.42135,121.01142 C86.42135,121.01142 86.42135,121.01142 86.4242113,121.01142 C86.5674982,121.01142 86.7105649,121.01142 86.8568232,121.014722 C88.8375275,121.036732 90.5885547,121.191904 92.1307043,121.453826" id="Fill-66" fill="#FFBDA7" fill-rule="nonzero"></path>
            <path d="M98.1564563,123.43255 C95.5910492,123.863951 91.9010271,124.650818 89.5654072,125.886695 C89.5654072,125.886695 91.7817315,122.929615 96.038518,122.465198 C96.038518,122.465198 96.038518,122.462997 96.0414894,122.465198 C96.8290169,122.757935 97.529934,123.082587 98.1564563,123.43255" id="Fill-67" fill="#FFBDA7" fill-rule="nonzero"></path>
            <path d="M80.7773661,121.481339 C78.6595378,122.708412 76.0702494,124.394399 74.5787234,126.067179 C74.5787234,126.067179 75.0410492,124.322865 76.6579237,122.658889 C77.8331621,122.177964 79.1964784,121.770774 80.7773661,121.481339" id="Fill-68" fill="#FFBDA7" fill-rule="nonzero"></path>
            <path d="M127.266031,7.58335692 C126.081878,8.30606418 105.336097,8.78852933 105.666251,6.92205831 C105.666251,6.92205831 106.085547,3.49615956 110.494204,1.68570468 C111.272267,1.36765626 112.173588,1.09847064 113.219076,0.906981275 C114.301981,0.709989346 115.538958,0.596196242 116.950917,0.596196242 C116.950917,0.596196242 116.950917,0.596196242 116.953118,0.596196242 C117.047762,0.596196242 117.142406,0.596196242 117.239252,0.597957064 C118.548863,0.612483843 119.706603,0.715491913 120.726779,0.888932853 C121.710638,1.05334958 122.569039,1.28280666 123.310785,1.55749485 C123.310785,1.55749485 123.310785,1.55562398 123.312986,1.55749485 C123.833529,1.75074503 124.296845,1.96578538 124.710638,2.19711334 C128.129934,4.1033129 128.068305,7.09186756 127.266031,7.58335692" id="Fill-69" fill="#ED9B64"></path>
            <path d="M120.726779,0.888932853 C119.501908,1.14183087 115.225312,2.11578538 112.935143,3.80518377 C112.980264,3.7184633 114.27777,1.3261669 116.950917,0.596196242 C116.950917,0.596196242 116.950917,0.596196242 116.953118,0.596196242 C117.047762,0.596196242 117.142406,0.596196242 117.239252,0.597957064 C118.548863,0.612483843 119.706603,0.715491913 120.726779,0.888932853" id="Fill-70" fill="#93542A"></path>
            <path d="M124.710638,2.19711334 C123.014747,2.48258656 120.574908,3.00290937 119.029787,3.81971055 C119.029787,3.81971055 120.495671,1.86464819 123.310785,1.55749485 C123.310785,1.55749485 123.310785,1.55562398 123.312986,1.55749485 C123.833529,1.75074503 124.296845,1.96578538 124.710638,2.19711334" id="Fill-71" fill="#93542A"></path>
            <path d="M113.219076,0.906981275 C111.818122,1.71827988 110.105723,2.83310013 109.119663,3.93889617 C109.119663,3.93889617 109.425605,2.7861082 110.494204,1.68570468 C111.272267,1.36765626 112.173588,1.09847064 113.219076,0.906981275" id="Fill-72" fill="#93542A"></path>
            <path d="M110.388555,7.94905758 C109.204402,8.67187489 88.4588408,9.15422999 88.7882245,7.28775897 C88.7882245,7.28775897 89.2084006,3.86186022 93.617168,2.05140534 C94.3943507,1.73346697 95.2957814,1.4641713 96.3412693,1.27268194 C97.4242847,1.07580006 98.6610418,0.961896902 100.073331,0.961896902 C100.073331,0.961896902 100.073331,0.961896902 100.075312,0.961896902 C100.170066,0.961896902 100.26471,0.961896902 100.361335,0.963767776 C101.671387,0.978184503 102.829127,1.08119257 103.849303,1.25463351 C104.833162,1.41905024 105.691563,1.64850732 106.433309,1.92319551 C106.433309,1.92319551 106.433309,1.92132464 106.434409,1.92319551 C106.956053,2.11644569 107.419369,2.33148604 107.833162,2.562814 C111.252458,4.46901356 111.190829,7.45756822 110.388555,7.94905758" id="Fill-73" fill="#DB7B33"></path>
            <path d="M103.849303,1.25463351 C102.624431,1.50753153 98.3473955,2.48148604 96.0572267,4.17088443 C96.1025679,4.08416396 97.4005136,1.69186756 100.073331,0.961896902 C100.073331,0.961896902 100.073331,0.961896902 100.075312,0.961896902 C100.170066,0.961896902 100.26471,0.961896902 100.361335,0.963767776 C101.671387,0.978184503 102.829127,1.08119257 103.849303,1.25463351" id="Fill-74" fill="#ED9B64"></path>
            <path d="M107.833162,2.562814 C106.137271,2.84828722 103.697432,3.36861004 102.152311,4.18530116 C102.152311,4.18530116 103.618195,2.23034885 106.433309,1.92319551 C106.433309,1.92319551 106.433309,1.92132464 106.434409,1.92319551 C106.956053,2.11644569 107.419369,2.33148604 107.833162,2.562814" id="Fill-75" fill="#ED9B64"></path>
            <path d="M96.3412693,1.27268194 C94.9407557,2.08398054 93.2285767,3.19880079 92.2422964,4.30459683 C92.2422964,4.30459683 92.5480191,3.15180886 93.617168,2.05140534 C94.3943507,1.73346697 95.2957814,1.4641713 96.3412693,1.27268194" id="Fill-76" fill="#ED9B64"></path>
            <path d="M108.42964,36.2428213 L103.173588,36.2428213 C102.366911,36.2428213 101.713206,35.5891163 101.713206,34.78277 L101.713206,27.7273775 C101.713206,26.9210312 102.366911,26.2673261 103.173588,26.2673261 L108.42964,26.2673261 C109.236317,26.2673261 109.890022,26.9210312 109.890022,27.7273775 L109.890022,34.78277 C109.890022,35.5891163 109.236317,36.2428213 108.42964,36.2428213" id="Fill-77" fill="#ED9B64"></path>
            <path d="M116.383052,36.2428213 L108.881952,36.2428213 C107.952018,36.2428213 107.199266,35.4891896 107.199266,34.5595858 L107.199266,27.9506717 C107.199266,27.0209578 107.952018,26.2673261 108.881952,26.2673261 L116.383052,26.2673261 C117.312986,26.2673261 118.066838,27.0209578 118.066838,27.9506717 L118.066838,34.5595858 C118.066838,35.4891896 117.312986,36.2428213 116.383052,36.2428213" id="Fill-78" fill="#DB7B33"></path>
            <path d="M107.396258,27.5346775 L117.9854,27.7273775 C117.9854,27.7273775 119.578944,27.3303122 119.456787,25.885778 C119.329127,24.3832469 118.312252,24.141354 114.932575,23.8688668 C111.552898,23.5962696 102.735583,22.7104662 101.467792,24.7546702 C100.726816,25.9502681 100.486904,27.4977003 101.713206,27.7273775 C101.713206,27.7273775 103.675422,25.6131808 107.396258,27.5346775" id="Fill-79" fill="#93542A"></path>
            <path d="M118.536757,36.2428213 L113.279604,36.2428213 C112.474028,36.2428213 111.820323,35.5891163 111.820323,34.78277 L111.820323,27.7273775 C111.820323,26.9210312 112.474028,26.2673261 113.279604,26.2673261 L118.536757,26.2673261 C119.343434,26.2673261 119.997139,26.9210312 119.997139,27.7273775 L119.997139,34.78277 C119.997139,35.5891163 119.343434,36.2428213 118.536757,36.2428213" id="Fill-80" fill="#ED9B64"></path>
            <path d="M126.490169,36.2428213 L118.989068,36.2428213 C118.059134,36.2428213 117.305282,35.4891896 117.305282,34.5595858 L117.305282,27.9506717 C117.305282,27.0209578 118.059134,26.2673261 118.989068,26.2673261 L126.490169,26.2673261 C127.420103,26.2673261 128.172854,27.0209578 128.172854,27.9506717 L128.172854,34.5595858 C128.172854,35.4891896 127.420103,36.2428213 126.490169,36.2428213" id="Fill-81" fill="#DB7B33"></path>
            <path d="M117.502274,27.5346775 L128.091416,27.7273775 C128.091416,27.7273775 129.68606,27.3303122 129.563903,25.885778 C129.436244,24.3832469 128.418269,24.141354 125.038591,23.8688668 C121.658914,23.5962696 112.841599,22.7104662 111.574908,24.7546702 C110.833162,25.9502681 110.59325,27.4977003 111.820323,27.7273775 C111.820323,27.7273775 113.782539,25.6131808 117.502274,27.5346775" id="Fill-82" fill="#A05C35"></path>
            <path d="M76.7437638,7.94905758 C75.5602715,8.67187489 54.8146001,9.15422999 55.1439839,7.28775897 C55.1439839,7.28775897 55.5641599,3.86186022 59.9729274,2.05140534 C60.7501101,1.73346697 61.6515407,1.4641713 62.6970286,1.27268194 C63.780044,1.07580006 65.0168012,0.961896902 66.4292003,0.961896902 C66.4292003,0.961896902 66.4292003,0.961896902 66.4310712,0.961896902 C66.5258254,0.961896902 66.6204696,0.961896902 66.7172047,0.963767776 C68.0269259,0.978184503 69.1848863,1.08119257 70.2047322,1.25463351 C71.1890315,1.41905024 72.047102,1.64850732 72.7887381,1.92319551 C72.7887381,1.92319551 72.7887381,1.92132464 72.7908291,1.92319551 C73.311482,2.11644569 73.7750183,2.33148604 74.1893617,2.562814 C77.607777,4.46901356 77.5465884,7.45756822 76.7437638,7.94905758" id="Fill-83" fill="#DB7B33"></path>
            <path d="M70.2047322,1.25463351 C68.9797506,1.50753153 64.7031548,2.48148604 62.4129861,4.17088443 C62.4583272,4.08416396 63.7562729,1.69186756 66.4292003,0.961896902 C66.4292003,0.961896902 66.4292003,0.961896902 66.4310712,0.961896902 C66.5258254,0.961896902 66.6204696,0.961896902 66.7172047,0.963767776 C68.0269259,0.978184503 69.1848863,1.08119257 70.2047322,1.25463351" id="Fill-84" fill="#ED9B64"></path>
            <path d="M74.1893617,2.562814 C72.49292,2.84828722 70.0528613,3.36861004 68.5082905,4.18530116 C68.5082905,4.18530116 69.9738445,2.23034885 72.7887381,1.92319551 C72.7887381,1.92319551 72.7887381,1.92132464 72.7908291,1.92319551 C73.311482,2.11644569 73.7750183,2.33148604 74.1893617,2.562814" id="Fill-85" fill="#ED9B64"></path>
            <path d="M62.6970286,1.27268194 C61.296515,2.08398054 59.584336,3.19880079 58.5980558,4.30459683 C58.5980558,4.30459683 58.9037784,3.15180886 59.9729274,2.05140534 C60.7501101,1.73346697 61.6515407,1.4641713 62.6970286,1.27268194" id="Fill-86" fill="#ED9B64"></path>
            <path d="M122.433676,63.7716181 C120.965591,63.4684266 108.122597,49.7022124 110.091416,45.9561742 C110.091416,45.9561742 112.642406,44.2859248 117.25686,46.1437017 C117.618929,46.28996 117.9865,46.4628507 118.360675,46.6662256 C118.825092,46.9189035 119.299413,47.2181331 119.778136,47.5718382 C119.998239,47.7354846 120.219442,47.9096959 120.442847,48.0957927 C120.831328,48.4216548 121.22201,48.7819629 121.614894,49.1836504 C121.909831,49.4840906 122.204769,49.8073114 122.501908,50.1544134 C122.501908,50.1544134 122.501908,50.1544134 122.503008,50.155734 C122.563536,50.2288081 122.626266,50.3006717 122.686794,50.3750664 C122.938811,50.6795785 123.174321,50.9801287 123.393324,51.2767172 C123.769699,51.7847142 124.098753,52.2807157 124.384886,52.7648316 C124.483933,52.9336504 124.579677,53.1025792 124.668819,53.2687568 C124.893324,53.6836504 125.087014,54.0865484 125.24989,54.4815227 C125.435877,54.9297619 125.585547,55.3645748 125.7,55.7860715 C125.701101,55.7860715 125.701101,55.7860715 125.701101,55.7875022 C125.85077,56.3432615 125.944314,56.8739292 125.989435,57.3806056 C126.36361,61.5548536 123.430741,63.9764237 122.433676,63.7716181" id="Fill-87" fill="#DB7B33"></path>
            <path d="M123.393324,51.2767172 C120.843434,51.578588 117.944681,52.1836504 115.723844,53.3791383 C115.82179,53.2527993 118.202201,50.2301287 121.614894,49.1836504 C121.909831,49.4840906 122.204769,49.8073114 122.501908,50.1544134 C122.501908,50.1544134 122.501908,50.1544134 122.503008,50.155734 C122.563536,50.2288081 122.626266,50.3006717 122.686794,50.3750664 C122.938811,50.6795785 123.174321,50.9801287 123.393324,51.2767172" id="Fill-88" fill="#ED9B64"></path>
            <path d="M120.442847,48.0957927 C118.389288,48.4481772 116.266398,49.020004 114.549596,49.9442153 C114.625532,49.8445088 116.094718,47.9774875 118.360675,46.6662256 C118.825092,46.9189035 119.299413,47.2181331 119.778136,47.5718382 C119.998239,47.7354846 120.219442,47.9096959 120.442847,48.0957927" id="Fill-89" fill="#ED9B64"></path>
            <path d="M125.24989,54.4815227 C123.542993,54.8392997 121.8427,55.3632542 120.421937,56.127891 C120.500073,56.0255433 122.033089,54.0786247 124.384886,52.7648316 C124.483933,52.9336504 124.579677,53.1025792 124.668819,53.2687568 C124.893324,53.6836504 125.087014,54.0865484 125.24989,54.4815227" id="Fill-90" fill="#ED9B64"></path>
            <path d="M127.39259,65.2036064 C126.075275,64.4889329 117.759795,47.5974802 120.72898,44.5807524 C120.72898,44.5807524 123.653045,43.7192703 127.533456,46.8317428 C127.837197,47.076387 128.139839,47.3483239 128.439178,47.6511852 C128.810051,48.0272307 129.177623,48.4509285 129.534189,48.927891 C129.698166,49.1483239 129.858841,49.3788815 130.019516,49.6217648 C130.296845,50.0459028 130.566471,50.5039365 130.826192,51.0018089 C131.022084,51.3747729 131.211372,51.7695271 131.395158,52.1875022 C131.395158,52.1875022 131.395158,52.1875022 131.395158,52.189153 C131.432575,52.2768639 131.472194,52.3636944 131.50741,52.4522858 C131.661482,52.8168859 131.800147,53.1725719 131.924505,53.519894 C132.138004,54.1150517 132.308584,54.6847876 132.442847,55.2308624 C132.489068,55.4213613 132.531988,55.6107597 132.569406,55.795646 C132.66405,56.2577516 132.732282,56.6992777 132.775202,57.1246262 C132.823624,57.6074215 132.840132,58.0667758 132.828026,58.5033496 C132.829127,58.5037898 132.829127,58.5037898 132.829127,58.5050004 C132.812619,59.0805689 132.747689,59.6154185 132.644241,60.113511 C131.795745,64.2176563 128.288408,65.6875022 127.39259,65.2036064" id="Fill-91" fill="#ED9B64"></path>
            <path d="M131.924505,53.519894 C129.395525,53.0714347 126.445048,52.8125939 123.973294,53.3149783 C124.104255,53.2224251 127.257227,51.017106 130.826192,51.0018089 C131.022084,51.3747729 131.211372,51.7695271 131.395158,52.1875022 C131.395158,52.1875022 131.395158,52.1875022 131.395158,52.189153 C131.432575,52.2768639 131.472194,52.3636944 131.50741,52.4522858 C131.661482,52.8168859 131.800147,53.1725719 131.924505,53.519894" id="Fill-92" fill="#AF643A"></path>
            <path d="M130.019516,49.6217648 C127.951651,49.3654552 125.753925,49.2988742 123.842333,49.6872454 C123.944681,49.6137311 125.890389,48.2512953 128.439178,47.6511852 C128.810051,48.0272307 129.177623,48.4509285 129.534189,48.927891 C129.698166,49.1483239 129.858841,49.3788815 130.019516,49.6217648" id="Fill-93" fill="#AF643A"></path>
            <path d="M132.775202,57.1246262 C131.037491,56.9734156 129.259061,56.9836504 127.676522,57.3046702 C127.781071,57.229285 129.811519,55.8088521 132.442847,55.2308624 C132.489068,55.4213613 132.531988,55.6107597 132.569406,55.795646 C132.66405,56.2577516 132.732282,56.6992777 132.775202,57.1246262" id="Fill-94" fill="#AF643A"></path>
            <path d="M94.0202861,7.58335692 C92.8366838,8.30606418 72.0911225,8.78852933 72.4205062,6.92205831 C72.4205062,6.92205831 72.8406823,3.49615956 77.2493397,1.68570468 C78.0265224,1.36765626 78.9280631,1.09847064 79.973551,0.906981275 C81.0564563,0.709989346 82.2932135,0.596196242 83.7056126,0.596196242 C83.7056126,0.596196242 83.7056126,0.596196242 83.7075935,0.596196242 C83.8023478,0.596196242 83.8969919,0.596196242 83.993617,0.597957064 C85.3034483,0.612483843 86.4612986,0.715491913 87.4811445,0.888932853 C88.4654439,1.05334958 89.3235143,1.28280666 90.0652605,1.55749485 C90.0652605,1.55749485 90.0652605,1.55562398 90.0672414,1.55749485 C90.5880044,1.75074503 91.0515407,1.96578538 91.465774,2.19711334 C94.8841893,4.1033129 94.8231108,7.09186756 94.0202861,7.58335692" id="Fill-95" fill="#ED9B64"></path>
            <path d="M87.4811445,0.888932853 C86.2561629,1.14183087 81.9796772,2.11578538 79.6895084,3.80518377 C79.7348496,3.7184633 81.0327953,1.3261669 83.7056126,0.596196242 C83.7056126,0.596196242 83.7056126,0.596196242 83.7075935,0.596196242 C83.8023478,0.596196242 83.8969919,0.596196242 83.993617,0.597957064 C85.3034483,0.612483843 86.4612986,0.715491913 87.4811445,0.888932853" id="Fill-96" fill="#93542A"></path>
            <path d="M91.465774,2.19711334 C89.7693324,2.48258656 87.3292737,3.00290937 85.7847029,3.81971055 C85.7847029,3.81971055 87.2503668,1.86464819 90.0652605,1.55749485 C90.0652605,1.55749485 90.0652605,1.55562398 90.0672414,1.55749485 C90.5880044,1.75074503 91.0515407,1.96578538 91.465774,2.19711334" id="Fill-97" fill="#93542A"></path>
            <path d="M79.973551,0.906981275 C78.5730374,1.71827988 76.8607483,2.83310013 75.8744681,3.93889617 C75.8744681,3.93889617 76.1801908,2.7861082 77.2493397,1.68570468 C78.0265224,1.36765626 78.9280631,1.09847064 79.973551,0.906981275" id="Fill-98" fill="#93542A"></path>
            <path d="M129.08628,36.2428213 L123.830227,36.2428213 C123.023551,36.2428213 122.369846,35.5891163 122.369846,34.78277 L122.369846,27.7273775 C122.369846,26.9210312 123.023551,26.2673261 123.830227,26.2673261 L129.08628,26.2673261 C129.892957,26.2673261 130.546662,26.9210312 130.546662,27.7273775 L130.546662,34.78277 C130.546662,35.5891163 129.892957,36.2428213 129.08628,36.2428213" id="Fill-99" fill="#ED9B64"></path>
            <path d="M137.039692,36.2428213 L129.538591,36.2428213 C128.608657,36.2428213 127.854806,35.4891896 127.854806,34.5595858 L127.854806,27.9506717 C127.854806,27.0209578 128.608657,26.2673261 129.538591,26.2673261 L137.039692,26.2673261 C137.969626,26.2673261 138.723478,27.0209578 138.723478,27.9506717 L138.723478,34.5595858 C138.723478,35.4891896 137.969626,36.2428213 137.039692,36.2428213" id="Fill-100" fill="#DB7B33"></path>
            <path d="M128.052898,27.5346775 L138.640939,27.7273775 C138.640939,27.7273775 140.235583,27.3303122 140.113426,25.885778 C139.985767,24.3832469 138.968892,24.141354 135.589215,23.8688668 C132.209538,23.5962696 123.392223,22.7104662 122.124431,24.7546702 C121.383786,25.9502681 121.142773,27.4977003 122.369846,27.7273775 C122.369846,27.7273775 124.332062,25.6131808 128.052898,27.5346775" id="Fill-101" fill="#AF643A"></path>
            <polygon id="Fill-102" fill="#AAC9F5" points="52.75719 10.688456 135.548496 10.688456 135.548496 6.98621825 52.75719 6.98621825"></polygon>
            <polygon id="Fill-103" fill="#AAC9F5" points="100.252274 37.8283312 139.938445 37.8283312 139.938445 34.2821464 100.252274 34.2821464"></polygon>
            <path d="M62.082832,36.2428213 L67.339325,36.2428213 C68.1457814,36.2428213 68.7993764,35.5891163 68.7993764,34.78277 L68.7993764,27.7273775 C68.7993764,26.9210312 68.1457814,26.2673261 67.339325,26.2673261 L62.082832,26.2673261 C61.2764857,26.2673261 60.6227806,26.9210312 60.6227806,27.7273775 L60.6227806,34.78277 C60.6227806,35.5891163 61.2764857,36.2428213 62.082832,36.2428213" id="Fill-104" fill="#ED9B64"></path>
            <path d="M54.1294204,36.2428213 L61.630741,36.2428213 C62.5604549,36.2428213 63.3139765,35.4891896 63.3139765,34.5595858 L63.3139765,27.9506717 C63.3139765,27.0209578 62.5604549,26.2673261 61.630741,26.2673261 L54.1294204,26.2673261 C53.1997065,26.2673261 52.4460748,27.0209578 52.4460748,27.9506717 L52.4460748,34.5595858 C52.4460748,35.4891896 53.1997065,36.2428213 54.1294204,36.2428213" id="Fill-105" fill="#DB7B33"></path>
            <path d="M63.1166544,27.5346775 L52.527843,27.7273775 C52.527843,27.7273775 50.9334189,27.3303122 51.0560161,25.885778 C51.1836757,24.3832469 52.2007704,24.141354 55.5804475,23.8688668 C58.9601247,23.5962696 67.7773294,22.7104662 69.0447909,24.7546702 C69.7859868,25.9502681 70.0260088,27.4977003 68.7993764,27.7273775 C68.7993764,27.7273775 66.8370506,25.6131808 63.1166544,27.5346775" id="Fill-106" fill="#93542A"></path>
            <path d="M51.9762656,36.2428213 L57.2327586,36.2428213 C58.039215,36.2428213 58.69292,35.5891163 58.69292,34.78277 L58.69292,27.7273775 C58.69292,26.9210312 58.039215,26.2673261 57.2327586,26.2673261 L51.9762656,26.2673261 C51.1699193,26.2673261 50.5162142,26.9210312 50.5162142,27.7273775 L50.5162142,34.78277 C50.5162142,35.5891163 51.1699193,36.2428213 51.9762656,36.2428213" id="Fill-107" fill="#ED9B64"></path>
            <path d="M44.022854,36.2428213 L51.5241746,36.2428213 C52.4538885,36.2428213 53.2075202,35.4891896 53.2075202,34.5595858 L53.2075202,27.9506717 C53.2075202,27.0209578 52.4538885,26.2673261 51.5241746,26.2673261 L44.022854,26.2673261 C43.0932502,26.2673261 42.3395084,27.0209578 42.3395084,27.9506717 L42.3395084,34.5595858 C42.3395084,35.4891896 43.0932502,36.2428213 44.022854,36.2428213" id="Fill-108" fill="#DB7B33"></path>
            <path d="M53.010088,27.5346775 L42.4212766,27.7273775 C42.4212766,27.7273775 40.8268525,27.3303122 40.9495598,25.885778 C41.0771093,24.3832469 42.094204,24.141354 45.4738811,23.8688668 C48.8535583,23.5962696 57.670763,22.7104662 58.9382245,24.7546702 C59.6794204,25.9502681 59.9194424,27.4977003 58.69292,27.7273775 C58.69292,27.7273775 56.7304842,25.6131808 53.010088,27.5346775" id="Fill-109" fill="#A05C35"></path>
            <path d="M41.4264123,36.2428213 L46.6829054,36.2428213 C47.4893617,36.2428213 48.1430668,35.5891163 48.1430668,34.78277 L48.1430668,27.7273775 C48.1430668,26.9210312 47.4893617,26.2673261 46.6829054,26.2673261 L41.4264123,26.2673261 C40.620066,26.2673261 39.966361,26.9210312 39.966361,27.7273775 L39.966361,34.78277 C39.966361,35.5891163 40.620066,36.2428213 41.4264123,36.2428213" id="Fill-110" fill="#ED9B64"></path>
            <path d="M33.4730007,36.2428213 L40.9743213,36.2428213 C41.9040352,36.2428213 42.6576669,35.4891896 42.6576669,34.5595858 L42.6576669,27.9506717 C42.6576669,27.0209578 41.9040352,26.2673261 40.9743213,26.2673261 L33.4730007,26.2673261 C32.5433969,26.2673261 31.7897652,27.0209578 31.7897652,27.9506717 L31.7897652,34.5595858 C31.7897652,35.4891896 32.5433969,36.2428213 33.4730007,36.2428213" id="Fill-111" fill="#DB7B33"></path>
            <path d="M42.4602348,27.5346775 L31.8714233,27.7273775 C31.8714233,27.7273775 30.2769993,27.3303122 30.3997065,25.885778 C30.5272561,24.3832469 31.5444607,24.141354 34.9241379,23.8688668 C38.3037051,23.5962696 47.1210198,22.7104662 48.3883712,24.7546702 C49.1296772,25.9502681 49.3694791,27.4977003 48.1430668,27.7273775 C48.1430668,27.7273775 46.180631,25.6131808 42.4602348,27.5346775" id="Fill-112" fill="#AF643A"></path>
            <polygon id="Fill-113" fill="#AAC9F5" points="30.5749083 37.8283312 70.2605282 37.8283312 70.2605282 34.2821464 30.5749083 34.2821464"></polygon>
            <path d="M28.6383346,57.3983239 C28.6383346,56.4424178 29.1980558,55.8746629 30.3703228,55.6677663 C31.3112619,55.500048 32.1765957,56.5546702 32.1765957,57.5118969 C32.1765957,58.467803 31.3261189,59.1288815 30.3703228,59.1288815 C29.4144167,59.1288815 28.6383346,58.35423 28.6383346,57.3983239 Z M30.3176082,53.2638045 C27.512069,53.760026 26.1708731,55.1201508 26.1708731,57.4105396 C26.1708731,59.7008184 28.0272194,61.5571647 30.3176082,61.5571647 C32.607887,61.5571647 34.6440572,59.9712146 34.6440572,57.6809358 C34.6440572,55.3905469 32.5726706,52.866299 30.3176082,53.2638045 L30.3176082,53.2638045 Z" id="Fill-114" fill="#ED9B64"></path>
            <path d="M30.3703228,59.1288815 C29.4144167,59.1288815 28.6383346,58.35423 28.6383346,57.3983239 C28.6383346,56.4424178 29.1980558,55.8746629 30.3703228,55.6677663 C31.3112619,55.500048 32.1765957,56.5546702 32.1765957,57.5118969 C32.1765957,58.467803 31.3261189,59.1288815 30.3703228,59.1288815 Z M30.2810712,54.4509285 C28.2894718,54.8471133 27.3539252,55.8366951 27.3890315,57.4686467 C27.4228173,59.1005983 28.7734776,60.3957927 30.4067498,60.3605763 C32.0387014,60.3269006 33.465077,59.1654185 33.4312913,57.533577 C33.3960748,55.9016254 31.8817682,54.1332102 30.2810712,54.4509285 L30.2810712,54.4509285 Z" id="Fill-115" fill="#93542A"></path>
            <path d="M40.7395818,57.3983239 C40.7395818,56.4424178 41.299303,55.8746629 42.4715701,55.6677663 C43.4125092,55.500048 44.277843,56.5546702 44.277843,57.5118969 C44.277843,58.467803 43.4274762,59.1288815 42.4715701,59.1288815 C41.515664,59.1288815 40.7395818,58.35423 40.7395818,57.3983239 Z M42.4188555,53.2638045 C39.6133162,53.760026 38.2721203,55.1201508 38.2721203,57.4105396 C38.2721203,59.7008184 40.1284666,61.5571647 42.4188555,61.5571647 C44.7091343,61.5571647 46.7453045,59.9712146 46.7453045,57.6809358 C46.7453045,55.3905469 44.6740279,52.866299 42.4188555,53.2638045 L42.4188555,53.2638045 Z" id="Fill-116" fill="#ED9B64"></path>
            <path d="M42.4715701,59.1288815 C41.515664,59.1288815 40.7395818,58.35423 40.7395818,57.3983239 C40.7395818,56.4424178 41.299303,55.8746629 42.4715701,55.6677663 C43.4125092,55.500048 44.277843,56.5546702 44.277843,57.5118969 C44.277843,58.467803 43.4274762,59.1288815 42.4715701,59.1288815 Z M42.3823184,54.4509285 C40.390719,54.8471133 39.4551724,55.8366951 39.4903888,57.4686467 C39.5240646,59.1005983 40.8748349,60.3957927 42.5081071,60.3605763 C44.1399486,60.3269006 45.5663243,59.1654185 45.5325385,57.533577 C45.4974321,55.9016254 43.9831255,54.1332102 42.3823184,54.4509285 L42.3823184,54.4509285 Z" id="Fill-117" fill="#93542A"></path>
            <path d="M33.8910858,57.3983239 C33.8910858,56.4424178 34.450807,55.8746629 35.6230741,55.6677663 C36.5640132,55.500048 37.429347,56.5546702 37.429347,57.5118969 C37.429347,58.467803 36.5788701,59.1288815 35.6230741,59.1288815 C34.667168,59.1288815 33.8910858,58.35423 33.8910858,57.3983239 Z M35.5703595,53.2638045 C32.7648202,53.760026 31.4236244,55.1201508 31.4236244,57.4105396 C31.4236244,59.7008184 33.2799707,61.5571647 35.5703595,61.5571647 C37.8606383,61.5571647 39.8968085,59.9712146 39.8968085,57.6809358 C39.8968085,55.3905469 37.8254219,52.866299 35.5703595,53.2638045 L35.5703595,53.2638045 Z" id="Fill-118" fill="#ED9B64"></path>
            <path d="M35.6230741,59.1288815 C34.667168,59.1288815 33.8910858,58.35423 33.8910858,57.3983239 C33.8910858,56.4424178 34.450807,55.8746629 35.6230741,55.6677663 C36.5640132,55.500048 37.429347,56.5546702 37.429347,57.5118969 C37.429347,58.467803 36.5788701,59.1288815 35.6230741,59.1288815 Z M35.5338225,54.4509285 C33.542223,54.8471133 32.6066764,55.8366951 32.6417828,57.4686467 C32.6755686,59.1005983 34.0262289,60.3957927 35.6595011,60.3605763 C37.2914527,60.3269006 38.7178283,59.1654185 38.6840426,57.533577 C38.6488261,55.9016254 37.1345194,54.1332102 35.5338225,54.4509285 L35.5338225,54.4509285 Z" id="Fill-119" fill="#683112"></path>
            <path d="M47.0561996,57.3983239 C47.0561996,56.4424178 47.6159208,55.8746629 48.7881878,55.6677663 C49.7291269,55.500048 50.5944607,56.5546702 50.5944607,57.5118969 C50.5944607,58.467803 49.7440939,59.1288815 48.7881878,59.1288815 C47.8322817,59.1288815 47.0561996,58.35423 47.0561996,57.3983239 Z M48.7354732,53.2638045 C45.929934,53.760026 44.5887381,55.1201508 44.5887381,57.4105396 C44.5887381,59.7008184 46.4450844,61.5571647 48.7354732,61.5571647 C51.025752,61.5571647 53.0619222,59.9712146 53.0619222,57.6809358 C53.0619222,55.3905469 50.9906456,52.866299 48.7354732,53.2638045 L48.7354732,53.2638045 Z" id="Fill-120" fill="#ED9B64"></path>
            <path d="M48.7881878,59.1288815 C47.8322817,59.1288815 47.0561996,58.35423 47.0561996,57.3983239 C47.0561996,56.4424178 47.6159208,55.8746629 48.7881878,55.6677663 C49.7291269,55.500048 50.5944607,56.5546702 50.5944607,57.5118969 C50.5944607,58.467803 49.7440939,59.1288815 48.7881878,59.1288815 Z M48.6989362,54.4509285 C46.7073368,54.8471133 45.7717902,55.8366951 45.8068966,57.4686467 C45.8406823,59.1005983 47.1914527,60.3957927 48.8246148,60.3605763 C50.4565664,60.3269006 51.882942,59.1654185 51.8491563,57.533577 C51.8140499,55.9016254 50.2997432,54.1332102 48.6989362,54.4509285 L48.6989362,54.4509285 Z" id="Fill-121" fill="#683112"></path>
            <path d="M51.156493,57.3983239 C51.156493,56.4424178 51.7162142,55.8746629 52.8883712,55.6677663 C53.8294204,55.500048 54.6946442,56.5546702 54.6946442,57.5118969 C54.6946442,58.467803 53.8442773,59.1288815 52.8883712,59.1288815 C51.9324652,59.1288815 51.156493,58.35423 51.156493,57.3983239 Z M52.8356566,53.2638045 C50.0302274,53.760026 48.6890315,55.1201508 48.6890315,57.4105396 C48.6890315,59.7008184 50.5453778,61.5571647 52.8356566,61.5571647 C55.1259354,61.5571647 57.1621056,59.9712146 57.1621056,57.6809358 C57.1621056,55.3905469 55.0908291,52.866299 52.8356566,53.2638045 L52.8356566,53.2638045 Z" id="Fill-122" fill="#ED9B64"></path>
            <path d="M52.8883712,59.1288815 C51.9324652,59.1288815 51.156493,58.35423 51.156493,57.3983239 C51.156493,56.4424178 51.7162142,55.8746629 52.8883712,55.6677663 C53.8294204,55.500048 54.6946442,56.5546702 54.6946442,57.5118969 C54.6946442,58.467803 53.8442773,59.1288815 52.8883712,59.1288815 Z M52.7991196,54.4509285 C50.8076302,54.8471133 49.8720836,55.8366951 49.90719,57.4686467 C49.9409758,59.1005983 51.2916361,60.3957927 52.9249083,60.3605763 C54.5568599,60.3269006 55.9831255,59.1654185 55.9493397,57.533577 C55.9142333,55.9016254 54.3999266,54.1332102 52.7991196,54.4509285 L52.7991196,54.4509285 Z" id="Fill-123" fill="#93542A"></path>
            <path d="M57.4731108,57.3983239 C57.4731108,56.4424178 58.0327219,55.8746629 59.204989,55.6677663 C60.1460382,55.500048 61.0112619,56.5546702 61.0112619,57.5118969 C61.0112619,58.467803 60.1608951,59.1288815 59.204989,59.1288815 C58.2490829,59.1288815 57.4731108,58.35423 57.4731108,57.3983239 Z M59.1522744,53.2638045 C56.3468452,53.760026 55.0056493,55.1201508 55.0056493,57.4105396 C55.0056493,59.7008184 56.8618855,61.5571647 59.1522744,61.5571647 C61.4425532,61.5571647 63.4787234,59.9712146 63.4787234,57.6809358 C63.4787234,55.3905469 61.4074468,52.866299 59.1522744,53.2638045 L59.1522744,53.2638045 Z" id="Fill-124" fill="#ED9B64"></path>
            <path d="M59.204989,59.1288815 C58.2490829,59.1288815 57.4731108,58.35423 57.4731108,57.3983239 C57.4731108,56.4424178 58.0327219,55.8746629 59.204989,55.6677663 C60.1460382,55.500048 61.0112619,56.5546702 61.0112619,57.5118969 C61.0112619,58.467803 60.1608951,59.1288815 59.204989,59.1288815 Z M59.1157373,54.4509285 C57.124248,54.8471133 56.1885913,55.8366951 56.2238078,57.4686467 C56.2575935,59.1005983 57.6082539,60.3957927 59.241526,60.3605763 C60.8734776,60.3269006 62.2997432,59.1654185 62.2659574,57.533577 C62.2308511,55.9016254 60.7165444,54.1332102 59.1157373,54.4509285 L59.1157373,54.4509285 Z" id="Fill-125" fill="#683112"></path>
            <polygon id="Fill-126" fill="#AAC9F5" points="24.4338225 63.3440686 64.1194424 63.3440686 64.1194424 59.7978837 24.4338225 59.7978837"></polygon>
            <path d="M201.081878,42.3824765 C201.081878,42.3824765 198.894057,43.1782579 197.959721,46.7740759 C197.025385,50.369894 194.686794,64.41861 196.762362,64.41861 C198.837931,64.41861 201.164417,59.2224251 201.164417,59.2224251 L201.081878,42.3824765" id="Fill-127" fill="#FFE0CB" fill-rule="nonzero"></path>
            <polyline id="Fill-128" fill="#FFB27D" points="174.628833 59.2224251 166.636904 73.8896298 167.876082 75.1640246 177.012546 66.5932249 174.628833 59.2224251"></polyline>
            <path d="M201.954585,42.0167754 C201.954585,42.0167754 199.948349,42.0075315 198.546295,44.7044501 C197.144241,47.4012586 196.266031,51.7288081 196.266031,51.7288081 C196.266031,51.7288081 197.646075,55.4919042 200.531621,54.8647216 C203.416067,54.2375389 201.954585,42.0167754 201.954585,42.0167754" id="Fill-129" fill="#F99746"></path>
            <path d="M173.965224,71.8272674 C173.965224,71.8272674 174.018048,82.090657 174.697065,90.7550004 C175.619296,102.523893 178.294644,132.052873 178.294644,132.052873 C178.294644,132.052873 177.549596,133.221618 181.164784,132.460063 C181.164784,132.460063 185.59325,122.470701 186.51328,110.981339 C186.527586,110.793151 186.541893,110.602763 186.5562,110.413474 C187.412399,98.7172161 188.74292,74.0866218 188.74292,74.0866218 L173.965224,71.8272674" id="Fill-130" fill="#2B478B"></path>
            <path d="M179.683492,70.9402535 C179.683492,70.9402535 179.736317,72.649351 180.415334,81.3125939 L186.51328,110.981339 C186.527586,110.793151 186.541893,110.602763 186.5562,110.413474 C187.412399,98.7172161 188.74292,74.0866218 188.74292,74.0866218 L179.683492,70.9402535" id="Fill-131" fill="#233862"></path>
            <path d="M177.419736,71.4927113 L195.375715,133.463731 C195.375715,133.463731 197.762729,132.970701 198.25686,131.957128 C198.25686,131.957128 200.269699,105.819931 196.480631,99.4952791 C194.340132,95.9219116 194.54923,87.2949857 194.509611,83.8690869 C194.397359,74.2516988 192.486867,69.6713613 192.486867,69.6713613 L177.419736,71.4927113" id="Fill-132" fill="#2B478B"></path>
            <path d="M181.683125,137.302322 L179.911299,137.302322 C179.318122,137.206578 178.880117,137.031596 178.271533,136.951259 C177.348202,136.828001 176.922304,137.213181 176.837564,137.302322 C176.826559,137.314428 176.822157,137.319931 176.822157,137.319931 L169.299046,137.319931 C169.109758,137.044802 169.291343,136.406504 169.468525,135.937686 C169.588481,135.618537 169.850404,135.376424 170.173955,135.280679 C170.970726,135.045169 172.544461,134.836072 173.983933,133.506651 C174.795011,132.760503 177.897359,130.76197 177.897359,130.76197 L177.913866,130.758669 C177.982098,130.759769 178.305649,130.861016 179.717608,132.075983 C180.447249,132.702176 181.689729,131.191171 181.689729,131.191171 C181.689729,131.191171 181.924138,131.387062 182.098019,131.754634 C182.237784,132.044069 182.340132,132.441354 182.259795,132.931083 C182.147542,133.622205 182.509611,134.906504 182.797946,135.77481 C182.974028,136.300855 183.121497,136.673929 183.121497,136.673929 C183.121497,136.673929 183.206236,137.107532 181.683125,137.302322" id="Fill-133" fill="#212121"></path>
            <path d="M198.305282,137.302322 L196.534556,137.302322 C195.941379,137.206578 195.503375,137.031596 194.894791,136.951259 C193.97036,136.828001 193.545561,137.213181 193.460822,137.302322 C193.449817,137.314428 193.444314,137.319931 193.444314,137.319931 L185.921203,137.319931 C185.731915,137.044802 185.9135,136.406504 186.091783,135.937686 C186.211739,135.618537 186.472561,135.376424 186.796112,135.280679 C187.593984,135.045169 189.166618,134.836072 190.60719,133.506651 C191.417168,132.760503 194.519516,130.76197 194.519516,130.76197 L194.536023,130.758669 C194.604255,130.759769 194.928907,130.861016 196.339765,132.075983 C197.069406,132.702176 198.312986,131.191171 198.312986,131.191171 C198.312986,131.191171 198.546295,131.387062 198.720176,131.754634 C198.861042,132.044069 198.962289,132.441354 198.881952,132.931083 C198.769699,133.622205 199.131768,134.906504 199.421203,135.77481 C199.596185,136.300855 199.743654,136.673929 199.743654,136.673929 C199.743654,136.673929 199.828393,137.107532 198.305282,137.302322" id="Fill-134" fill="#212121"></path>
            <path d="M189.17212,35.065712 C189.17212,35.065712 182.439178,38.3796885 178.547762,37.1516254 C178.547762,37.1516254 179.505209,35.9279644 181.175789,35.0091456 C181.080044,34.4427113 181.004109,33.9251397 180.94358,33.4641346 C180.72788,31.7959761 180.720176,30.8461229 180.720176,30.8461229 L185.772634,26.7740026 C185.745121,27.5631808 185.794644,28.2946922 185.898092,28.9685367 C185.905796,29.0218015 185.9135,29.0749563 185.922304,29.1271207 C186.593617,33.1304589 189.17212,35.065712 189.17212,35.065712" id="Fill-135" fill="#FFB27D"></path>
            <path d="M193.569773,70.6904369 C193.589582,71.1196372 192.218342,71.5642447 191.834263,71.7359248 C190.131768,72.4996812 188.432575,72.7792116 186.756493,73.2238191 C185.586647,73.5352645 184.396992,73.7575682 183.14901,73.8775242 C179.542627,74.2472968 175.282539,73.4351177 173.821056,73.454927 C173.665884,73.454927 173.52942,73.3965998 173.411665,73.2997546 C173.31372,73.2216181 173.236684,68.8173628 173.31372,63.263621 C173.31372,63.0496812 173.31372,62.8147216 173.332428,62.6007817 L173.332428,62.5231955 C173.353338,60.3596959 173.431475,58.0797619 173.52942,55.8198573 C173.74292,50.8310092 174.132502,46.0174728 174.796112,43.3474068 C175.575275,40.210723 177.366911,38.1447289 179.004475,36.6251397 L180.167718,35.4677296 C180.240352,35.3950957 180.344901,35.3641713 180.446148,35.38288 C181.746955,35.6226819 183.17212,35.6029827 184.538958,34.9293584 C186.077476,34.1701141 187.753558,33.3510018 188.026486,33.5461229 C191.222377,35.933467 192.812619,42.9883092 192.782905,51.0084119 C192.781805,51.2610899 192.779604,51.5160789 192.776302,51.7709578 C192.761996,52.5988742 192.731181,53.4368052 192.683859,54.2791383 C192.336097,60.1967098 193.073441,64.7600994 193.277036,67.742161 C193.335363,68.6005616 193.556566,70.2205176 193.569773,70.6904369" id="Fill-136" fill="#F9DDBF"></path>
            <path d="M185.95642,29.0660422 C185.95642,29.0660422 185.945415,29.087172 185.922304,29.1271207 C185.662583,29.5936284 183.883052,32.6017722 180.94358,33.4641346 C180.72788,31.7959761 180.720176,30.8461229 180.720176,30.8461229 L184.847102,27.5199307 C185.390756,28.1583386 185.761629,28.7435917 185.898092,28.9685367 C185.93661,29.0317061 185.95642,29.0660422 185.95642,29.0660422" id="Fill-137" fill="#E8945B"></path>
            <path d="M179.52942,30.7534596 C179.52942,30.7534596 185.95752,31.821398 186.560602,27.8082652 C187.163683,23.7951324 188.39956,21.2302755 184.321056,20.3788081 C180.243654,19.5273408 179.213573,20.9384193 178.686427,22.2289915 C178.159281,23.5195638 177.873147,30.3723518 179.52942,30.7534596" id="Fill-138" fill="#FFB27D"></path>
            <path d="M185.383052,26.7740026 C185.383052,26.7740026 186.237051,25.9116401 185.745121,25.3685367 C185.254292,24.8254332 184.969259,25.6530194 184.581878,25.6271574 C184.193397,25.6012953 183.495671,24.4633643 183.443947,23.4287714 C183.392223,22.3942887 179.659281,23.9729754 178.159281,23.4815961 C176.659281,22.9902168 175.344167,20.9847509 177.689362,19.9040466 C179.067205,19.2688301 185.95642,15.9974435 188.57124,19.3165924 C191.903595,23.5475169 187.453118,27.9807157 186.85774,28.6531295 C186.262362,29.3255433 185.922304,29.1271207 185.922304,29.1271207 C185.922304,29.1271207 184.873514,27.7063577 185.383052,26.7740026" id="Fill-139" fill="#2C3A64"></path>
            <path d="M188.364343,62.2783312 C188.364343,62.2783312 197.259795,65.2018455 198.615627,64.2152351 C199.97036,63.2286247 199.829494,59.6246629 199.829494,59.6246629 L188.82876,60.2323665 L188.364343,62.2783312" id="Fill-140" fill="#FFE0CB" fill-rule="nonzero"></path>
            <path d="M192.052164,58.4672527 C192.052164,58.4672527 188.861775,58.9619336 187.996772,60.1432249 C187.130668,61.3246262 190.851504,60.3628874 191.311519,60.0702608 C191.771533,59.7775242 192.052164,58.4672527 192.052164,58.4672527" id="Fill-141" fill="#FFE0CB" fill-rule="nonzero"></path>
            <path d="M188.711005,19.7045235 C188.691196,19.3941786 188.625165,18.5751764 188.348936,18.0752131 C188.348936,18.0752131 188.366544,18.9200774 188.245488,19.3510385 C188.125532,19.7821097 188.711005,19.7045235 188.711005,19.7045235" id="Fill-142" fill="#2C3A64"></path>
            <path d="M189.392223,19.015602 C189.392223,19.015602 188.581145,19.1028727 188.530521,19.7408404 L188.824358,20.1197472 C188.824358,20.1197472 188.771533,19.3095491 189.392223,19.015602" id="Fill-143" fill="#2C3A64"></path>
            <path d="M192.274468,38.8986907 C192.274468,38.8986907 199.972561,57.5066144 199.416801,60.4815227 C198.861042,63.456431 184.656713,66.9145748 184.656713,66.9145748 L184.402494,64.8023591 L192.940279,57.7323298 C192.940279,57.7323298 184.814087,45.7425645 185.867278,43.4288448 C186.92047,41.115015 191.791343,37.7150884 192.274468,38.8986907" id="Fill-144" fill="#FFB27D"></path>
            <path d="M185.862876,45.9819262 C188.468892,46.1082652 190.976963,45.5198206 193.642406,42.9182065 C194.07821,42.492748 194.619663,42.2211412 194.375348,41.6631808 C193.501541,39.6665191 191.033089,35.487869 188.026486,33.5461229 C187.744754,33.3637678 187.531255,33.5224618 187.238518,33.6867685 C186.1292,34.309219 183.739985,36.1503782 183.593617,38.3209211 C183.463756,40.251332 184.125165,43.6000847 184.524652,45.4017355 C184.657814,46.0000847 185.25099,45.9522124 185.862876,45.9819262" id="Fill-145" fill="#F9DDBF"></path>
            <path d="M166.636904,73.8896298 C166.636904,73.8896298 164.280704,75.8969666 164.176156,77.2340906 C164.120029,77.9472234 163.79978,80.6412806 164.343434,80.5158221 C164.887087,80.3903635 165.430741,78.3004882 166.183492,78.0913907 C166.935143,77.8822931 167.876082,75.1640246 167.876082,75.1640246 L166.636904,73.8896298" id="Fill-146" fill="#FFB27D"></path>
            <path d="M167.876082,75.1640246 C167.876082,75.1640246 167.374248,77.6522858 166.956053,78.4468566 C166.538958,79.2403268 166.267131,79.4087054 166.151577,79.251332 C166.037124,79.095059 166.37168,76.6486174 166.37168,76.6486174 L167.876082,75.1640246" id="Fill-147" fill="#FFB27D"></path>
            <path d="M184.402494,64.8023591 C184.402494,64.8023591 181.277036,65.2967098 180.817021,65.9241126 C180.357007,66.5514053 181.193397,68.264905 182.071607,68.432183 C182.949817,68.5994611 184.656713,66.9145748 184.656713,66.9145748 L184.402494,64.8023591" id="Fill-148" fill="#FFB27D"></path>
            <path d="M240.589215,97.1236724 C240.589215,97.1236724 235.43551,93.1640246 234.885253,91.8522124 C234.334996,90.5415007 231.968892,85.742161 231.358107,85.253533 C231.358107,85.253533 230.076009,85.088456 229.893324,85.9754699 C229.709538,86.8624838 231.112693,92.1262403 232.091049,93.7153819 C233.069406,95.3045235 237.755393,100.692638 239.29391,101.475103 L240.589215,97.1236724" id="Fill-149" fill="#F2A36D"></path>
            <path d="M228.06427,82.8280011 C228.14901,83.2869152 228.336097,83.7799453 228.5573,84.0352645 C228.845635,84.3742227 229.304549,85.05434 229.593984,85.4967465 C229.781071,85.7685734 229.899927,85.9721684 229.899927,85.9721684 L231.361409,85.2579351 C231.361409,85.2579351 231.395525,82.7773775 230.425972,82.2502315 C230.391856,82.2337238 230.375348,82.2161155 230.341233,82.2161155 C229.934043,81.9949123 229.54226,81.8419409 229.203302,81.7406937 C228.744387,81.6218382 228.38672,81.60423 228.183125,81.7230855 C227.996038,81.8254332 227.961922,82.3184633 228.06427,82.8280011" id="Fill-150" fill="#F2A36D"></path>
            <path d="M235.324358,134.822865 L237.694864,136.051039 C237.694864,136.051039 239.112326,134.204377 240.379017,131.973636 C241.26493,130.410906 242.07931,128.658889 242.278503,127.223819 C242.762729,123.738493 246.452751,118.010319 246.068672,117.035264 C245.684593,116.059109 238.368379,114.372022 238.368379,114.372022 C238.368379,114.372022 236.937711,124.164391 235.986867,130.494545 C235.709538,132.342308 235.472927,133.895132 235.324358,134.822865" id="Fill-151" fill="#FFB27D"></path>
            <path d="M235.324358,134.822865 L237.694864,136.051039 C237.694864,136.051039 239.112326,134.204377 240.379017,131.973636 C239.392957,131.898801 237.678357,131.602763 235.986867,130.494545 C235.709538,132.342308 235.472927,133.895132 235.324358,134.822865" id="Fill-152" fill="#FFFFFF"></path>
            <path d="M240.710271,116.609366 C240.710271,116.609366 243.705869,120.835338 245.519516,126.77481 C245.946515,128.174663 247.401394,129.916776 248.87168,131.464098 C250.299046,132.967399 251.739618,134.285815 252.273368,134.935118 L254.687894,133.774076 C254.687894,133.774076 253.839398,131.33974 252.583712,129.131009 C252.118195,128.308926 251.596552,127.519857 251.040792,126.896967 C250.271533,126.036365 250.524652,115.167693 249.759795,114.451259 C248.992737,113.734824 240.710271,116.609366 240.710271,116.609366" id="Fill-153" fill="#FFB27D"></path>
            <path d="M247.505943,97.2249196 L247.493837,97.2315227 C247.504842,97.2370253 247.505943,97.2249196 247.505943,97.2249196" id="Fill-154" fill="#FFB27D"></path>
            <path d="M241.315554,100.960063 L247.493837,97.2315227 C247.459721,97.2183166 247.335363,97.0312293 246.873147,95.6952058 C246.676156,95.1251397 246.571607,94.6310092 246.520983,94.2392263 C246.515481,94.1996078 246.509978,94.1621904 246.506676,94.1247729 C246.443947,93.5547069 246.490169,93.2267538 246.490169,93.2267538 L245.136537,93.7153819 L242.632869,94.622205 C242.662583,95.2572014 242.573441,95.7040099 242.438078,96.0099527 C242.111225,96.7538998 241.502641,96.7594024 241.485033,96.7594024 L241.315554,100.960063" id="Fill-155" fill="#FFB27D"></path>
            <path d="M242.438078,96.0099527 C244.857007,96.2157487 246.219442,94.6376122 246.520983,94.2392263 C246.565004,94.1808991 246.587014,94.1489842 246.587014,94.1489842 C246.587014,94.1489842 246.558401,94.1401801 246.506676,94.1247729 C246.309685,94.0664457 245.775935,93.9057707 245.136537,93.7153819 L242.632869,94.622205 C242.662583,95.2572014 242.573441,95.7040099 242.438078,96.0099527" id="Fill-156" fill="#ED985F"></path>
            <path d="M242.317021,95.1416475 C242.317021,95.1416475 247.69193,95.7315227 247.801981,92.0976269 C247.912032,88.4626306 248.706603,86.7997546 244.987968,86.4762036 C241.268232,86.1526526 240.390022,87.4919776 240.17102,88.7212513 C239.4865,92.5620436 240.802715,94.9776709 242.317021,95.1416475" id="Fill-157" fill="#FFB27D"></path>
            <path d="M252.341599,82.8026893 C252.416434,82.6354112 252.47036,82.5264604 252.47036,82.5264604 C252.414233,82.6034963 252.372414,82.6981405 252.341599,82.8026893" id="Fill-158" fill="#D35C2B"></path>
            <path d="M244.698533,88.251332 C246.60022,87.769307 245.872781,91.1390796 246.353705,90.9090723 C246.891856,90.6504516 247.815187,90.6548536 247.669919,91.3041566 C247.523551,91.9523591 247.313353,92.1845675 247.203302,92.590657 C247.094351,92.995646 247.204402,93.7990209 247.646809,93.6372454 C248.089215,93.4743694 252.201834,88.778478 249.297579,85.1203709 C246.393324,81.4611632 237.733382,83.715015 240.460455,87.5415007 C240.940279,88.215015 243.344901,88.5946922 244.698533,88.251332" id="Fill-159" fill="#2B478B"></path>
            <path d="M235.647909,123.638346 C235.647909,123.638346 240.935877,124.746563 243.456053,124.405404 C246.850037,123.945389 249.858841,123.868353 253.034923,122.154854 C253.034923,122.154854 251.347836,113.770041 251.243287,113.362851 C251.094718,112.776277 250.015114,108.270774 249.016948,104.102029 C248.105723,100.28985 247.261629,96.7594024 247.261629,96.7594024 C247.261629,96.7594024 244.744754,98.547737 243.27777,97.9171427 C241.810785,97.2854479 241.998973,96.5723151 241.998973,96.5723151 C241.998973,96.5723151 241.039325,96.1849343 240.589215,96.3280011 C240.139105,96.4699673 238.861409,95.7458294 238.861409,95.7458294 C238.861409,95.7458294 237.451651,96.8364384 237.397726,99.1783312 C237.388921,99.5238925 237.409831,99.8991676 237.47036,100.300855 L238.489435,101.475103 C238.489435,101.475103 236.189362,115.514355 235.647909,123.638346" id="Fill-160" fill="#EE9849"></path>
            <path d="M231.398826,137.733724 L238.476229,137.733724 C238.476229,137.733724 238.611592,136.581486 238.448716,135.597627 C238.428907,135.477671 238.367278,135.370921 238.273734,135.275176 C237.859941,135.416042 237.250257,135.515088 236.573441,135.271875 C236.018782,135.072682 235.60719,134.76894 235.321056,134.492711 C235.248423,134.563144 233.78584,135.957495 233.110125,135.957495 C232.416801,135.957495 231.358107,136.29095 231.398826,137.733724" id="Fill-161" fill="#AA443E"></path>
            <path d="M248.87168,131.464098 C250.299046,132.967399 251.739618,134.285815 252.273368,134.935118 L254.687894,133.774076 C254.687894,133.774076 253.839398,131.33974 252.583712,129.131009 C252.152311,129.803423 251.018782,131.185668 248.87168,131.464098" id="Fill-162" fill="#FFFFFF"></path>
            <path d="M251.749523,134.311127 C251.749523,134.311127 251.837564,135.847443 251.325825,136.051039 C250.814087,136.254634 249.858841,136.758669 249.858841,137.733724 L253.404696,137.733724 C253.404696,137.733724 255.848936,136.530862 256.175789,136.020224 C256.501541,135.509586 254.545928,133.328368 254.545928,133.328368 C254.545928,133.328368 253.345268,134.656688 251.749523,134.311127" id="Fill-163" fill="#AA443E"></path>
            <path d="M245.883786,109.338273 C245.883786,109.338273 244.332062,109.048837 243.724578,109.446123 C243.117095,109.843408 242.937711,110.465198 243.374615,110.719417 C244.744754,111.516189 246.133602,110.634678 246.133602,110.634678 L245.883786,109.338273" id="Fill-164" fill="#FFB27D"></path>
            <path d="M247.198899,97.2458294 C247.198899,97.2458294 251.980631,98.2583019 253.865811,105.691171 C254.050697,106.41861 253.860308,107.194472 253.357373,107.751332 C252.490169,108.713181 250.578577,110.117436 246.133602,110.634678 C245.648276,110.691904 245.583346,109.46043 245.583346,109.46043 C245.631768,109.558375 248.603155,107.541134 249.867645,106.456027 C250.096552,106.260136 250.086647,105.848544 249.92157,105.596526 C249.494571,104.943922 248.777036,103.816996 248.536023,103.238126 C248.18496,102.394032 245.862876,97.6288081 247.198899,97.2458294" id="Fill-165" fill="#FFB27D"></path>
            <path d="M247.261629,96.7594024 C247.261629,96.7594024 250.07234,96.9596959 252.36471,100.015822 C252.36471,100.015822 251.588848,102.827634 247.947249,103.578185 C247.947249,103.578185 245.703302,98.5158221 247.261629,96.7594024" id="Fill-166" fill="#EE9849"></path>
            <path d="M247.947249,84.0033496 C247.947249,84.0033496 250.652311,83.267106 252.47036,85.2414273 C254.288408,87.2157487 251.640572,90.8353378 254.182759,92.8162623 C256.724945,94.7982872 255.720176,96.2773775 254.687894,96.7594024 C252.36471,97.8445088 248.815554,96.4941786 249.537491,94.662924 C250.925238,91.1423811 248.87168,88.4615301 248.87168,88.4615301 L247.947249,84.0033496" id="Fill-167" fill="#2B478B"></path>
            <path d="M210.960088,114.048471 C210.956787,114.071581 210.954585,114.093592 210.952384,114.114501 C210.946882,114.15522 210.94248,114.191537 210.941379,114.223452 C210.661849,116.831669 210.567205,119.57635 209.869479,122.033797 C208.048129,128.442088 205.326559,129.023159 204.616728,122.367253 C204.018048,116.756835 203.597652,111.188236 201.804916,105.868353 C200.756126,102.756101 199.924138,99.7924178 199.267131,97.0147216 C197.124431,87.9519923 196.836097,80.8888962 196.879017,77.2109798 C196.899927,75.3962329 197.002274,74.4046702 197.002274,74.4046702 L209.323624,76.0587421 L209.898092,76.135778 C209.82766,81.6240392 209.805649,89.0767172 209.802348,94.9039365 C209.801247,96.3092924 209.801247,97.620004 209.801247,98.7865484 C209.802348,100.403203 209.804549,101.742528 209.80675,102.66806 C209.80785,103.563878 209.808951,104.072315 209.808951,104.072315 C210.515481,105.629542 210.901761,107.377157 211.04923,109.223819 C211.173588,110.779945 211.128467,112.406504 210.960088,114.048471" id="Fill-168" fill="#2B478B"></path>
            <path d="M210.960088,113.856981 C211.150477,111.683467 207.279971,104.185668 207.279971,104.185668 L209.80675,102.528295 C209.80785,103.420811 209.808951,103.927047 209.808951,103.927047 C210.515481,105.47657 210.901761,107.216482 211.04923,109.05434 C211.173588,110.603863 211.128467,112.222719 210.960088,113.856981" id="Fill-169" fill="#233862"></path>
            <path d="M208.295745,131.585154 C208.584079,130.115969 209.559134,125.395866 210.02245,121.452726 C208.116361,122.054707 205.176889,122.078918 204.530888,121.560576 C204.70807,124.320664 206.046295,130.583687 203.925605,132.672462 C202.746955,133.833504 201.614527,134.831669 200.061702,135.238859 C199.887821,135.283981 199.71504,135.329102 199.541159,135.372022 C198.164417,135.717583 196.875715,136.014722 197.001174,136.343775 C197.14314,136.714648 198.096185,137.565345 200.786941,137.493812 C203.477696,137.421178 202.952751,136.955661 204.880851,137.14605 C206.810051,137.336438 208.503742,137.301222 208.557667,136.135778 C208.576376,135.724186 208.486134,135.320297 208.394791,134.925213 C208.224211,134.198874 208.133969,132.41054 208.295745,131.585154" id="Fill-170" fill="#FFB27D"></path>
            <path d="M204.880851,137.14605 C202.952751,136.955661 203.477696,137.421178 200.786941,137.493812 C198.096185,137.565345 197.14314,136.714648 197.001174,136.343775 C196.875715,136.014722 198.164417,135.718683 199.541159,135.372022 L199.558767,135.396233 C199.558767,135.396233 201.318489,136.275543 203.52832,136.029028 C205.329861,135.829835 207.152311,135.072682 208.394791,134.925213 C208.486134,135.320297 208.576376,135.724186 208.557667,136.135778 C208.503742,137.301222 206.810051,137.336438 204.880851,137.14605" id="Fill-171" fill="#F99746"></path>
            <path d="M209.898092,76.1181698 C209.82766,81.5811192 209.805649,88.9996812 209.802348,94.8004882 C209.801247,96.199241 207.279971,103.025727 207.279971,104.185668 C205.22201,101.377157 203.405062,81.9288815 200.554732,77.0139879 C200.575642,75.2069446 197.002274,74.3947656 197.002274,74.3947656 L209.323624,76.0411339 L209.898092,76.1181698" id="Fill-172" fill="#233862"></path>
            <path d="M211.90763,23.3345675 C211.980264,23.0793584 212.907997,20.200745 217.398092,21.1561009 C217.398092,21.1561009 215.149743,20.8729387 214.533456,21.7390429 C214.533456,21.7390429 216.315187,20.922902 217.431108,21.6057707 C218.547029,22.2886394 218.729714,24.587062 218.563536,25.2865484 C218.397359,25.9860348 217.164784,28.0678764 216.348202,28.0678764 C216.038958,28.0678764 215.708804,27.9650884 215.417168,27.8373188 C215.542627,28.2075315 215.654879,28.6096592 215.748423,29.0505249 C216.615627,33.1288081 213.902861,36.2287348 212.500807,35.4626673 C211.601687,34.971288 210.92157,36.5451324 210.92157,36.5451324 L203.457887,26.6521757 C203.457887,26.6521757 208.658914,20.4029094 211.90763,23.3345675" id="Fill-173" fill="#212121"></path>
            <path d="M200.181658,71.4145748 C203.567938,60.589153 199.857007,58.2358147 200.210271,52.8186467 C200.562436,47.4014787 204.756493,41.5770106 204.756493,41.5770106 C204.756493,41.5770106 204.969993,41.5553305 205.332062,41.5225352 C205.613793,41.374296 205.688628,40.1965264 205.685326,38.9537164 C205.682025,37.4625205 205.567572,35.8795418 205.567572,35.8795418 L210.598019,34.883467 L210.896258,34.8245895 C210.884153,38.3256533 211.806383,40.624186 212.474395,41.1592557 C213.102788,41.2312293 215.781438,41.5685367 217.433309,42.2588888 C218.055099,42.5187201 218.530521,42.8288448 218.696698,43.1927847 C220.077843,46.229982 221.456787,53.895059 222.426339,59.3628507 C222.965591,62.4103929 223.378283,64.7758367 223.592883,65.2771207 C224.192663,66.6757634 226.025018,74.3705543 227.591049,78.1673261 L225.591416,78.767106 C225.591416,78.767106 218.996038,67.8246995 218.396258,64.9772307 C218.201467,64.0503782 217.721643,62.1952425 217.161482,60.1170326 C217.076742,59.8026159 216.990902,59.4829167 216.902861,59.1605763 C215.9146,61.8405469 215.410565,63.0808257 215.438078,64.238566 C215.476596,65.8866951 216.594718,67.3668859 218.930007,72.60423 C220.219809,75.4985807 196.723844,82.4703342 200.181658,71.4145748" id="Fill-174" fill="#FFE0CB" fill-rule="nonzero"></path>
            <path d="M205.567572,36.6769739 C205.567572,36.6769739 205.682025,38.2599527 205.685326,39.7511486 C208.50044,39.6718015 209.988335,37.1041933 210.598019,35.6808991 L205.567572,36.6769739" id="Fill-175" fill="#EEC8AF" fill-rule="nonzero"></path>
            <path d="M211.117461,35.1332835 C211.117461,35.1332835 212.59215,32.802726 212.946515,30.8098059 C213.198533,29.3869519 212.474395,24.1130708 207.174321,24.8726453 C207.174321,24.8726453 205.634703,25.024296 204.188628,26.0015521 C203.037491,26.7786247 201.376816,28.4564677 203.233382,33.0585954 L203.716508,34.6131808 L211.117461,35.1332835" id="Fill-176" fill="#212121"></path>
            <path d="M204.627733,38.0889329 C204.627733,38.0889329 211.286941,38.1988742 211.291343,34.0505983 C211.296845,29.9023224 212.158547,27.1227553 207.907263,26.8771207 C203.654879,26.6315961 202.827293,28.2135844 202.489435,29.5978103 C202.150477,30.9821464 202.895525,37.9534596 204.627733,38.0889329" id="Fill-177" fill="#FFE0CB" fill-rule="nonzero"></path>
            <path d="M207.961189,106.03343 C208.385987,106.800488 212.586647,111.662557 216.808217,117.04737 C217.169186,117.508485 217.544461,118.004817 217.92854,118.52646 C220.415701,121.899534 223.281438,126.298287 224.992737,128.438786 C226.547762,130.385595 227.93661,127.940253 227.150844,126.201442 C225.909464,123.456761 224.852971,118.65522 223.65011,115.122572 C223.372781,114.305991 223.086647,113.556541 222.789508,112.916042 C221.495304,110.135044 218.980631,107.089923 215.924505,104.076717 C215.394057,103.553973 220.319956,91.0411339 219.968892,81.400635 C219.831328,77.5796519 219.274468,74.2208844 218.011079,72.1761302 L205.482832,72.805624 C205.482832,72.805624 203.824358,98.5609431 207.961189,106.03343" id="Fill-178" fill="#2B478B"></path>
            <path d="M202.687528,27.291354 C203.715407,26.0457927 204.49237,26.3165191 204.928173,26.6906937 C208.49934,24.7099893 210.916067,27.6501214 210.916067,27.6501214 C211.361775,30.6265704 213.507777,32.3317061 213.507777,32.3317061 C213.507777,32.3317061 212.29391,33.081376 209.495304,32.3618602 C208.642406,32.1423078 207.87865,31.5362549 207.230448,30.8004516 C208.362876,32.6972968 209.902494,34.0635844 209.902494,34.0635844 C206.560235,32.5184633 205.218709,27.8695638 205.084446,27.3780745 C204.678357,27.7431148 203.877183,28.5362549 203.632869,29.3135477 C203.300514,30.3699307 203.150844,32.5444354 202.516948,32.470591 C202.516948,32.470591 201.143507,29.1625572 202.687528,27.291354" id="Fill-179" fill="#212121"></path>
            <path d="M227.425972,77.8107597 C227.425972,77.8107597 228.034556,79.2425279 228.667351,79.6420143 C229.300147,80.0426012 230.199266,81.0077516 230.033089,81.7737091 C229.865811,82.540767 229.699633,83.7392263 228.90066,83.7392263 C228.100587,83.7392263 226.235216,80.2087788 226.001908,79.5429681 C225.769699,78.8760568 225.569406,78.7428947 225.569406,78.7428947 L227.425972,77.8107597" id="Fill-180" fill="#FFE0CB" fill-rule="nonzero"></path>
            <path d="M220.49934,77.1229387 C220.52135,77.55434 220.498239,77.8999013 220.422304,78.1464163 C220.154879,79.0026159 219.240352,79.3932982 217.026119,79.1588888 C215.673588,79.0158221 215.070506,76.7003415 214.801981,74.7249196 C213.989802,77.5510385 212.851871,79.1368786 211.381585,79.4703342 C209.235583,79.9578617 197.641673,80.7766438 196.932942,75.522792 C196.153778,69.7428947 199.258327,60.0339439 199.385987,54.516299 C199.067938,52.5598059 198.958988,50.8617135 198.993103,49.4030928 C199.083346,45.4726086 200.213573,43.2694904 201.081878,42.3824765 C201.328393,42.1895565 201.573808,42.0692703 202.562069,41.8962696 C203.066104,41.8086687 203.76493,41.7069813 204.756493,41.5738191 C204.756493,41.5738191 205.182392,41.517803 205.173588,41.5331001 C204.990902,41.8673261 203.020983,44.8294684 203.211372,45.8043034 C203.411665,46.8245895 210.9865,46.6773408 211.58628,46.116409 C212.18496,45.5553672 213.74989,41.3235623 213.74989,41.3235623 C213.74989,41.3235623 216.829127,41.6671427 218.334629,42.7857047 C218.334629,42.7857047 218.329127,42.7926379 218.318122,42.805624 C218.500807,42.9387861 218.637271,43.0802021 218.714307,43.2309725 C220.321056,46.3550004 221.925605,54.2392997 223.053632,59.8633643 C220.318855,61.4025425 217.92964,60.9443987 217.187894,60.7410238 C218.157447,67.2183166 220.355172,74.1724618 220.49934,77.1229387" id="Fill-181" fill="#EE9849"></path>
            <path d="M206.541526,35.6397399 C206.541526,35.6397399 206.414967,36.1503782 205.141673,36.0563943 C205.141673,36.0563943 204.073074,35.9775976 204.111592,35.4151251 C204.111592,35.4151251 205.153778,35.0269739 206.541526,35.6397399" id="Fill-182" fill="#FFFFFF"></path>
            <path d="M217.92854,118.52646 C220.415701,121.899534 223.281438,126.298287 224.992737,128.438786 C226.547762,130.385595 227.93661,127.940253 227.150844,126.201442 C225.909464,123.456761 224.852971,118.65522 223.65011,115.122572 C222.848936,116.305624 221.211372,117.834237 217.92854,118.52646" id="Fill-183" fill="#FFB27D"></path>
            <path d="M226.001908,79.5429681 C226.001908,79.5429681 226.22091,81.1541199 226.645708,81.5260935 C227.070506,81.8980671 227.132135,82.5671794 227.567938,82.2073114 C228.003742,81.8474435 226.001908,79.5429681 226.001908,79.5429681" id="Fill-184" fill="#FFE0CB" fill-rule="nonzero"></path>
            <path d="M230.211372,127.007018 C231.222744,127.640914 230.417168,129.085888 229.294644,130.614501 C228.17212,132.143115 228.845635,131.936218 227.580044,134.239593 C226.315554,136.542968 225.08628,136.917143 224.685693,136.84781 C224.330227,136.787282 224.703302,135.552506 225.075275,134.217583 C225.122597,134.050305 225.168819,133.880826 225.21394,133.711347 C225.618929,132.19814 225.090682,130.772975 224.838665,129.159623 C224.599853,127.63211 222.311886,124.6112 222.311886,124.6112 L223.938445,121.410906 C223.938445,121.410906 225.950183,124.189703 226.858107,125.315529 C227.392957,125.976937 228.32179,126.309292 229.053632,126.532697 C229.449817,126.655954 229.854806,126.782513 230.211372,127.007018" id="Fill-185" fill="#FFB27D"></path>
            <path d="M229.294644,130.614501 C228.17212,132.143115 228.845635,131.936218 227.580044,134.239593 C226.315554,136.542968 225.08628,136.917143 224.685693,136.84781 C224.330227,136.787282 224.703302,135.552506 225.075275,134.217583 L225.10609,134.215382 C225.10609,134.215382 226.759061,133.176497 227.631768,131.19007 C228.3438,129.571215 228.570506,127.65412 229.053632,126.532697 C229.449817,126.655954 229.854806,126.782513 230.211372,127.007018 C231.222744,127.640914 230.417168,129.085888 229.294644,130.614501" id="Fill-186" fill="#F99746"></path>
            <path d="M187.711739,60.6898499 C187.535657,61.3245161 187.47843,62.0440319 187.908731,63.3169959 C188.340132,64.58996 188.67799,64.6682065 189.114894,63.8321464 C189.551798,62.9960862 189.773001,62.1640979 190.303448,61.1950957 C190.599486,60.6548536 190.102054,59.8417942 189.354806,59.6707744 C188.761629,59.5350811 187.945048,59.8514787 187.711739,60.6898499" id="Fill-187" fill="#FFE0CB" fill-rule="nonzero"></path>
            <path d="M189.312986,59.6620803 C189.312986,59.6620803 190.621497,59.9134376 190.841599,60.477891 C191.060602,61.0423444 190.716141,61.857715 190.684226,62.3280745 C190.653412,62.798434 190.37058,62.6337971 190.315554,62.429982 C190.261629,62.2261669 190.065737,60.869894 190.065737,60.869894 L189.312986,59.6620803" id="Fill-188" fill="#FFE0CB" fill-rule="nonzero"></path>
            <path d="M266.718908,137.881084 L0.281001498,137.881084 C0.126446126,137.881084 0,137.753691 0,137.597886 L0,137.548395 C0,137.393507 0.126446126,137.266114 0.281001498,137.266114 L266.718908,137.266114 C266.873554,137.266114 267,137.393507 267,137.548395 L267,137.597886 C267,137.753691 266.873554,137.881084 266.718908,137.881084" id="Fill-212" fill="#2E3552"></path>
            <polyline id="Fill-213" fill="#F9DDBF" points="115.385987 52.7213613 117.51328 76.459329 135.59912 76.459329 132.539692 52.986475 115.385987 52.7213613"></polyline>
            <polyline id="Fill-214" fill="#F2CFAF" points="111.462656 52.3897766 113.523918 53.4506717 115.385987 52.7213613 117.51328 76.459329 110.000073 76.459329 111.462656 52.3897766"></polyline>
            <path d="M157.058034,77.2131808 L157.058034,77.3584486 C157.058034,77.8316695 156.673955,78.2157487 156.200734,78.2157487 L25.4625825,78.2157487 L25.4625825,78.2025425 C25.4665444,77.8382725 25.4639032,77.4696005 25.4532282,77.0976269 C25.4532282,77.0965264 25.4532282,77.0965264 25.4532282,77.0965264 C25.4466251,76.8511119 25.4359501,76.6056973 25.4226339,76.3569813 L156.200734,76.3569813 C156.673955,76.3569813 157.058034,76.73996 157.058034,77.2131808" id="Fill-215" fill="#A05C35"></path>
            <path d="M123.585913,69.6999747 L123.542993,69.6746629 C123.549596,69.6625572 124.256126,68.4839072 125.471093,67.1456827 C126.593617,65.9109064 128.391856,64.2828067 130.58628,63.5426012 L130.602788,63.5899233 C128.418269,64.326497 126.626632,65.9483239 125.508511,67.1786981 C124.296845,68.513621 123.592517,69.6889695 123.585913,69.6999747" id="Fill-216" fill="#FFA561"></path>
            <path d="M127.00741,63.3743327 C127.00741,63.3743327 126.681658,64.2132542 126.702568,64.564318 C126.722377,64.9153819 127.233015,65.5445455 127.233015,65.5445455 C127.233015,65.5445455 127.621497,64.7922344 127.613793,64.5141346 C127.60719,64.2360348 127.00741,63.3743327 127.00741,63.3743327" id="Fill-217" fill="#FFA561"></path>
            <path d="M129.164417,66.4215447 C129.164417,66.4215447 128.617461,65.7062109 128.307117,65.5411339 C127.996772,65.3759468 127.193397,65.4845675 127.193397,65.4845675 C127.193397,65.4845675 127.634703,66.2069446 127.875715,66.3456093 C128.116728,66.484274 129.164417,66.4215447 129.164417,66.4215447" id="Fill-218" fill="#FFA561"></path>
            <path d="M128.577843,62.7829167 C128.577843,62.7829167 127.982465,63.4577516 127.881218,63.7942887 C127.77887,64.1309358 128.040792,64.8976636 128.040792,64.8976636 C128.040792,64.8976636 128.664784,64.3253965 128.753925,64.0619336 C128.843067,63.7985807 128.577843,62.7829167 128.577843,62.7829167" id="Fill-219" fill="#FFA561"></path>
            <path d="M130.098753,65.5719483 C130.098753,65.5719483 129.480264,64.9176929 129.154512,64.7857414 C128.82876,64.6537898 128.040792,64.8452791 128.040792,64.8452791 C128.040792,64.8452791 128.554732,65.517913 128.808951,65.6310458 C129.063169,65.7436284 130.098753,65.5719483 130.098753,65.5719483" id="Fill-220" fill="#FFA561"></path>
            <path d="M130.09325,62.4803855 C130.09325,62.4803855 129.341599,62.9361082 129.14901,63.2201508 C128.95642,63.5040833 128.977329,64.2948023 128.977329,64.2948023 C128.977329,64.2948023 129.724578,63.942858 129.885253,63.7234156 C130.044828,63.5040833 130.09325,62.4803855 130.09325,62.4803855" id="Fill-221" fill="#FFA561"></path>
            <path d="M131.063903,64.5538632 C131.063903,64.5538632 130.337564,64.0595125 129.998606,64.0018455 C129.660748,63.9441786 128.949817,64.2915007 128.949817,64.2915007 C128.949817,64.2915007 129.580411,64.82558 129.845635,64.8801654 C130.111959,64.9347509 131.063903,64.5538632 131.063903,64.5538632" id="Fill-222" fill="#FFA561"></path>
            <path d="M132.008144,62.6981772 C132.008144,62.6981772 131.129934,62.7182065 130.82179,62.8680965 C130.512546,63.0179864 130.13617,63.7138411 130.13617,63.7138411 C130.13617,63.7138411 130.959354,63.7817428 131.20807,63.6714714 C131.455686,63.5611999 132.008144,62.6981772 132.008144,62.6981772" id="Fill-223" fill="#FFA561"></path>
            <path d="M126.082979,64.20423 C126.082979,64.20423 125.762729,65.0451324 125.783639,65.395646 C125.803448,65.7458294 126.307483,66.3698206 126.307483,66.3698206 C126.307483,66.3698206 126.688261,65.6148683 126.681658,65.3370987 C126.675055,65.0594391 126.082979,64.20423 126.082979,64.20423" id="Fill-224" fill="#FFA561"></path>
            <path d="M128.366544,66.8804589 C128.366544,66.8804589 127.687528,66.2894831 127.35077,66.1882359 C127.015114,66.0869886 126.255759,66.3445088 126.255759,66.3445088 C126.255759,66.3445088 126.833529,66.9629974 127.096552,67.052139 C127.359574,67.1412806 128.366544,66.8804589 128.366544,66.8804589" id="Fill-225" fill="#FFA561"></path>
            <path d="M124.995671,65.0090356 C124.995671,65.0090356 124.625899,65.9670326 124.646809,66.3676196 C124.668819,66.767106 125.239985,67.4824398 125.239985,67.4824398 C125.239985,67.4824398 125.67909,66.6229387 125.672487,66.3059908 C125.666985,65.9879424 124.995671,65.0090356 124.995671,65.0090356" id="Fill-226" fill="#FFA561"></path>
            <path d="M127.674321,67.6486174 C127.674321,67.6486174 126.800514,67.1093657 126.403228,67.0565411 C126.005943,67.0048169 125.198166,67.4362183 125.198166,67.4362183 C125.198166,67.4362183 125.963023,68.024993 126.276669,68.0767172 C126.589215,68.1284413 127.674321,67.6486174 127.674321,67.6486174" id="Fill-227" fill="#FFA561"></path>
            <path d="M123.81372,65.8602828 C123.81372,65.8602828 123.473661,66.9740026 123.530888,67.4241126 C123.588114,67.8742227 124.293544,68.6346775 124.293544,68.6346775 C124.293544,68.6346775 124.719442,67.6277076 124.685326,67.2700407 C124.652311,66.9123738 123.81372,65.8602828 123.81372,65.8602828" id="Fill-228" fill="#FFA561"></path>
            <path d="M127.091049,68.4740026 C127.091049,68.4740026 126.026853,68.0029827 125.57234,68.0062843 C125.117828,68.0084853 124.278136,68.6159688 124.278136,68.6159688 C124.278136,68.6159688 125.22788,69.160723 125.586647,69.1706276 C125.945415,69.1805323 127.091049,68.4740026 127.091049,68.4740026" id="Fill-229" fill="#FFA561"></path>
            <path d="M121.995671,69.2025425 L122.040792,69.2245528 C122.047395,69.2113466 122.631768,67.9688668 123.065371,66.2135477 C123.464857,64.5938118 123.81482,62.1932615 123.205136,59.9581185 L123.156713,59.9712146 C123.763096,62.1956827 123.415334,64.5867685 123.016948,66.2003415 C122.585547,67.9512586 122.002274,69.1904369 121.995671,69.2025425" id="Fill-230" fill="#FFA561"></path>
            <path d="M125.340132,62.8355213 C125.340132,62.8355213 124.825092,63.5738558 124.52245,63.7525792 C124.219809,63.9311926 123.412032,63.8580084 123.412032,63.8580084 C123.412032,63.8580084 123.821423,63.1169226 124.055833,62.9675829 C124.290242,62.8181331 125.340132,62.8355213 125.340132,62.8355213" id="Fill-231" fill="#FFA561"></path>
            <path d="M121.608291,62.7437384 C121.608291,62.7437384 122.50631,62.7989842 122.816654,62.9646115 C123.126999,63.1302388 123.484666,63.8574582 123.484666,63.8574582 C123.484666,63.8574582 122.639472,63.8943254 122.389655,63.7716181 C122.139839,63.6490209 121.608291,62.7437384 121.608291,62.7437384" id="Fill-232" fill="#FFA561"></path>
            <path d="M124.954952,61.2019189 C124.954952,61.2019189 124.727146,62.0725352 124.504842,62.3448023 C124.281438,62.6170693 123.498973,62.8269373 123.498973,62.8269373 C123.498973,62.8269373 123.626632,61.9903268 123.795011,61.7691236 C123.96449,61.5479204 124.954952,61.2019189 124.954952,61.2019189" id="Fill-233" fill="#FFA561"></path>
            <path d="M121.792076,61.4947656 C121.792076,61.4947656 122.680191,61.6432249 122.971827,61.8402168 C123.262362,62.0372087 123.542993,62.7975535 123.542993,62.7975535 C123.542993,62.7975535 122.697799,62.7463797 122.462289,62.5983606 C122.226779,62.4504516 121.792076,61.4947656 121.792076,61.4947656" id="Fill-234" fill="#FFA561"></path>
            <path d="M124.361775,59.7758734 C124.361775,59.7758734 124.402494,60.653533 124.273734,60.9719116 C124.146075,61.2902902 123.478063,61.7135477 123.478063,61.7135477 C123.478063,61.7135477 123.353705,60.8968566 123.446148,60.6416475 C123.538591,60.3865484 124.361775,59.7758734 124.361775,59.7758734" id="Fill-235" fill="#FFA561"></path>
            <path d="M122.09912,60.1260568 C122.09912,60.1260568 122.9146,60.4534596 123.151211,60.7021757 C123.387821,60.9510018 123.495671,61.7346775 123.495671,61.7346775 C123.495671,61.7346775 122.701101,61.5090723 122.50741,61.3186834 C122.31372,61.1282946 122.09912,60.1260568 122.09912,60.1260568" id="Fill-236" fill="#FFA561"></path>
            <path d="M123.113793,58.307018 C123.113793,58.307018 123.585913,59.0473334 123.634336,59.3872821 C123.681658,59.7272307 123.314087,60.4274875 123.314087,60.4274875 C123.314087,60.4274875 122.799046,59.7818162 122.751724,59.5143914 C122.704402,59.2468566 123.113793,58.307018 123.113793,58.307018" id="Fill-237" fill="#FFA561"></path>
            <path d="M125.166251,64.0657854 C125.166251,64.0657854 124.646809,64.8005983 124.344167,64.9789915 C124.042627,65.1572747 123.243654,65.0869519 123.243654,65.0869519 C123.243654,65.0869519 123.657447,64.3494978 123.891856,64.2004882 C124.126266,64.0514787 125.166251,64.0657854 125.166251,64.0657854" id="Fill-238" fill="#FFA561"></path>
            <path d="M121.67212,63.6622271 C121.67212,63.6622271 122.541526,63.8968566 122.812252,64.1192703 C123.084079,64.3416841 123.293177,65.1157854 123.293177,65.1157854 C123.293177,65.1157854 122.457887,64.9809725 122.237784,64.8121537 C122.016581,64.6433349 121.67212,63.6622271 121.67212,63.6622271" id="Fill-239" fill="#FFA561"></path>
            <path d="M128.266398,61.4110165 C128.266398,61.4110165 127.811886,62.1624472 127.527953,62.3554772 C127.244021,62.5486174 126.452751,62.5278177 126.452751,62.5278177 C126.452751,62.5278177 126.804916,61.7802388 127.023918,61.6201141 C127.24292,61.4598793 128.266398,61.4110165 128.266398,61.4110165" id="Fill-240" fill="#FFA561"></path>
            <path d="M126.19303,60.4419042 C126.19303,60.4419042 126.687161,61.167803 126.745488,61.5061009 C126.803815,61.8446188 126.456053,62.5554406 126.456053,62.5554406 C126.456053,62.5554406 125.922304,61.9253965 125.867278,61.6594024 C125.812252,61.3935183 126.19303,60.4419042 126.19303,60.4419042" id="Fill-241" fill="#FFA561"></path>
            <path d="M128.047395,59.4955726 C128.047395,59.4955726 128.028687,60.3738925 127.879017,60.6829167 C127.729347,60.9918309 127.033822,61.3684266 127.033822,61.3684266 C127.033822,61.3684266 126.96449,60.5452425 127.075642,60.2969666 C127.185693,60.0486907 128.047395,59.4955726 128.047395,59.4955726" id="Fill-242" fill="#FFA561"></path>
        </g>
    </g>
</svg>