<?xml version="1.0" encoding="UTF-8"?>
<svg width="251px" height="153px" viewBox="0 0 251 153" version="1.1" xmlns="http://www.w3.org/2000/svg" xmlns:xlink="http://www.w3.org/1999/xlink">
    <title>Group 205</title>
    <defs>
        <polygon id="path-1" points="0.287874487 0.269783296 20.9530403 0.269783296 20.9530403 46.7242602 0.287874487 46.7242602"></polygon>
        <polygon id="path-3" points="0 0.0850631841 12.1693276 0.0850631841 12.1693276 24.4369721 0 24.4369721"></polygon>
        <polygon id="path-5" points="0.00689378109 0.0157256874 12.5356368 0.0157256874 12.5356368 22.383346 0.00689378109 22.383346"></polygon>
        <polygon id="path-7" points="0.0542125666 0.0732636816 8.55164981 0.0732636816 8.55164981 7.24678952 0.0542125666 7.24678952"></polygon>
    </defs>
    <g id="Onboarding" stroke="none" stroke-width="1" fill="none" fill-rule="evenodd">
        <g id="1.3-Slide-1" transform="translate(-54.000000, -84.000000)">
            <g id="Group-130" transform="translate(54.000000, 84.000000)">
                <path d="M245.900172,85.4099039 C245.74328,88.1574908 245.434228,90.9195778 244.979204,93.6783186 C243.508569,102.612995 240.505414,111.487812 236.111343,119.544674 C228.20522,134.063012 215.79582,145.927456 199.756789,150.727368 C178.927999,156.962048 157.636177,148.020307 136.727303,147.090812 C120.779641,146.384768 105.472652,152.400459 89.5322702,152.363279 C75.3064167,152.329445 60.920395,150.273774 47.5135838,145.395785 C20.2194566,135.46878 1.17399472,113.279878 0.0710178522,83.5657861 C-0.893631882,57.5362116 7.9119821,25.8441542 30.6121924,10.5855663 C54.9759686,-5.79213343 87.1006248,1.88549426 110.241298,16.6570269 C123.655389,25.2232516 137.575467,33.7820405 154.047316,33.2131896 C169.900334,32.6666466 184.836024,25.4017147 200.816084,26.0746689 C221.139251,26.9335222 236.340675,42.9580139 242.594882,61.4289361 C245.193976,69.0954098 246.365752,77.3232985 245.900172,85.4099039" id="Fill-1" fill="#DBEDFC"></path>
                <path d="M13.5563774,126.317741 C13.3658438,125.908329 13.5372887,125.449859 13.9123465,125.221506 C14.7731059,124.697741 16.0683102,125.250094 16.8113559,125.749153 C16.9941126,125.871271 17.165204,126.007153 17.3253371,126.153624 C17.3914406,126.185388 17.4561301,126.218918 17.5197591,126.254212 C17.3705844,125.627388 17.233782,124.996682 17.1111194,124.363153 C16.6614742,124.035624 16.2602578,123.686565 15.7257739,123.452212 C15.1347309,123.1928 14.5178828,122.946094 13.8900763,122.792565 C13.3347363,122.656682 12.7323815,122.675741 12.3460118,122.185153 C12.0317551,121.786329 12.007364,121.247035 12.3180858,120.841153 C13.1053183,119.813035 14.5242457,120.590918 15.3164272,121.172212 C15.9067632,121.605271 16.409786,122.120565 16.8194863,122.704682 C16.7152054,122.040094 16.6264782,121.372329 16.5501234,120.703859 C16.2362202,120.315624 15.8562134,119.979976 15.4288384,119.728329 C14.8059809,119.361624 14.0898008,119.175271 13.4273519,118.893976 C12.433325,118.471859 10.5612175,117.107388 11.7044191,115.886565 C12.7550051,114.764918 14.4171368,116.031624 15.2418398,116.797859 C15.6568425,117.183624 16.018114,117.614212 16.3217659,118.079035 C16.3009097,117.727859 16.2850024,117.376682 16.2715696,117.025506 C16.1287578,116.811271 16.050282,116.550094 15.9290333,116.312212 C15.7402672,115.941624 15.5253425,115.581976 15.2793102,115.246329 C14.7692175,114.549624 14.1619137,113.946094 13.5581449,113.332682 C12.9897255,112.754918 12.4548882,112.136918 12.1643156,111.369976 C11.9278277,110.744918 11.6924003,109.725271 12.3389419,109.262212 C13.0024513,108.786447 13.8416476,109.301741 14.3602242,109.760565 C14.9452578,110.277976 15.3645024,110.953859 15.7491046,111.626212 C15.9449406,111.968212 16.1273438,112.319388 16.2956073,112.677976 C16.3129285,112.322918 16.3330777,111.967506 16.3581758,111.612447 C16.3988277,111.040329 16.4493774,110.468918 16.509825,109.898212 C16.5723935,109.310918 16.5921892,108.685506 16.8470589,108.1448 C17.0782444,107.654918 17.8704258,107.609388 17.9757672,108.229153 C18.1348398,109.166565 17.8633559,110.207035 17.7852336,111.149741 C17.7325629,111.788565 17.6936785,112.428094 17.6657524,113.067976 C18.019247,112.3568 18.3688532,111.593035 18.8542013,110.974329 C19.6534527,109.956447 21.6535253,109.400565 22.4393438,110.780918 C23.2990427,112.291506 21.2261503,113.383153 20.2331839,114.037506 C19.5152363,114.5108 18.7817349,115.012329 18.2306368,115.681153 C18.0044003,115.955388 17.8046758,116.2568 17.6657524,116.584329 C17.6537336,116.612565 17.6441892,116.642212 17.6339379,116.671506 C17.6434823,117.031506 17.6558546,117.391859 17.6724688,117.751506 C17.9107242,117.287741 18.2087202,116.853624 18.5646892,116.461153 C19.4537282,115.482094 20.8708882,114.650918 22.132864,115.520212 C22.5874581,115.833624 22.9303478,116.416329 22.7907175,116.980682 C22.6330589,117.6188 21.7553317,117.966447 21.2226153,118.222682 C20.5011328,118.569976 19.7351099,118.736918 18.9878223,119.008682 C18.6194809,119.142447 18.2316973,119.318212 17.9637484,119.615035 C17.9022403,119.683153 17.854872,119.754447 17.8149272,119.828212 C17.824118,119.930212 17.8322484,120.032212 17.8421462,120.134565 C17.9103707,120.8408 17.9930884,121.547035 18.089239,122.251859 C18.381579,121.701976 18.7538089,121.200094 19.2320871,120.795271 C20.1692013,120.001859 21.8440589,119.230329 22.9618089,120.107388 C23.4082726,120.457859 23.675161,121.073741 23.5454285,121.635976 C23.3884769,122.317859 22.758903,122.618212 22.1332175,122.768565 C20.8733626,123.072447 19.0072645,123.069271 18.4201099,124.359271 C18.5699917,125.204212 18.7403761,126.045624 18.9312632,126.882447 C19.1030616,126.427506 19.3703035,126.004682 19.7230911,125.634094 C20.3936704,124.928918 21.6552927,124.226565 22.6327054,124.716447 C23.6900078,125.245859 23.1010858,126.461388 22.3226906,126.924094 C21.7178613,127.283035 21.0342027,127.354682 20.3685723,127.532212 C19.930239,127.649388 19.4908452,127.871035 19.2582457,128.233859 C19.5608371,129.412682 19.9044339,130.579506 20.2908035,131.729741 C20.9977927,133.835035 21.7486153,136.099153 23.149868,137.8568 C23.4432685,138.224212 22.9165616,138.689388 22.5984164,138.338918 C21.2413505,136.841035 20.4378573,134.965153 19.6941046,133.111506 C19.0571073,131.523271 18.5091906,129.896565 18.0418707,128.249388 C17.7265535,128.006918 17.3942685,127.802918 16.9898707,127.6568 C16.3171704,127.413976 15.6066462,127.303153 14.9141503,127.133388 C14.4121879,127.009859 13.7953398,126.830918 13.5563774,126.317741" id="Fill-96" fill="#82B378" transform="translate(17.462269, 123.116920) rotate(-17.000000) translate(-17.462269, -123.116920) "></path>
                <path d="M67.5186769,129.425129 L26.940322,144.944306 C24.4389941,145.901129 22.3544363,144.201012 22.3544363,141.120541 L22.3544363,23.9670118 C22.3544363,20.8865412 24.4389941,19.1864235 26.940322,20.1432471 L67.5186769,35.6624235 C68.8934175,36.1883059 69.9857159,38.3941882 69.9857159,40.5997176 L69.9857159,124.487835 C69.9857159,126.693718 68.8934175,128.8996 67.5186769,129.425129" id="Fill-5" fill="#90AEFF"></path>
                <polygon id="Fill-7" fill="#D0E1FC" points="67.3955901 125.722502 27.1576505 138.308835 27.1576505 30.3088353 67.3955901 44.392642"></polygon>
                <path d="M55.8709583,36.4289412 L43.8341129,32.2935294 C43.4205242,32.1516471 43.0808159,31.5749412 43.0808159,31.0127059 C43.0808159,30.4504706 43.4205242,30.112 43.8341129,30.2598824 L55.8709583,34.5622353 C56.2170296,34.6864706 56.4991183,35.2049412 56.4991183,35.7156471 C56.4991183,36.2267059 56.2170296,36.5478824 55.8709583,36.4289412" id="Fill-11" fill="#649BEA"></path>
                <path d="M235.896544,93.7621059 C234.468426,102.243282 231.552095,110.667988 227.285415,118.316224 C217.574918,124.319753 198.542767,135.003635 178.040079,140.558929 C139.551584,150.991518 105.099998,132.980929 79.3797294,119.089518 C53.6594606,105.1974 27.1544337,111.320929 27.1544337,111.320929 L27.1473638,77.8374 C84.4912617,73.6303412 111.003358,116.142106 148.106154,124.983282 C179.514151,132.465635 223.220227,102.988341 235.896544,93.7621059" id="Fill-15" fill="#F8F8F8"></path>
                <path d="M77.5413099,100.067941 C77.5413099,100.067941 74.7971312,102.130529 76.455728,103.055588 C78.1143247,103.980294 80.6202481,104.258059 81.712193,104.699941 C82.8037844,105.141824 85.068978,106.388412 85.3500062,105.258294 C85.6306809,104.127824 83.6486366,103.123 82.4753879,102.318294 C81.3021392,101.513588 80.6138852,100.828529 80.6138852,100.828529 L77.5413099,100.067941 Z" id="Fill-17" fill="#5B5B5B"></path>
                <path d="M82.1624391,96.8115294 L82.1624391,96.8115294 C82.4554862,96.8838824 82.6354149,97.1824706 82.5629485,97.4750588 L80.6710453,105.090118 C80.5985789,105.382353 80.2995224,105.562353 80.0064754,105.489647 C79.7137819,105.417294 79.5334996,105.118706 79.6063195,104.826471 L81.4982227,97.2114118 C81.5706891,96.9191765 81.8697456,96.7391765 82.1624391,96.8115294" id="Fill-19" fill="#3A216E"></path>
                <path d="M82.8238629,106.945812 L76.9197957,105.483576 C76.3605672,105.345224 76.0169704,104.775576 76.1555403,104.217224 C76.2941102,103.658871 76.865004,103.315812 77.423879,103.454165 L83.3279462,104.9164 C83.8868212,105.054753 84.2307715,105.624753 84.0922016,106.182753 C83.9536317,106.740753 83.3827379,107.084165 82.8238629,106.945812" id="Fill-21" fill="#3A216E"></path>
                <path d="M79.3317249,63.1475059 C79.3317249,63.1475059 79.1213956,80.5775059 78.963737,82.5952706 C78.8057249,84.6126824 75.9929681,93.1715059 77.5412746,100.067976 L80.6138499,100.828565 C80.6138499,100.828565 84.8292733,85.9330353 85.8293095,80.5249176 C86.8296993,75.1168 89.0722692,64.0171529 89.0722692,64.0171529 L79.3317249,63.1475059 Z" id="Fill-23" fill="#CC8A5E"></path>
                <path d="M117.605648,65.6970471 L113.570507,64.6569294 C112.883667,64.4797529 112.466543,63.7738706 112.643998,63.0881059 C112.821452,62.4023412 113.528441,61.9858706 114.215635,62.1630471 L118.250422,63.2031647 C118.937616,63.3803412 119.354386,64.0862235 119.176932,64.7719882 C118.999831,65.4577529 118.292488,65.8742235 117.605648,65.6970471" id="Fill-25" fill="#3A216E"></path>
                <path d="M113.694089,88.9637412 C105.000596,86.7229176 96.1335364,91.9429176 93.8891991,100.6228 C91.6448617,109.303035 96.8730472,118.155859 105.56654,120.397035 C114.260034,122.637506 123.127093,117.417506 125.37143,108.737624 C127.615768,100.057741 122.387582,91.2049176 113.694089,88.9637412 M113.042598,91.4833882 C120.330597,93.3620941 124.729484,100.810212 122.848186,108.087506 C120.96618,115.364094 113.506383,119.755741 106.218031,117.877388 C98.9296789,115.998682 94.5311453,108.550212 96.4124437,101.273271 C98.2940956,93.9966824 105.754246,89.6046824 113.042598,91.4833882" id="Fill-27" fill="#3A216E"></path>
                <path d="M60.1572574,75.1644118 C51.4637641,72.9235882 42.596705,78.1435882 40.3523676,86.8234706 C38.1080302,95.5033529 43.3362157,104.356176 52.029709,106.597353 C60.7235558,108.838176 69.5902614,103.618176 71.8345988,94.9382941 C74.0789362,86.2584118 68.8507507,77.4052353 60.1572574,75.1644118 M59.5057668,77.6840588 C66.794119,79.5624118 71.1926526,87.0108824 69.3113542,94.2878235 C67.4297023,101.564412 59.9695517,105.956412 52.6811996,104.077706 C45.3928474,102.199353 40.9943138,94.7508824 42.8759657,87.4735882 C44.7576176,80.197 52.2177681,75.8053529 59.5057668,77.6840588" id="Fill-29" fill="#3A216E"></path>
                <path d="M56.307807,67.8639647 L56.5283876,88.3165529 L66.6507062,70.5300824 L56.307807,67.8639647 Z M55.6683352,91.6394941 L55.6679817,91.6394941 C55.3572599,91.5590235 55.1384468,91.2805529 55.1352653,90.9597294 L54.8764627,66.9530235 C54.8740328,66.7320824 54.9747788,66.5227882 55.1486981,66.3865529 C55.322971,66.2506706 55.5506215,66.2030235 55.7648392,66.2580824 L67.9052586,69.3872588 C68.1191228,69.4426706 68.2955167,69.5944353 68.3817694,69.7977294 C68.4683755,70.0013765 68.4545892,70.2332588 68.3453594,70.4252588 L56.4640516,91.3031412 C56.3053325,91.5816118 55.979057,91.7192588 55.6683352,91.6394941 L55.6683352,91.6394941 Z" id="Fill-31" fill="#FF6F5C"></path>
                <path d="M107.702108,71.9100471 C107.193075,71.7787529 106.816603,71.3185176 106.814129,70.7693412 L106.805992,68.5468706 C106.804585,68.1265176 107.026579,67.7368706 107.388911,67.5236941 C107.75195,67.3098118 108.200535,67.3052235 108.567816,67.5095765 C109.133054,67.8205176 110.858108,68.5415765 112.002016,68.1304 C112.298245,68.0241647 112.727741,67.7929882 113.035281,67.0179294 C113.358022,66.2036941 113.397613,65.5514588 113.152641,65.0792235 C112.785714,64.3726353 111.847185,64.1404 111.838348,64.1365176 C111.831985,64.1351059 111.826329,64.1333412 111.82032,64.1319294 C111.198876,63.9716941 110.811446,63.3445176 110.956733,62.7184 C111.103786,62.0862824 111.726997,61.6888706 112.36152,61.8293412 C112.567254,61.8741647 114.365481,62.3149882 115.239673,63.9596941 C115.83107,65.0725176 115.830716,66.3946353 115.237906,67.8886353 C114.754325,69.1084 113.90912,69.9628706 112.793491,70.3602824 C111.556613,70.8004 110.217575,70.6059294 109.181836,70.3016941 L109.183603,70.7605176 C109.186078,71.4134588 108.657603,71.9453412 108.003285,71.9474658 C107.899358,71.9478118 107.798258,71.9347529 107.702108,71.9100471" id="Fill-33" fill="#F45E4A"></path>
                <path d="M111.072714,64.0131647 L107.037573,62.9730471 C106.350733,62.7958706 105.933609,62.0899882 106.111064,61.4042235 C106.288518,60.7184588 106.995507,60.3019882 107.682347,60.4791647 L111.717488,61.5192824 C112.404682,61.6961059 112.821452,62.4023412 112.643998,63.0881059 C112.466543,63.7738706 111.759554,64.1899882 111.072714,64.0131647" id="Fill-35" fill="#3A216E"></path>
                <path d="M69.5892363,71.3576941 L52.6193734,66.9833412 C51.7048828,66.7475765 51.1498962,65.8080471 51.3856772,64.8949882 C51.6218116,63.9819294 52.5631677,63.4278118 53.4776583,63.6635765 L70.4478747,68.0375765 C71.3623653,68.2733412 71.9169984,69.2132235 71.680864,70.1262824 C71.4450831,71.0393412 70.5037269,71.5934588 69.5892363,71.3576941" id="Fill-37" fill="#F45E4A"></path>
                <path d="M112.802929,105.498224 C112.350456,107.2474 110.56354,108.299518 108.811268,107.848106 C107.058995,107.396341 106.005227,105.611871 106.4577,103.862341 C106.910174,102.113165 108.697089,101.061047 110.449362,101.512812 C112.201635,101.964224 113.255402,103.748694 112.802929,105.498224" id="Fill-39" fill="#3A216E"></path>
                <path d="M59.2660974,91.6986824 C58.8136243,93.4482118 57.026709,94.4999765 55.2744362,94.0485647 C53.5221633,93.5968 52.4687493,91.8123294 52.920869,90.0631529 C53.3733421,88.3136235 55.1602574,87.2615059 56.9125302,87.7132706 C58.6648031,88.1646824 59.7185706,89.9491529 59.2660974,91.6986824" id="Fill-41" fill="#3A216E"></path>
                <path d="M83.0523972,95.3135765 L81.3231015,75.2499294 L105.018907,80.6456941 L83.0523972,95.3135765 Z M78.5357964,76.0151059 L80.23858,95.7738118 L58.7188878,90.2269882 L78.5357964,76.0151059 Z M111.057302,104.827106 L109.836685,80.5941647 C109.959701,80.3319294 110.004241,80.0340471 109.94945,79.7368706 C109.918342,79.5692235 109.854713,79.4146353 109.770228,79.2741647 L109.49026,72.1108706 C109.451022,71.3280471 108.783271,70.7252235 107.99922,70.7647529 C107.215169,70.8042824 106.6114,71.4706353 106.650638,72.2538118 L106.86733,78.1553412 L81.0675249,72.2799294 L80.4538582,65.1618118 C80.3863407,64.3807529 79.6980867,63.8019294 78.9158031,63.8696941 C78.1335195,63.9367529 77.5541418,64.6242824 77.6213058,65.4053412 L78.2519402,72.7235765 L54.5936055,89.6901647 C54.5921915,89.6908706 54.591131,89.6922824 54.5897171,89.6929882 C54.5543676,89.7184 54.5200786,89.7462824 54.4872036,89.7748706 C54.4755383,89.7851059 54.46458,89.7960471 54.4532681,89.8066353 C54.42817,89.8299294 54.4037789,89.8528706 54.3804483,89.8779294 C54.3634805,89.8955765 54.3486337,89.9149882 54.33308,89.9336941 C54.3189402,89.9506353 54.3040934,89.9668706 54.2906606,89.9841647 C54.2743999,90.0056941 54.2599066,90.0282824 54.2450598,90.0505176 C54.2341015,90.0667529 54.2224362,90.0822824 54.2121848,90.0992235 C54.1962776,90.1246353 54.1828448,90.1511059 54.168705,90.1775765 C54.1609281,90.1920471 54.1520907,90.2061647 54.1446673,90.2209882 C54.1033085,90.3060471 54.0711405,90.3942824 54.0474563,90.4849882 L54.0463958,90.4881647 C54.0432144,90.5008706 54.0414469,90.5135765 54.038619,90.5266353 C54.0311956,90.5580471 54.0241257,90.5894588 54.0188233,90.6215765 C54.0152883,90.6445176 54.0135208,90.6678118 54.0110464,90.6907529 C54.0085719,90.7133412 54.0053905,90.7355765 54.0039765,90.7585176 C54.0022483,90.7842824 54.002916,90.8100471 54.0022483,90.8361647 C54.0022483,90.8562824 54.0022483,90.8764 54.0022483,90.8965176 C54.003623,90.9222824 54.0060974,90.9469882 54.0082184,90.9720471 C54.0103394,90.9935765 54.0117534,91.0144 54.0145813,91.0355765 C54.0177628,91.0581647 54.0223582,91.0807529 54.0266001,91.1033412 C54.0308421,91.1266353 54.035084,91.1499294 54.0403864,91.1732235 C54.0453353,91.1926353 54.0513448,91.2124 54.0570007,91.2321647 C54.0640706,91.2572235 54.0711405,91.2819294 54.0796243,91.3066353 C54.0859872,91.3249882 54.0934106,91.3426353 54.1004805,91.3602824 C54.1103784,91.3853412 54.1199227,91.4104 54.1312345,91.4351059 C54.1397184,91.4541647 54.1499698,91.4725176 54.1598676,91.4912235 C54.1711794,91.5131059 54.1821378,91.5356941 54.1948636,91.5575765 C54.2090034,91.5819294 54.2249106,91.6045176 54.2404644,91.6281647 C54.2500087,91.6422824 54.2577856,91.6571059 54.268037,91.6712235 C54.2690974,91.6726353 54.2701579,91.6736941 54.2708649,91.6744 C54.2984375,91.7125176 54.3274241,91.7492235 54.3585316,91.7845176 C54.3627735,91.7891059 54.367369,91.7926353 54.3712574,91.7972235 C54.3984765,91.8272235 54.426756,91.8565176 54.4564496,91.8840471 C54.4709429,91.8974588 54.4861431,91.9091059 54.5009899,91.9221647 C54.5218461,91.9394588 54.5416418,91.9574588 54.563205,91.9736941 C54.5808797,91.9871059 54.5989079,91.9984 54.6169362,92.0107529 C54.6374388,92.0248706 54.6572345,92.0396941 54.6784442,92.0527529 C54.6982399,92.0647529 54.7190961,92.0746353 54.7392453,92.0859294 C54.759748,92.0972235 54.7795437,92.1092235 54.8007534,92.1194588 C54.8339819,92.1353412 54.8679173,92.1491059 54.9018528,92.1625176 C54.9113972,92.1664 54.9202345,92.1709882 54.9294254,92.1741647 C54.9732587,92.1904 55.0181526,92.2041647 55.0630464,92.2161647 C55.0648138,92.2165176 55.0658743,92.2172235 55.0672883,92.2175765 L80.8808797,98.8708706 C80.9830397,98.9651059 81.0982789,99.0462824 81.2269509,99.1080471 C81.3114362,99.1486353 81.3983958,99.1800471 81.487123,99.2033412 C81.8749066,99.3032235 82.2923837,99.2358118 82.6327991,99.0085176 L107.094981,82.6747529 L108.217679,104.969694 C108.249494,105.605341 108.695604,106.122047 109.281698,106.273106 C109.41744,106.308047 109.561313,106.323224 109.709073,106.316165 C110.492771,106.276635 111.09654,105.609929 111.057302,104.827106 L111.057302,104.827106 Z" id="Fill-43" fill="#82A0F0"></path>
                <path d="M86.4539345,66.0458235 C86.4539345,66.0458235 80.1338042,68.4175882 74.3050313,65.2054706 C70.3996227,63.0532353 73.9048754,58.8652353 77.2436321,60.7442941 C80.5823888,62.623 84.5570824,63.5205294 86.2344144,63.4435882 C87.9117464,63.3666471 88.4048714,65.4031176 86.4539345,66.0458235" id="Fill-45" fill="#F45E4A"></path>
                <path d="M86.3211973,98.1050588 C85.7230844,100.512118 83.2839715,101.98 80.8727847,101.382471 C78.4619513,100.785647 76.9921207,98.35 77.5902336,95.9429412 C78.1883465,93.5358824 80.6274594,92.0683529 83.0382927,92.6655294 C85.4494796,93.2623529 86.9189567,95.698 86.3211973,98.1050588" id="Fill-47" fill="#F45E4A"></path>
                <path d="M83.653232,97.4443176 C83.4206325,98.3803176 82.4722065,98.9513765 81.5343852,98.7187882 C80.5969175,98.4865529 80.0253167,97.5399647 80.2582696,96.6036118 C80.4905156,95.6676118 81.4389417,95.0969059 82.3767629,95.3291412 C83.3142306,95.5613765 83.8858315,96.5083176 83.653232,97.4443176" id="Fill-49" fill="#3A216E"></path>
                <path d="M56.0653097,87.6122941 C56.0653097,87.6122941 81.5915099,90.8000588 85.3194642,92.8308824 C89.6084145,95.1673529 87.9494642,103.397941 81.3493661,102.133353 C75.2961242,100.973235 57.4729253,94.9284118 54.562604,93.9352353 C54.0291806,93.7531176 53.5459535,93.4277059 53.2267478,92.9635882 C52.8156336,92.3671176 52.5148097,91.4099412 52.954557,89.9681765 C53.8344051,87.0846471 56.0653097,87.6122941 56.0653097,87.6122941 Z" id="Stroke-51" stroke="#085486" stroke-width="2"></path>
                <path d="M100.867642,45.0397882 C100.867642,45.0397882 106.966132,55.1307294 109.279754,56.0741412 C113.263285,57.6980235 117.938605,61.9887294 117.941083,63.3606118 C117.943554,64.7324941 116.613353,66.6313176 116.247487,65.3409647 C115.88162,64.0502588 115.231897,62.5184941 114.503698,61.9954353 C113.775499,61.4720235 104.192966,58.5849647 103.989707,58.0202588 C103.786801,57.4559059 97.1004503,48.0030824 97.1004503,48.0030824 C97.1004503,48.0030824 96.3383159,43.2327294 100.867642,45.0397882" id="Fill-53" fill="#CC8A5E"></path>
                <path d="M90.6038554,61.9970235 C90.6038554,61.9970235 101.931237,68.9157294 102.385478,73.9984353 C102.839365,79.0814941 84.9857653,83.2296118 84.9857653,83.2296118 L83.9715892,81.0932588 C83.9715892,81.0932588 87.3174159,76.6084353 90.629307,75.7147882 C93.9411981,74.8211412 94.868768,73.8509059 94.868768,73.8509059 C94.868768,73.8509059 86.9024132,70.6783176 85.2010435,68.5430235 C83.5000274,66.4080824 90.6038554,61.9970235 90.6038554,61.9970235" id="Fill-55" fill="#E59D6C"></path>
                <path d="M83.9716953,81.0932235 C83.9716953,81.0932235 81.7892195,80.8952235 82.0751966,82.5088706 C82.3608203,84.1221647 81.5976254,86.5038118 82.6492719,87.1073412 C83.7009184,87.7105176 87.541991,88.8332235 87.4592733,87.7842824 C87.3765555,86.7353412 86.4475716,87.0194588 85.7179587,85.8102824 C84.9883458,84.6014588 84.9858714,83.2295765 84.9858714,83.2295765 L83.9716953,81.0932235 Z" id="Fill-57" fill="#5B5B5B"></path>
                <path d="M98.8405629,39.6776235 C98.8405629,39.6776235 99.359493,40.3828 100.17748,39.2897412 L103.550172,41.6569176 L101.724019,44.1836235 C101.724019,44.1836235 101.144287,45.3430353 99.1813317,44.4479765 C97.2187296,43.5529176 97.3127591,41.1091529 98.8405629,39.6776235" id="Fill-59" fill="#CC8A5E"></path>
                <path d="M98.8405629,39.6776235 C98.8405629,39.6776235 90.8848129,42.9377412 85.4805871,48.7979765 C80.0763613,54.6582118 74.8874137,57.7489176 77.7242081,61.2218588 C81.6978411,66.0868 78.5796651,67.7145647 80.7670898,70.6556235 L97.7358922,67.2045647 C97.7358922,67.2045647 91.9778183,61.9944471 91.4111664,61.5112706 C90.8445145,61.0284471 92.9782081,56.5863294 95.481657,55.4922118 C97.9847524,54.3980941 99.4390293,54.0726824 100.000379,51.8124471 C100.562082,49.5518588 101.724019,44.1836235 101.724019,44.1836235 C101.724019,44.1836235 97.6372672,44.5213882 98.8405629,39.6776235" id="Fill-61" fill="#2A4282"></path>
                <path d="M92.5917677,44.3215176 C92.5917677,44.3215176 93.1386239,55.9403412 94.3571199,59.3271647 C95.5756159,62.7139882 106.765135,60.5148118 108.425145,62.1256353 C110.084803,63.7361059 108.18689,64.4659882 109.520625,64.6248118 C110.85436,64.7839882 111.819754,62.2805765 110.604793,60.9514 C109.390186,59.6222235 97.8659075,55.5683412 97.8659075,55.5683412 C97.8659075,55.5683412 98.2505097,45.0372824 97.804046,44.0698706 C97.3575823,43.1024588 93.9580245,40.2037529 92.5917677,44.3215176" id="Fill-63" fill="#E59D6C"></path>
                <path d="M84.1391103,88.8551765 L84.1391103,88.8551765 C84.4318039,88.9275294 84.6120862,89.2261176 84.5392663,89.5183529 L82.6477165,97.1334118 C82.5748966,97.4256471 82.2758402,97.6056471 81.9831466,97.5332941 C81.6904531,97.4605882 81.5101708,97.162 81.5829907,96.8697647 L83.474894,89.2547059 C83.5473603,88.9624706 83.8464168,88.7824706 84.1391103,88.8551765" id="Fill-65" fill="#3A216E"></path>
                <path d="M86.9418985,90.3692941 L81.0378313,88.9070588 C80.4786028,88.7687059 80.135006,88.1990588 80.2735759,87.6410588 C80.4121458,87.0827059 80.9830397,86.7396471 81.5419147,86.8776471 L87.4459819,88.3398824 C88.0048569,88.4785882 88.3488071,89.0482353 88.2102372,89.6065882 C88.0716673,90.1645882 87.5007735,90.508 86.9418985,90.3692941" id="Fill-67" fill="#3A216E"></path>
                <path d="M103.550278,41.6570588 C103.550278,41.6570588 104.898153,42.3107059 106.180631,42.3918824 C107.463463,42.4730588 108.710946,42.1557647 110.102654,40.8449412 C111.494009,39.5341176 113.168867,37.1457647 113.890703,35.6694118 C114.612892,34.1927059 112.398955,27.85 107.854782,28.0254118 C103.310608,28.2008235 98.8823813,34.3977647 100.177232,39.2898824 C101.472436,44.182 103.550278,41.6570588 103.550278,41.6570588" id="Fill-69" fill="#CC8A5E"></path>
                <polygon id="Fill-71" fill="#FFBE55" points="71.2203312 68.4519647 52.260647 63.8464353 56.306393 47.2430235 75.2660772 51.8485529"></polygon>
                <polygon id="Fill-73" fill="#FFBE55" points="75.9937458 54.1535412 54.6907458 48.9787176 55.6699259 44.9601294 76.9729259 50.1349529"></polygon>
                <polygon id="Fill-75" fill="#E1A749" points="74.6425833 54.4268588 55.6761828 49.8199176 55.8151062 49.2502706 74.7815067 53.8572118"></polygon>
                <polygon id="Fill-77" fill="#FFBE55" points="72.8454167 49.4796471 56.187336 45.4331765 59.742078 30.8457647 76.4001586 34.8918824"></polygon>
                <polygon id="Fill-79" fill="#FFBE55" points="77.0393829 36.9171647 58.3225496 32.3705765 59.1829555 28.8397529 77.8997888 33.3863412"></polygon>
                <polygon id="Fill-81" fill="#E1A749" points="75.8522066 37.1572353 59.18847 33.1093529 59.3104257 32.6088824 75.9741622 36.6567647"></polygon>
                <polygon id="Fill-83" fill="#E1A749" points="72.9429458 49.1986 56.2792093 45.1507176 56.4011649 44.6502471 73.0649015 48.6981294"></polygon>
                <path d="M104.983062,26.4912824 C101.503261,27.0454 98.9018942,29.1189294 96.1923579,31.1963412 C93.5535206,33.2190471 89.38087,35.2978706 86.3093552,32.8671647 C84.1940434,31.1931647 83.3453028,28.2132824 80.2455085,28.0209294 C77.7611483,27.8670471 75.4390421,29.6095176 74.5849991,31.8775176 C73.3958431,35.0359882 74.4432477,38.1799882 76.4995259,40.6304588 C76.5094238,40.6428118 76.5196751,40.6548118 76.529573,40.6671647 C76.560327,40.7035176 76.5914345,40.7391647 76.6225421,40.7748118 C76.723288,40.8948118 76.827569,41.0126941 76.9375058,41.1277529 C78.762952,43.0876353 81.2317585,44.5329294 83.6348149,45.0683412 C91.3166066,46.7801059 98.2712598,42.3503412 103.860363,37.6036353 C104.112758,37.3890471 104.175681,37.1324588 104.121242,36.8966941 C104.127252,36.8635176 104.130787,36.8289294 104.13114,36.7932824 C104.141038,35.7944588 104.298343,34.5397529 105.556077,34.4066941 C106.247866,34.3332824 106.908194,34.7815176 107.455404,35.1312824 C108.212236,35.6148118 108.90049,36.2162235 109.759128,36.5229294 C111.081551,36.9951647 112.578248,36.8261059 113.756799,36.0951647 C113.92683,36.1096353 114.095447,36.0386941 114.181346,35.8435176 C114.191597,35.8198706 114.199021,35.7965765 114.209272,35.7732824 C114.217402,35.7662235 114.22624,35.7605765 114.234724,35.7535176 C114.355972,35.6536353 114.385312,35.5223412 114.357386,35.3981059 C116.4324,29.7489294 110.166,25.6657529 104.983062,26.4912824" id="Fill-85" fill="#3A216E"></path>
                <path d="M103.684712,42.5614706 C103.43974,42.5614706 103.219866,42.391 103.166489,42.1421765 C102.374661,38.4274706 107.323585,34.5634706 107.534975,34.4007647 C107.766868,34.2225294 108.099506,34.2655882 108.278374,34.4964118 C108.457243,34.7275882 108.41447,35.0600588 108.182931,35.239 C108.136623,35.2746471 103.550737,38.8573529 104.203995,41.9215882 C104.264797,42.2078235 104.08204,42.4887647 103.795709,42.5498235 C103.758239,42.5575882 103.721475,42.5614706 103.684712,42.5614706" id="Fill-87" fill="#654FB2"></path>
                <path d="M112.480153,37.7855412 L97.6789796,29.9086 C97.6789796,29.9086 97.3689648,21.9783647 108.91516,25.5204824 C114.334939,27.1831882 116.360463,31.8031882 115.184033,34.2437765 C114.007603,36.6840118 112.480153,37.7855412 112.480153,37.7855412" id="Fill-89" fill="#466EB6"></path>
                <path d="M104.323017,39.3136353 C104.152986,39.3136353 103.985783,39.2321059 103.88327,39.0806941 C102.75138,37.4105765 102.565088,31.9710471 102.547414,31.3565765 C102.539283,31.0643412 102.769762,30.8208118 103.062455,30.8123412 C103.355502,30.8035176 103.59906,31.0339882 103.607544,31.3262235 C103.652791,32.9112824 103.948666,37.2877529 104.761704,38.4877529 C104.925725,38.7298706 104.862096,39.0588118 104.619599,39.2225765 C104.528751,39.2843412 104.425177,39.3136353 104.323017,39.3136353" id="Fill-91" fill="#654FB2"></path>
                <g id="Group-95" transform="translate(229.790323, 13.882353)">
                    <mask id="mask-2" fill="white">
                        <use xlink:href="#path-1"></use>
                    </mask>
                    <g id="Clip-94"></g>
                    <path d="M20.9495761,24.8100353 C20.9997723,24.1373294 20.5172522,23.5867412 19.8721245,23.4649765 C18.3920425,23.1858 16.8730761,24.6402706 16.0975089,25.7294471 C15.9073288,25.9966235 15.7397723,26.2768588 15.5934255,26.5659176 C15.5177777,26.6449765 15.4446043,26.7261529 15.3746124,26.8090941 C15.2519497,25.8536824 15.1098449,24.9000353 14.9468839,23.9495647 C15.4021849,23.2549765 15.7783032,22.5558 16.4022212,21.9462706 C17.0915358,21.2728588 17.8232696,20.6026235 18.6200465,20.0573294 C19.3249148,19.5745059 20.1768368,19.2836824 20.4582185,18.3946235 C20.6869296,17.6714471 20.4363019,16.9045059 19.7869323,16.5007412 C18.1428288,15.4779176 16.5701312,17.3132118 15.7698194,18.5432118 C15.1731204,19.4598 14.741857,20.4452118 14.4777965,21.4775647 C14.2724161,20.4932118 14.0440586,19.5130941 13.7973194,18.5379176 C14.0313328,17.8302706 14.3848274,17.1603882 14.8496728,16.5833294 C15.5266151,15.7426235 16.4297938,15.1045059 17.206775,14.3626235 C18.3740142,13.2483882 20.2705129,10.3553294 18.026529,9.25062353 C15.9649484,8.23521176 14.310947,10.8819176 13.5629524,12.3882706 C13.1861272,13.1460353 12.9086339,13.9380353 12.7294121,14.7483882 C12.5731675,14.2461529 12.4102065,13.7463882 12.2430035,13.2480353 C12.3292562,12.8739176 12.3013301,12.4669765 12.3451634,12.0709765 C12.4133879,11.4529765 12.5236782,10.8370941 12.6905277,10.2378 C13.0355384,8.99509412 13.5650734,7.8318 14.0854175,6.6558 C14.574654,5.54897647 14.9963731,4.40332941 14.9970801,3.17791765 C14.9977871,2.17909412 14.7881648,0.629682353 13.6393073,0.322623529 C12.4600492,0.00709411765 11.5593449,1.16968235 11.0761177,2.08415294 C10.531736,3.11544706 10.303025,4.28156471 10.1202683,5.42403529 C10.0276527,6.00532941 9.95801425,6.59262353 9.91241344,7.18309412 C9.70031667,6.69497647 9.48433145,6.20897647 9.26198333,5.7258 C8.9024793,4.94721176 8.52954247,4.17462353 8.14352634,3.40909412 C7.74584489,2.62097647 7.38810833,1.75662353 6.74545511,1.13509412 C6.16360296,0.572152941 5.03206667,0.925447059 5.21199543,1.84732941 C5.48524677,3.24215294 6.41458414,4.55332941 7.0218879,5.83097647 C7.43300215,6.69568235 7.82538118,7.56956471 8.20255995,8.4498 C7.33260968,7.64156471 6.44038925,6.7578 5.43469704,6.14862353 C3.77928172,5.14591765 0.68973871,5.42297647 0.320336828,7.76650588 C-0.0840610215,10.3313294 3.39079113,10.7654471 5.12538925,11.1575647 C6.37888118,11.4413294 7.66949005,11.7558 8.79395645,12.4006235 C9.25455995,12.6649765 9.69324677,12.9815647 10.0605277,13.3659176 C10.0923422,13.3990941 10.1213288,13.4354471 10.1510223,13.4710941 C10.3284766,13.9796824 10.5013355,14.4896824 10.6681849,15.0018 C10.0902212,14.4787412 9.44403306,14.0283882 8.7384578,13.6673294 C6.97876156,12.7666235 4.55767688,12.3512118 3.25257473,14.2316824 C2.78242688,14.9089765 2.61168898,15.9042706 3.10481398,16.6196824 C3.662275,17.4289765 5.07342554,17.4526235 5.95362715,17.5306235 C7.14525753,17.6358 8.30471989,17.4656824 9.49316882,17.4519176 C10.0792629,17.4448588 10.7141392,17.4865059 11.2454417,17.7603882 C11.3673973,17.8235647 11.4716782,17.8983882 11.5664148,17.9799176 C11.6074202,18.1274471 11.650193,18.2746235 11.6904914,18.4225059 C11.9683382,19.4463882 12.2253288,20.4773294 12.4635841,21.5135647 C11.7640183,20.8980353 10.9785532,20.3926235 10.0958772,20.0785059 C8.36622796,19.4629765 5.61674677,19.2663882 4.51808548,21.0819176 C4.07869167,21.8068588 4.03132339,22.8081529 4.50924812,23.5263882 C5.0893328,24.3970941 6.1279,24.4849765 7.08233548,24.3660353 C9.00463925,24.1267412 11.6116621,23.1395647 13.1143677,24.6339176 C13.3512091,25.8942706 13.5580035,27.1602706 13.7333368,28.4305059 C13.2522306,27.8848588 12.6555317,27.4348588 11.9665707,27.1023882 C10.6565196,26.4702706 8.5210586,26.1526235 7.41320645,27.3519176 C6.21485968,28.6493294 7.68080188,30.0388588 9.01276962,30.2753294 C10.0488624,30.4592118 11.0421823,30.1987412 12.0666097,30.0967412 C12.7417844,30.0296824 13.4735183,30.1080353 13.9903274,30.4923882 C14.1900519,32.2998 14.3257938,34.1125059 14.3933113,35.9245059 C14.5173879,39.2400353 14.6644417,42.8012118 13.6336513,45.9967412 C13.4180196,46.6652118 14.4003812,47.0379176 14.6594927,46.3800353 C15.7659309,43.5716824 15.8977844,40.5254471 15.9578785,37.5416824 C16.0091352,34.9856824 15.9161661,32.4222706 15.6987669,29.8733294 C16.0116097,29.3689765 16.3682858,28.9083882 16.8568153,28.4908588 C17.6687925,27.7969765 18.6037858,27.2679176 19.4822199,26.6654471 C20.1185102,26.2288588 20.886654,25.6532118 20.9495761,24.8100353" id="Fill-93" fill="#82B378" mask="url(#mask-2)"></path>
                </g>
                <path d="M173.073561,45.9401294 C172.973522,43.7384824 171.678317,41.6321294 169.59376,40.6957765 C167.537128,39.7717765 165.336624,40.2284824 163.573393,41.4164824 C163.095115,38.6437765 161.000305,36.0062471 157.892027,36.5391882 C155.339796,36.9764824 154.179627,39.3761294 154.062266,41.7408353 C151.231481,41.7496588 148.981135,43.8768353 149.014717,46.6520118 C147.847831,46.8616588 146.815627,47.6723647 146.423248,48.8811882 C145.835033,50.6931882 146.820222,52.6777765 148.348026,53.6864824 C151.574018,55.8164824 156.199495,54.9164824 158.713549,52.1473059 C161.674066,54.1795412 166.104768,54.1431882 168.667604,51.5243647 C170.272823,52.5627176 171.941671,53.5336588 173.962953,53.1418941 C175.530348,52.8376588 177.19248,51.7121294 177.616674,50.1073059 C178.401078,47.1380118 175.542367,45.4294235 173.073561,45.9401294" id="Fill-98" fill="#FFFFFF"></path>
                <path d="M66.2198966,8.28894118 C65.5546198,8.02388235 64.8790915,7.99388235 64.1703348,8.07929412 C63.9257165,8.10858824 63.6849867,8.15764706 63.4559222,8.18341176 C63.7744208,6.07141176 62.6626802,3.87611765 60.511312,2.95 C58.9209397,2.26529412 56.7674504,2.43117647 55.3287273,3.38129412 C55.9671386,2.95988235 52.6460566,0.851411765 52.2625149,0.734588235 C50.7463765,0.272588235 48.8922972,0.409176471 47.4804397,1.14047059 C45.6709007,2.07752941 44.3908966,3.93717647 44.2261681,5.96164706 C44.1894047,6.41411765 44.2318241,6.97388235 44.3612031,7.52835294 C43.3123845,7.66952941 42.3045714,7.98894118 41.4236628,8.59705882 C39.5586251,9.88564706 38.7950767,12.1388235 39.6448778,14.2670588 C41.2069706,18.1804706 46.505148,18.7765882 49.72407,16.5685882 C52.0981399,19.072 57.1131681,17.6362353 59.9884934,16.0744706 C62.6008187,17.4047059 65.9219007,17.4167059 67.8548093,14.8914118 C69.5091641,12.73 68.8650969,9.34423529 66.2198966,8.28894118" id="Fill-100" fill="#FFFFFF"></path>
                <path d="M206.921305,121.400941 L242.421305,121.400941 C242.697447,121.400941 242.921305,121.177084 242.921305,120.900941 L242.921305,34.6838824 C242.921305,34.40774 242.697447,34.1838824 242.421305,34.1838824 L206.921305,34.1838824 C206.36902,34.1838824 205.921305,34.6315976 205.921305,35.1838824 L205.921305,120.400941 C205.921305,120.953226 206.36902,121.400941 206.921305,121.400941 Z" id="Fill-102" fill="#C6EBBD"></path>
                <g id="Group-48" transform="translate(192.000000, 46.000000)">
                    <g id="Group-3" transform="translate(0.000000, 11.063552)">
                        <mask id="mask-4" fill="white">
                            <use xlink:href="#path-3"></use>
                        </mask>
                        <g id="Clip-2"></g>
                        <path d="M1.12970572,21.5789338 C1.12970572,21.5789338 4.01855896,14.121409 4.2739694,13.4631403 C4.52947189,12.8047796 5.98370075,2.55688408 5.98370075,2.55688408 L12.1693276,0.0850631841 C12.1693276,0.0850631841 8.68460871,13.2553144 8.00452662,14.9107423 C6.88072065,17.6461652 2.62829776,21.8725408 2.62829776,21.8725408 C2.90082761,22.4219264 2.61191468,23.1351428 1.96349428,23.6034413 C1.31516592,24.0718318 1.55612612,24.0034463 1.10660373,24.345098 C0.657081343,24.6867498 0.238760448,23.9655259 0.238760448,23.9655259 C-0.624296766,22.1827149 1.12970572,21.5789338 1.12970572,21.5789338" id="Fill-1" fill="#E8945B" mask="url(#mask-4)"></path>
                    </g>
                    <g id="Group-6" transform="translate(11.320896, 9.774995)">
                        <mask id="mask-6" fill="white">
                            <use xlink:href="#path-5"></use>
                        </mask>
                        <g id="Clip-5"></g>
                    </g>
                    <path d="M2.32352637,36.2646664 C2.32352637,36.2646664 2.67373781,40.6346241 3.0853398,45.8877037 C3.64484975,53.0234575 5.77465075,70.8037062 5.77465075,70.8037062 C5.77465075,70.8037062 5.32328756,71.5125047 7.51475522,71.050649 C7.51475522,71.050649 10.2003846,64.9945221 10.7582378,58.0282137 C10.7667975,57.9140843 10.7754493,57.7990346 10.784101,57.6840769 C11.3030214,50.5924102 12.1099343,35.6593206 12.1099343,35.6593206 L2.32352637,36.2646664 Z" id="Fill-7" fill="#2B478B"></path>
                    <path d="M2.20398507,34.7546338 C2.20398507,34.7546338 2.67375622,40.6346886 3.08535821,45.8876761 L10.7581642,58.0281861 C10.7668159,57.9140567 10.7754677,57.799007 10.7841194,57.6840493 C11.3029478,50.5923826 12.1099527,35.659293 12.1099527,35.659293 L2.20398507,34.7546338 Z" id="Fill-9" fill="#233862"></path>
                    <path d="M3.91534552,33.6480945 L17.1035445,71.5931592 C17.1035445,71.5931592 18.4826689,71.3333308 18.7921067,70.7236592 C18.7921067,70.7236592 19.1713107,54.6764279 16.9373206,50.8047736 C15.6749948,48.6172637 14.7941739,42.4810622 14.9443828,40.4090622 C15.2386341,36.3485423 14.028955,32.5682836 14.028955,32.5682836 L3.91534552,33.6480945 Z" id="Fill-11" fill="#2B478B"></path>
                    <path d="M7.82901592,73.9114577 L6.7552796,73.9114577 C6.3956801,73.8547612 6.13005323,73.7506642 5.76115771,73.7024353 C5.20091144,73.6290796 4.94310796,73.8586269 4.89184179,73.9114577 C4.88493881,73.9182687 4.88180945,73.9221343 4.88180945,73.9221343 L0.320777114,73.9221343 C0.205911443,73.7583955 0.316083085,73.3787313 0.423953731,73.0994826 C0.496757214,72.9096965 0.655157711,72.7658383 0.851110448,72.7091418 C1.33459552,72.5690572 2.28831194,72.4444353 3.16140149,71.6538134 C3.65280199,71.2099055 5.5338194,70.0213035 5.5338194,70.0213035 L5.54385174,70.0190945 C5.58517761,70.0199229 5.78186667,70.080393 6.6375607,70.8028134 C7.0797199,71.1754826 7.83361791,70.2762537 7.83361791,70.2762537 C7.83361791,70.2762537 7.97517512,70.3933284 8.08083682,70.6113706 C8.16569751,70.7836692 8.22773234,71.0201194 8.1788592,71.3117015 C8.11074975,71.7226592 8.33026468,72.4864055 8.5056005,73.0030249 C8.61190647,73.3159602 8.70146119,73.5379602 8.70146119,73.5379602 C8.70146119,73.5379602 8.75272736,73.7958557 7.82901592,73.9114577" id="Fill-13" fill="#424242"></path>
                    <path d="M7.82703706,73.9267363 L6.75790274,73.9267363 C6.39811915,73.8701318 6.13009925,73.7506642 5.76120373,73.7024353 C5.20095746,73.6290796 4.94306194,73.8586269 4.89179577,73.9114577 C4.88489279,73.9182687 4.88185547,73.9221343 4.88185547,73.9221343 L0.320731095,73.9221343 C0.205865423,73.7583955 0.316129104,73.3787313 0.423907711,73.0994826 C0.562519652,72.9762413 0.601544527,73.6343259 0.678029602,73.7392512 C0.754606716,73.8440846 4.39892264,73.7775398 4.60941766,73.6243856 C4.81991269,73.4714154 5.45130572,73.2035796 6.33129826,73.4139826 C7.09734552,73.5968657 8.22621368,73.1277388 8.50555448,73.0030249 C8.61186045,73.3159602 8.70141517,73.5379602 8.70141517,73.5379602 C8.70141517,73.5379602 8.75074851,73.8112264 7.82703706,73.9267363" id="Fill-15" fill="#424242"></path>
                    <path d="M18.7928983,73.9114577 L17.7191619,73.9114577 C17.3595624,73.8547612 17.0939356,73.7506642 16.72504,73.7024353 C16.1648858,73.6290796 15.9069903,73.8586269 15.8557241,73.9114577 C15.8488211,73.9182687 15.8456918,73.9221343 15.8456918,73.9221343 L11.2845674,73.9221343 C11.1697938,73.7583955 11.2799654,73.3787313 11.3878361,73.0994826 C11.4606396,72.9096965 11.61904,72.7658383 11.8149928,72.7091418 C12.2984779,72.5690572 13.2521943,72.4444353 14.1253759,71.6538134 C14.6167764,71.2099055 16.4977017,70.0213035 16.4977017,70.0213035 L16.5077341,70.0190945 C16.54906,70.0199229 16.745749,70.080393 17.601351,70.8028134 C18.0436943,71.1754826 18.7975923,70.2762537 18.7975923,70.2762537 C18.7975923,70.2762537 18.9390575,70.3933284 19.0446271,70.6113706 C19.1295799,70.7836692 19.1916147,71.0201194 19.1427415,71.3117015 C19.07454,71.7226592 19.294147,72.4864055 19.4694828,73.0030249 C19.5757888,73.3159602 19.6653435,73.5379602 19.6653435,73.5379602 C19.6653435,73.5379602 19.7166097,73.7958557 18.7928983,73.9114577" id="Fill-17" fill="#424242"></path>
                    <path d="M18.7910114,73.9267363 L17.7217851,73.9267363 C17.3620935,73.8701318 17.0939816,73.7506642 16.7250861,73.7024353 C16.1649318,73.6290796 15.9069443,73.8586269 15.8556781,73.9114577 C15.8487751,73.9182687 15.8457378,73.9221343 15.8457378,73.9221343 L11.2845214,73.9221343 C11.1697478,73.7583955 11.2800114,73.3787313 11.38779,73.0994826 C11.526402,72.9762413 11.5654269,73.6343259 11.642004,73.7392512 C11.7184891,73.8440846 15.362897,73.7775398 15.5733,73.6243856 C15.783703,73.4714154 16.4151881,73.2035796 17.2952726,73.4139826 C18.0613199,73.5968657 19.190096,73.1277388 19.4694368,73.0030249 C19.5757428,73.3159602 19.6653896,73.5379602 19.6653896,73.5379602 C19.6653896,73.5379602 19.7147229,73.8112264 18.7910114,73.9267363" id="Fill-19" fill="#424242"></path>
                    <path d="M12.0208766,11.0175323 C12.0208766,11.0175323 7.74719254,13.12101 5.2771204,12.3415249 C5.2771204,12.3415249 5.88504328,11.564801 6.94515771,10.9816368 C6.88468756,10.6222214 6.83618259,10.2936393 6.79817015,10.0009527 C6.66103085,8.94221891 6.6560607,8.33935821 6.6560607,8.33935821 L9.27523731,6.22814925 L9.86254328,5.75469652 C9.84560796,6.25566915 9.87662537,6.72000995 9.94270995,7.14762687 C9.94777214,7.18140547 9.95255821,7.21518408 9.95826468,7.24822637 C10.3838567,9.78926119 12.0208766,11.0175323 12.0208766,11.0175323" id="Fill-21" fill="#FFB27D"></path>
                    <path d="M14.4598393,33.3920122 C14.4725408,33.6642659 13.9119264,33.9633032 13.6683891,34.0723704 C12.5879338,34.55696 11.5509214,34.9545719 10.4872174,35.2365818 C9.74500846,35.4341913 8.98945373,35.5757485 8.1973592,35.6516813 C5.90897363,35.886659 3.20475224,35.37096 2.27680697,35.3835694 C2.17832438,35.3835694 2.09180697,35.3462933 2.01725473,35.2850868 C1.95531194,35.2352012 1.90607065,32.4402286 1.95531194,28.9150122 C1.95531194,28.7792535 1.95531194,28.630149 1.96727711,28.4943903 L1.96727711,28.445149 C1.97988657,27.0718231 2.02986418,25.6247734 2.09180697,24.1903331 C2.22765771,21.0239799 2.47450846,17.9687187 2.89586667,16.2739898 C3.39039652,14.2831689 4.52800846,12.9717858 5.56704577,12.0073007 L6.30529701,11.2727311 C6.35159303,11.2266192 6.41758557,11.2070147 6.48182935,11.2188878 C7.30788657,11.3710296 8.21226965,11.3585122 9.07965274,10.9309873 C10.0567473,10.4490669 11.1204512,9.92922612 11.2934861,10.0531117 C13.3216751,11.5683629 14.3311677,16.0460993 14.3122075,21.1365445 C14.3114711,21.2969699 14.3099985,21.4587759 14.3079736,21.6204898 C14.2987697,22.1460371 14.2797174,22.6779351 14.2495284,23.2125022 C14.0285408,26.9684624 14.2550507,30.2241863 14.3846428,32.1172609 C14.4219189,32.6618604 14.4514637,33.0938032 14.4598393,33.3920122" id="Fill-23" fill="#E7A164"></path>
                    <path d="M14.4598393,33.3920122 C14.4725408,33.6642659 13.9119264,33.9633032 13.6683891,34.0723704 C12.5879338,34.55696 11.5509214,34.9545719 10.4872174,35.2365818 C7.53614527,25.7021789 11.0698294,16.4603704 11.0698294,16.4603704 L14.3079736,21.6204898 C14.2987697,22.1460371 14.2797174,22.6779351 14.2495284,23.2125022 C14.0285408,26.9684624 14.2550507,30.2241863 14.3846428,32.1172609 C14.4219189,32.6618604 14.4514637,33.0938032 14.4598393,33.3920122" id="Fill-33" fill="#CF7528"></path>
                    <path d="M9.92040871,17.9461321 C10.9785903,17.3190649 13.1029609,16.181453 14.8579759,16.0016072 C15.2425182,15.9622142 15.4778639,15.5590799 15.3228689,15.2050027 C14.768145,13.9377067 13.2013515,11.2854878 11.2934585,10.0530749 C11.114349,9.93728881 10.9794187,10.0379803 10.7934062,10.1423535 C10.0890256,10.5373883 8.57303806,11.7060177 8.48007786,13.0836694 C8.39715,14.3089032 8.81721965,16.4343784 9.07115746,17.5779729 C9.15537388,17.9577291 9.58565995,18.1444779 9.92040871,17.9461321" id="Fill-35" fill="#CF7528"></path>
                    <path d="M9.9793694,7.20956965 C9.9793694,7.20956965 9.97237438,7.22300746 9.95829229,7.24822637 C9.79298881,7.54450249 8.66384453,9.45377612 6.79819776,10.0009527 C6.66096642,8.94221891 6.65608831,8.33935821 6.65608831,8.33935821 L9.27526493,6.22814925 C9.62059826,6.6334005 9.85622015,7.00487313 9.94273756,7.14762687 C9.96666791,7.18775622 9.9793694,7.20956965 9.9793694,7.20956965" id="Fill-37" fill="#E8945B"></path>
                    <path d="M5.90031269,8.2806092 C5.90031269,8.2806092 9.98006891,8.95829826 10.3630465,6.41118881 C10.7459321,3.86407935 11.5305714,2.23607935 8.94195199,1.69562164 C6.35333259,1.15516393 5.69985,2.05089527 5.36528532,2.86995746 C5.03062861,3.68911169 4.84894204,8.03863657 5.90031269,8.2806092" id="Fill-39" fill="#FFB27D"></path>
                    <g id="Group-43" transform="translate(3.865672, 0.018776)">
                        <mask id="mask-8" fill="white">
                            <use xlink:href="#path-7"></use>
                        </mask>
                        <g id="Clip-42"></g>
                        <path d="M7.96006219,1.25898483 C7.99733831,1.10122861 8.0854204,0.910522139 8.29425871,0.811671393 C8.29425871,0.811671393 8.00166418,0.843333085 7.844,1.032751 C7.8178607,0.789305721 7.76107214,0.44774602 7.63249254,0.214701244 C7.63249254,0.214701244 7.63902736,0.5399699 7.60561692,0.81314403 C5.83734826,-0.972612189 1.71322886,0.985258458 0.866554726,1.37550721 C-0.621820896,2.06157189 0.21270398,3.3343903 1.16494776,3.64622114 C2.11700746,3.95814403 4.48629602,2.95601468 4.51906219,3.61271866 C4.5519204,4.2693306 4.99518408,4.99165896 5.24148259,5.00804204 C5.48759701,5.02451716 5.6681791,4.49915398 5.98000995,4.84384303 C6.29193284,5.18862413 5.75018657,5.73598483 5.75018657,5.73598483 C5.42648259,6.32770871 6.09257463,7.22942264 6.09257463,7.22942264 C6.09257463,7.22942264 6.30840796,7.35542512 6.68586318,6.92863657 C7.05153731,6.51537786 9.7115796,3.86444751 7.96006219,1.25898483" id="Fill-41" fill="#2C3A64" mask="url(#mask-8)"></path>
                    </g>
                    <path d="M4.46282587,28.4537731 C5.21994527,28.2644473 6.66432587,28.508905 6.9546194,28.5613677 C6.9546194,28.5613677 12.1734602,24.9006687 13.0880597,23.9859771 C13.75001,23.3242109 11.0940174,20.3392682 9.71047512,18.0206015 C9.78208209,18.010109 9.85295274,17.9859025 9.92060199,17.9465095 C10.9784154,17.3193502 13.1032463,16.1814622 14.857709,16.0015244 C14.9247139,15.9949896 14.9871169,15.9765816 15.0435373,15.9502582 C16.2418955,18.5381413 17.4768856,21.9334896 17.7344129,25.3288378 C17.7344129,25.3288378 13.3268109,29.6314224 7.75591791,30.3875294 C7.75591791,30.3875294 4.42757463,31.2325468 3.90009453,31.1974796 C3.37243035,31.1622284 3.16129104,30.4586761 3.09106468,30.0718328 C3.02065423,29.6848975 3.61863682,28.6648204 4.46282587,28.4537731" id="Fill-46" fill="#FFB27D"></path>
                </g>
                <path d="M218.83639,121.426353 L220.818983,121.426353 L220.818983,121.426353 L220.818983,29.0323529 L218.83639,29.0323529 C218.560247,29.0323529 218.33639,29.2562106 218.33639,29.5323529 L218.33639,120.926353 C218.33639,121.202495 218.560247,121.426353 218.83639,121.426353 Z" id="Fill-104" fill="#82B378"></path>
                <path d="M220.816084,29.0337294 C220.81573,29.2684353 220.799116,121.389259 220.799116,121.389259 L243.281216,121.389259 C243.557358,121.389259 243.781216,121.165401 243.781216,120.889259 L243.781216,34.5293218 C243.781216,34.2949025 243.618354,34.0919549 243.389498,34.0411877 L220.816084,29.0337294 L220.816084,29.0337294 Z" id="Fill-105" fill="#A5DD98"></path>
                <path d="M240.149907,65.3151294 C239.000342,65.5346588 238.064642,66.3714824 237.704077,67.4659529 L226.474967,66.0863059 C226.221865,65.0899529 225.499322,64.2707765 224.541705,63.8934824 L224.649167,39.9654824 C225.862715,39.8126588 226.869821,38.9761882 227.26927,37.8552471 L238.507571,40.2400706 C238.730626,41.1852471 239.378228,41.9874824 240.256309,42.4060706 L240.149907,65.3151294 Z M239.314599,39.5010118 L226.561927,36.7953647 C226.555917,38.0956 225.491192,39.1004235 224.248658,39.1004235 C224.088525,39.1004235 223.925917,39.0834824 223.761896,39.0488941 L223.64701,64.5781882 C224.812835,64.7211294 225.687028,65.7125412 225.681725,66.8857176 L238.436165,68.4527765 C238.442174,67.1641882 239.494528,66.1487765 240.750141,66.1487765 C240.844877,66.1487765 240.940674,66.1544235 241.037532,66.1664235 L241.15065,41.7757176 C240.076026,41.5477176 239.309297,40.5979529 239.314599,39.5010118 L239.314599,39.5010118 Z" id="Fill-106" fill="#82B378"></path>
                <path d="M240.169208,114.525435 C239.115087,114.828612 238.280486,115.658729 237.973299,116.710141 L236.170123,116.706965 C235.86541,115.655906 235.034698,114.824376 233.981991,114.518024 L233.981991,86.7510824 C235.106811,86.5036706 236.012111,85.6650824 236.353233,84.5783765 L238.209433,84.7382588 C238.481271,85.7441412 239.238103,86.5693176 240.218343,86.9279059 L240.169208,114.525435 Z M238.99207,83.9120235 L235.607713,83.6208471 C235.607713,84.9090824 234.558187,85.9354353 233.29303,85.9354353 C233.225866,85.9354353 233.158349,85.9322588 233.090478,85.9266118 L233.090478,115.281435 C234.369421,115.283553 235.404453,116.319082 235.404453,117.595671 L238.737201,117.601671 C238.739675,116.325082 239.777182,115.291318 241.055419,115.291318 L241.05966,115.291318 L241.110917,86.2220235 C239.910803,86.1189647 238.989949,85.1148471 238.99207,83.9120235 L238.99207,83.9120235 Z" id="Fill-107" fill="#82B378"></path>
                <path d="M230.712908,114.505106 C229.657373,114.808635 228.823126,115.640165 228.517,116.693341 L227.320067,116.691224 C227.009699,115.647929 226.178986,114.823106 225.132289,114.519224 L224.913829,85.9867529 C225.5077,85.8561647 226.053142,85.5572235 226.493596,85.1146353 C226.866533,84.7394588 227.134836,84.2891059 227.285071,83.7981647 L228.699756,83.9195765 C228.966998,84.9388706 229.718881,85.7576941 230.712908,86.1106353 L230.712908,114.505106 Z M229.485575,83.0936941 L226.533188,82.8399294 C226.542732,84.1352235 225.490379,85.1721647 224.218505,85.1721647 C224.151341,85.1721647 224.083824,85.1693412 224.015953,85.1633412 L224.246431,115.283341 C225.518305,115.285812 226.550862,116.3104 226.560407,117.580282 L229.282315,117.585224 C229.282315,116.306518 230.320529,115.270635 231.600533,115.270635 L231.604422,115.270635 L231.604422,85.3998118 C230.406075,85.2967529 229.485575,84.2951059 229.485575,83.0936941 L229.485575,83.0936941 Z" id="Fill-108" fill="#82B378"></path>
                <path d="M227.000154,75.2598824 C227.000154,76.2611765 226.58091,77.0729412 226.0641,77.0729412 C225.546938,77.0729412 225.127693,76.2611765 225.127693,75.2598824 C225.127693,74.2585882 225.546938,73.4464706 226.0641,73.4464706 C226.58091,73.4464706 227.000154,74.2585882 227.000154,75.2598824" id="Fill-109" fill="#FFE823"></path>
                <path d="M227.876998,74.6215529 L227.876998,76.0513176 L225.914749,76.0513176 C225.856776,75.8152 225.824608,75.5508471 225.824608,75.2727294 C225.824608,75.0436706 225.846878,74.8237882 225.88753,74.6215529 L227.876998,74.6215529 Z" id="Fill-110" fill="#F47458"></path>
                <path d="M229.22816,75.2598824 C229.22816,76.7690588 228.596465,77.9923529 227.81701,77.9923529 C227.037907,77.9923529 226.406213,76.7690588 226.406213,75.2598824 C226.406213,73.7507059 227.037907,72.5270588 227.81701,72.5270588 C228.596465,72.5270588 229.22816,73.7507059 229.22816,75.2598824" id="Fill-111" fill="#FAE0B2"></path>
                <path d="M229.606859,75.2598824 C229.606859,76.7690588 228.97481,77.9923529 228.195708,77.9923529 C227.416253,77.9923529 226.784558,76.7690588 226.784558,75.2598824 C226.784558,73.7507059 227.416253,72.5270588 228.195708,72.5270588 C228.97481,72.5270588 229.606859,73.7507059 229.606859,75.2598824" id="Fill-112" fill="#F6E552"></path>
            </g>
        </g>
    </g>
</svg>