<?xml version="1.0" standalone="no"?>
<!DOCTYPE svg PUBLIC "-//W3C//DTD SVG 20010904//EN"
 "http://www.w3.org/TR/2001/REC-SVG-20010904/DTD/svg10.dtd">
<svg version="1.0" xmlns="http://www.w3.org/2000/svg"
 width="1000.000000pt" height="302.000000pt" viewBox="0 0 1000.000000 302.000000"
 preserveAspectRatio="xMidYMid meet">

<g transform="translate(0.000000,302.000000) scale(0.100000,-0.100000)"
fill="#000000" stroke="none">
<path d="M331 2899 c-56 -11 -124 -51 -155 -92 -59 -78 -56 1 -56 -1299 l0
-1193 24 -51 c13 -28 43 -67 67 -87 85 -73 -360 -67 4809 -65 l4665 3 41 22
c66 35 101 70 129 127 l26 52 -1 1194 0 1194 -22 44 c-27 57 -73 102 -134 133
l-49 24 -4650 1 c-2558 1 -4670 -2 -4694 -7z m1789 -423 c0 -55 -29 -151 -64
-210 -53 -91 -166 -166 -263 -174 l-53 -4 0 44 c0 126 100 280 225 346 39 20
104 40 133 41 20 1 22 -4 22 -43z m1443 -11 c37 -6 42 -14 28 -50 -7 -17 -16
-19 -82 -17 -85 3 -125 -14 -159 -70 -28 -45 -28 -150 0 -195 34 -56 109 -79
205 -63 26 5 30 2 36 -27 6 -31 4 -33 -30 -43 -202 -56 -367 95 -317 290 19
73 47 114 103 147 42 24 120 43 158 37 11 -1 37 -6 58 -9z m1148 5 c25 -14 24
-55 -2 -74 -46 -32 -98 25 -59 64 23 23 33 24 61 10z m-821 -148 c95 -47 117
-193 41 -276 -92 -101 -260 -58 -290 74 -12 53 1 124 28 157 51 61 149 82 221
45z m230 -9 l0 -26 25 23 c16 15 41 24 74 28 46 4 53 2 80 -26 22 -22 33 -27
38 -18 16 25 59 46 96 46 89 0 116 -52 117 -222 l0 -118 -45 0 -45 0 0 119 c0
95 -3 123 -16 135 -21 22 -60 20 -84 -4 -18 -18 -20 -33 -20 -135 l0 -115 -40
0 -40 0 0 108 c0 126 -11 156 -57 160 -24 2 -36 -3 -52 -24 -18 -23 -21 -40
-21 -135 l0 -109 -40 0 -40 0 0 170 0 170 35 0 c31 0 35 -3 35 -27z m608 -145
l2 -168 -45 0 -45 0 0 163 c0 90 3 167 7 171 4 4 23 6 43 4 l35 -3 3 -167z
m170 144 l3 -23 30 26 c65 54 166 20 189 -63 5 -20 10 -85 10 -144 l0 -108
-45 0 -45 0 0 113 c0 86 -4 118 -16 135 -19 28 -67 29 -94 2 -18 -18 -20 -33
-20 -135 l0 -115 -45 0 -45 0 0 171 0 170 38 -3 c30 -2 38 -7 40 -26z m531 4
c17 -16 19 -16 24 4 4 17 12 21 39 18 l33 -3 0 -180 c-1 -154 -3 -185 -19
-217 -34 -71 -126 -102 -226 -78 -51 12 -52 13 -46 43 8 39 6 38 47 27 94 -27
159 7 159 85 l0 25 -32 -20 c-67 -40 -154 -13 -190 60 -39 76 -11 200 54 240
40 26 127 23 157 -4z m521 14 c14 -8 17 -16 11 -37 -5 -17 -14 -26 -22 -24 -8
3 -32 5 -54 5 -36 1 -40 -2 -43 -25 -3 -23 3 -29 47 -47 92 -40 119 -115 63
-172 -35 -34 -88 -46 -151 -34 -38 7 -47 13 -49 33 -5 34 8 41 56 29 55 -14
95 1 90 34 -2 15 -21 31 -63 52 -70 36 -92 70 -78 119 13 45 64 77 125 77 27
0 58 -4 68 -10z m336 -6 c65 -31 102 -117 85 -195 -25 -111 -129 -166 -237
-124 -129 49 -137 257 -12 318 43 21 121 21 164 1z m404 -6 c53 -37 73 -71 78
-135 7 -118 -71 -199 -186 -190 -109 8 -171 100 -148 221 8 43 49 94 91 112
49 22 127 18 165 -8z m228 -6 l3 -23 30 26 c65 54 166 20 189 -63 5 -20 10
-85 10 -144 l0 -108 -45 0 -45 0 0 113 c0 86 -4 118 -16 135 -19 28 -67 29
-94 2 -18 -18 -20 -33 -20 -135 l0 -115 -45 0 -45 0 0 171 0 170 38 -3 c30 -2
38 -7 40 -26z m698 12 c65 -31 102 -117 85 -195 -25 -111 -129 -166 -237 -124
-129 49 -137 257 -12 318 43 21 121 21 164 1z m234 -4 c0 -25 2 -25 42 0 47
28 109 26 146 -5 39 -32 52 -88 52 -214 l0 -101 -45 0 -45 0 0 113 c0 86 -4
118 -16 135 -18 26 -59 29 -92 6 -21 -14 -22 -22 -22 -135 l0 -119 -45 0 -45
0 0 170 0 170 35 0 c28 0 35 -4 35 -20z m-6218 -302 c133 -46 116 -47 293 16
72 26 117 36 160 36 123 0 245 -49 327 -132 l50 -49 -55 -50 c-138 -122 -182
-302 -118 -471 27 -69 99 -151 170 -193 59 -35 59 -28 -4 -160 -42 -90 -130
-221 -188 -283 -83 -87 -188 -103 -315 -50 -68 29 -88 32 -172 32 -85 0 -104
-3 -174 -32 -137 -57 -213 -43 -311 55 -234 236 -367 669 -292 948 48 175 162
306 309 354 120 39 156 36 320 -21z m4775 -383 c29 -8 55 -19 57 -24 5 -7 -19
-104 -30 -122 -2 -3 -27 2 -56 12 -66 23 -187 25 -228 4 -46 -24 -70 -62 -70
-113 0 -39 5 -50 38 -82 23 -21 76 -52 128 -74 114 -50 151 -74 201 -130 48
-55 68 -122 60 -201 -11 -112 -88 -200 -207 -236 -119 -36 -331 -17 -387 35
-9 8 -8 25 4 71 9 33 17 61 18 62 0 1 30 -10 65 -24 54 -22 81 -27 156 -28 82
0 94 2 132 27 47 32 69 84 58 141 -13 68 -28 79 -248 181 -114 53 -177 143
-178 252 0 133 91 232 243 264 56 12 179 4 244 -15z m-2713 -72 c95 -290 286
-887 286 -894 0 -5 -37 -9 -83 -9 l-82 0 -45 143 -45 142 -159 0 -159 0 -42
-140 -43 -140 -81 -3 c-44 -2 -81 1 -81 5 0 7 54 176 226 711 l85 262 99 0 98
0 26 -77z m3166 -108 l0 -85 85 0 85 0 0 -60 0 -60 -85 0 -85 0 0 -200 c0
-258 8 -276 113 -268 l42 3 3 -62 3 -62 -46 -6 c-25 -4 -72 -5 -105 -3 -48 3
-67 10 -97 35 -65 52 -72 86 -72 341 l-1 222 -55 0 -55 0 0 60 0 60 55 0 55 0
0 65 0 64 63 20 c101 31 97 34 97 -64z m-2273 -87 c23 -6 61 -26 83 -46 90
-77 124 -171 118 -326 -4 -114 -28 -181 -88 -249 -55 -64 -111 -90 -201 -95
-91 -5 -150 12 -190 54 l-24 26 -5 -179 -5 -178 -77 -3 -78 -3 0 418 c0 230
-3 455 -7 501 l-6 82 70 0 c79 0 83 -3 83 -71 l0 -39 35 39 c41 45 88 70 154
81 48 7 68 6 138 -12z m813 0 c33 -9 60 -27 102 -68 48 -48 60 -68 78 -129 32
-104 26 -251 -13 -336 -55 -119 -135 -176 -260 -183 -88 -5 -148 12 -188 54
l-24 26 -5 -179 -5 -178 -77 -3 -78 -3 0 424 c0 233 -3 458 -6 500 l-7 77 70
0 c79 0 83 -3 83 -71 l0 -39 35 39 c41 45 88 70 154 81 49 8 68 6 141 -12z
m2144 7 c183 -30 296 -231 252 -444 -19 -90 -50 -145 -115 -203 -68 -61 -135
-82 -249 -76 -68 4 -98 10 -138 31 -174 89 -235 336 -131 530 49 93 133 151
242 167 50 8 65 7 139 -5z m776 -71 l0 -74 -54 0 c-67 0 -112 -28 -143 -90
-22 -42 -23 -56 -23 -262 l0 -218 -80 0 -80 0 0 333 c0 182 -3 342 -6 355 -6
23 -5 23 67 20 l74 -3 6 -60 c3 -33 6 -54 7 -48 3 17 70 91 96 105 27 15 85
25 114 20 20 -4 22 -9 22 -78z m525 57 c54 -24 103 -75 132 -139 28 -59 44
-156 36 -207 l-6 -35 -235 0 -235 0 7 -42 c21 -132 147 -192 326 -154 41 9 78
12 82 8 4 -4 9 -30 10 -57 l3 -50 -65 -17 c-91 -23 -213 -23 -292 2 -159 49
-245 210 -217 404 28 203 173 327 359 309 30 -2 73 -13 95 -22z"/>
<path d="M3763 2265 c-46 -32 -52 -140 -12 -184 43 -46 100 -35 125 24 44 106
-34 216 -113 160z"/>
<path d="M5330 2267 c-50 -25 -62 -135 -19 -178 26 -26 83 -25 109 1 16 16 20
33 20 80 0 51 -4 65 -25 85 -27 28 -48 31 -85 12z"/>
<path d="M6167 2269 c-43 -25 -59 -102 -32 -164 33 -81 132 -61 149 31 18 94
-50 172 -117 133z"/>
<path d="M6562 2273 c-23 -9 -42 -61 -42 -113 0 -44 5 -56 29 -81 36 -35 61
-37 97 -6 23 20 28 34 32 83 4 54 1 63 -23 92 -26 31 -58 39 -93 25z"/>
<path d="M7497 2269 c-43 -25 -59 -102 -32 -164 33 -81 132 -61 149 31 18 94
-50 172 -117 133z"/>
<path d="M3546 1435 c-9 -39 -37 -134 -61 -212 -25 -77 -45 -144 -45 -147 0
-3 56 -6 125 -6 69 0 125 4 125 9 0 5 -19 66 -41 137 -23 71 -51 165 -63 209
l-22 80 -18 -70z"/>
<path d="M4397 1246 c-88 -32 -116 -88 -117 -235 0 -86 4 -112 21 -147 49
-102 187 -121 266 -37 85 89 82 308 -5 386 -22 20 -86 46 -112 46 -8 0 -32 -6
-53 -13z"/>
<path d="M5207 1246 c-89 -33 -116 -88 -117 -235 0 -86 4 -112 21 -147 49
-102 187 -121 266 -38 75 80 85 258 20 355 -42 62 -122 90 -190 65z"/>
<path d="M7407 1256 c-48 -18 -74 -41 -101 -91 -18 -34 -21 -57 -21 -150 0
-102 2 -113 28 -158 31 -53 60 -75 112 -87 78 -17 144 21 187 109 17 37 22 64
22 136 1 79 -2 97 -27 147 -43 87 -120 123 -200 94z"/>
<path d="M8650 1263 c-43 -16 -92 -81 -105 -140 l-7 -33 161 0 161 0 0 28 c-1
44 -36 110 -72 132 -32 19 -102 26 -138 13z"/>
</g>
</svg>
