<?xml version="1.0" standalone="no"?>
<!DOCTYPE svg PUBLIC "-//W3C//DTD SVG 20010904//EN"
 "http://www.w3.org/TR/2001/REC-SVG-20010904/DTD/svg10.dtd">
<svg version="1.0" xmlns="http://www.w3.org/2000/svg"
 width="750.000000pt" height="222.000000pt" viewBox="0 0 750.000000 222.000000"
 preserveAspectRatio="xMidYMid meet">

<g transform="translate(0.000000,222.000000) scale(0.100000,-0.100000)"
fill="#000000" stroke="none">
<path d="M165 2151 c-49 -22 -91 -69 -105 -119 -8 -26 -10 -318 -8 -943 l3
-906 29 -41 c18 -26 47 -51 79 -67 l51 -25 3536 0 3536 0 51 25 c32 16 61 41
79 67 l29 41 3 906 c2 625 0 917 -8 943 -14 50 -56 97 -105 119 -39 18 -167
19 -3585 19 -3418 0 -3546 -1 -3585 -19z m2353 -321 c9 0 32 -9 51 -21 30 -18
32 -22 19 -36 -14 -13 -18 -13 -42 2 -71 47 -180 -3 -186 -85 -5 -62 1 -83 34
-116 28 -28 41 -34 78 -34 26 0 56 8 76 20 27 17 37 18 48 9 13 -10 12 -14 -2
-30 -39 -44 -160 -51 -212 -12 -34 24 -72 98 -72 138 0 40 38 114 71 138 29
21 86 37 107 31 8 -2 21 -4 30 -4z m377 -21 c72 -43 98 -161 52 -230 -36 -53
-82 -79 -142 -79 -86 0 -153 59 -162 143 -16 143 131 240 252 166z m1168 4
c27 -14 36 -37 17 -48 -5 -3 -21 2 -35 11 -35 23 -100 21 -133 -3 -70 -50 -77
-140 -17 -200 29 -29 39 -33 85 -33 44 0 56 4 81 29 16 16 29 39 29 50 0 19
-6 21 -55 21 -49 0 -55 2 -55 20 0 19 5 21 78 18 74 -3 77 -4 80 -28 4 -40
-38 -113 -78 -132 -43 -22 -121 -23 -160 -3 -16 8 -42 32 -57 52 -24 31 -28
46 -28 99 0 48 5 69 21 90 57 77 144 99 227 57z m376 -2 c14 -9 27 -23 29 -29
6 -20 -28 -25 -48 -7 -37 34 -104 14 -98 -29 2 -15 22 -30 67 -52 73 -35 91
-55 91 -100 0 -46 -9 -63 -41 -79 -62 -32 -147 -8 -164 47 -12 35 15 40 46 7
41 -44 119 -35 119 14 0 33 -11 44 -65 68 -72 31 -95 55 -95 99 0 76 91 111
159 61z m342 -6 c50 -32 72 -83 67 -154 -7 -94 -69 -151 -165 -151 -64 0 -110
29 -141 90 -80 154 92 309 239 215z m366 2 c136 -91 71 -307 -92 -307 -86 0
-153 59 -162 143 -17 145 135 243 254 164z m985 23 c28 0 96 -67 109 -107 37
-112 -41 -223 -156 -223 -125 0 -202 128 -146 242 32 64 99 104 156 92 11 -2
28 -4 37 -4z m-3014 -95 c30 -52 57 -95 61 -95 4 0 31 43 61 95 37 65 60 95
72 95 17 0 18 -13 18 -166 0 -152 -1 -165 -17 -162 -16 3 -18 18 -21 123 l-3
119 -48 -84 c-27 -47 -54 -85 -62 -85 -7 0 -32 33 -55 73 -23 41 -46 78 -50
82 -5 5 -9 -42 -9 -108 0 -110 -1 -117 -20 -117 -19 0 -20 8 -23 150 -1 82 0
155 2 162 3 7 13 13 23 13 12 0 35 -31 71 -95z m322 -71 c0 -152 -1 -165 -17
-162 -16 3 -18 20 -21 166 -2 157 -2 162 18 162 19 0 20 -6 20 -166z m197 39
l78 -126 3 126 c2 119 4 127 23 127 19 0 19 -6 17 -162 -3 -155 -4 -163 -23
-163 -14 0 -41 34 -100 127 l-80 127 -3 -129 c-2 -122 -4 -130 -22 -130 -19 0
-20 7 -20 165 l0 165 24 0 c20 0 37 -21 103 -127z m1763 4 l75 -122 3 123 c2
114 4 122 22 122 19 0 20 -8 20 -165 0 -156 -1 -165 -19 -165 -14 0 -41 36
-97 126 -43 69 -82 128 -86 130 -5 3 -8 -52 -7 -123 1 -119 0 -128 -17 -128
-18 0 -19 12 -22 163 l-2 162 27 0 c25 -1 36 -14 103 -123z m490 103 c0 -17
-7 -20 -45 -20 l-44 0 -3 -142 c-3 -126 -5 -143 -20 -146 -16 -3 -18 11 -20
140 l-3 143 -40 3 c-44 4 -61 14 -51 31 5 7 49 11 117 11 102 0 109 -1 109
-20z m-4721 -277 c278 -157 536 -303 572 -324 45 -26 70 -48 78 -68 23 -54 -1
-77 -171 -174 l-153 -87 -120 120 -120 120 -342 -342 c-188 -188 -346 -339
-350 -334 -4 4 -8 303 -8 665 0 612 1 659 18 684 37 56 47 52 596 -260z m1631
-315 c30 -14 66 -34 80 -46 l25 -21 -37 -37 c-34 -35 -39 -37 -55 -22 -59 52
-152 68 -239 43 -106 -31 -194 -146 -194 -255 0 -109 88 -224 195 -256 50 -14
70 -15 122 -6 101 17 167 72 193 160 l9 32 -125 0 -124 0 0 50 0 50 176 0 177
0 -5 -78 c-8 -106 -36 -169 -105 -232 -145 -133 -383 -117 -522 35 -65 72 -93
145 -93 245 0 168 100 301 267 357 64 21 189 12 255 -19z m1910 -344 l0 -355
-52 3 -53 3 -3 340 c-1 187 0 346 3 352 3 8 24 13 55 13 l50 0 0 -356z m1066
337 c160 -73 162 -320 3 -402 -31 -15 -59 -19 -149 -19 l-110 0 0 -135 0 -135
-50 0 -50 0 0 348 c0 192 3 352 7 355 3 4 74 7 157 7 125 0 158 -4 192 -19z
m282 -338 l2 -353 -50 0 -50 0 0 356 0 355 48 -3 47 -3 3 -352z m-2720 105
c60 -15 145 -96 161 -153 25 -93 5 -180 -59 -243 -43 -43 -81 -62 -140 -69
-98 -11 -195 41 -242 131 -29 54 -31 155 -4 206 58 111 163 159 284 128z m553
-13 c94 -47 146 -141 136 -240 -6 -62 -25 -101 -68 -144 -62 -63 -149 -85
-236 -60 -70 19 -146 97 -163 168 -31 130 38 249 170 292 36 12 122 3 161 -16z
m492 1 c35 -17 47 -20 47 -10 0 10 14 14 50 14 l50 0 0 -253 c0 -253 0 -253
-26 -306 -31 -62 -78 -97 -150 -110 -62 -12 -125 0 -177 35 -33 22 -77 76 -77
95 0 4 18 14 39 23 l39 15 40 -39 c36 -36 45 -40 91 -40 42 0 56 5 82 28 27
24 33 37 37 87 l5 58 -32 -22 c-66 -48 -168 -36 -242 27 -55 47 -79 101 -79
180 0 97 40 170 115 209 74 39 125 41 188 9z m660 13 c63 -17 148 -110 147
-161 0 -7 -69 -41 -155 -77 -85 -35 -155 -66 -155 -70 1 -16 31 -42 64 -56 47
-20 94 -12 137 25 l33 27 38 -25 c36 -23 37 -27 25 -46 -24 -36 -99 -76 -155
-83 -104 -12 -195 38 -238 131 -44 93 -28 198 40 273 60 65 134 86 219 62z
m1359 1 c21 -6 51 -22 68 -37 55 -46 60 -66 60 -253 l0 -170 -50 0 c-44 0 -50
2 -50 21 0 16 -4 19 -17 14 -48 -20 -110 -35 -142 -35 -80 0 -141 64 -141 148
0 106 67 159 189 149 36 -3 76 -9 89 -13 32 -10 29 21 -7 57 -37 36 -95 39
-151 8 l-38 -22 -36 22 c-42 27 -38 46 19 81 64 40 135 50 207 30z m303 -155
c33 -80 63 -145 66 -145 4 0 34 64 67 143 l60 142 51 3 52 3 -14 -33 c-8 -18
-69 -165 -137 -326 l-123 -292 -50 0 c-37 0 -48 3 -44 13 3 8 24 59 47 114
l41 100 -85 203 c-47 112 -86 207 -86 211 0 5 21 9 48 9 l47 0 60 -145z"/>
<path d="M2773 1793 c-35 -7 -80 -58 -87 -98 -21 -109 86 -191 183 -140 57 29
78 122 41 182 -27 45 -81 67 -137 56z"/>
<path d="M4656 1789 c-97 -28 -123 -157 -45 -223 55 -46 152 -28 184 34 53
102 -34 220 -139 189z"/>
<path d="M5023 1793 c-34 -7 -81 -59 -89 -98 -14 -78 44 -155 117 -155 54 0
93 22 113 64 20 42 20 76 2 121 -22 51 -82 80 -143 68z"/>
<path d="M6055 1793 c-54 -14 -95 -69 -95 -129 0 -39 27 -88 59 -107 107 -63
230 52 176 166 -25 54 -86 84 -140 70z"/>
<path d="M5520 1005 l0 -115 103 0 c64 1 108 5 118 13 51 39 57 141 10 188
-29 28 -32 29 -130 29 l-101 0 0 -115z"/>
<path d="M3196 869 c-38 -30 -56 -71 -56 -128 0 -42 5 -56 30 -85 59 -66 135
-69 195 -6 21 22 29 42 33 79 5 61 -10 102 -50 136 -39 33 -113 35 -152 4z"/>
<path d="M3704 858 c-84 -78 -52 -217 57 -250 75 -22 159 51 159 139 0 87 -52
143 -131 143 -42 0 -55 -5 -85 -32z"/>
<path d="M4235 868 c-51 -40 -71 -129 -41 -186 28 -53 64 -77 116 -77 38 0 54
6 75 25 33 30 55 78 55 120 0 40 -32 103 -64 123 -37 24 -107 22 -141 -5z"/>
<path d="M4933 881 c-25 -12 -48 -32 -57 -50 -19 -37 -21 -75 -3 -68 133 54
197 82 197 89 0 11 -62 48 -80 48 -8 0 -34 -9 -57 -19z"/>
<path d="M6245 705 c-39 -38 -28 -87 20 -99 60 -15 165 44 165 92 0 26 -18 32
-96 32 -56 0 -68 -4 -89 -25z"/>
</g>
</svg>
