<?xml version="1.0" standalone="no"?>
<!DOCTYPE svg PUBLIC "-//W3C//DTD SVG 20010904//EN"
 "http://www.w3.org/TR/2001/REC-SVG-20010904/DTD/svg10.dtd">
<svg version="1.0" xmlns="http://www.w3.org/2000/svg"
 width="150px" height="45px" viewBox="0 0 2000.000000 595.000000"
 preserveAspectRatio="xMidYMid meet">

<g transform="translate(0.000000,595.000000) scale(0.100000,-0.100000)"
fill="#000000" stroke="none">
<path d="M310 5280 l0 -430 240 0 240 0 0 -1875 0 -1875 -285 0 -285 0 0 -430
0 -430 1100 0 1100 0 0 430 0 430 -285 0 -285 0 0 1875 0 1875 240 0 240 0 0
430 0 430 -1010 0 -1010 0 0 -430z"/>
<path d="M13410 4195 l-1010 -1515 0 -645 0 -645 1080 0 1080 0 0 435 0 435
-571 0 c-314 0 -569 4 -567 8 2 5 378 588 837 1295 716 1104 838 1287 858
1287 l23 0 0 -2305 0 -2305 453 0 454 0 7 162 c40 938 383 1587 1088 2057 204
136 413 244 775 402 115 50 250 112 302 140 352 184 536 401 597 701 22 109
15 373 -15 498 -45 196 -106 315 -221 431 -95 96 -146 128 -270 169 -233 78
-538 50 -740 -67 -80 -47 -200 -159 -252 -236 -136 -201 -200 -472 -178 -751
8 -98 36 -255 56 -318 5 -17 -20 -18 -470 -18 l-475 0 -11 53 c-25 120 -30
170 -36 327 -17 434 77 801 285 1112 290 434 752 721 1271 792 94 12 -82 14
-1617 15 l-1723 1 -1010 -1515z"/>
<path d="M5233 4259 c-203 -24 -439 -93 -678 -199 -77 -34 -145 -64 -152 -67
-7 -3 -30 31 -58 86 l-45 91 -700 0 -700 0 0 -430 0 -430 290 0 290 0 -2
-1102 -3 -1103 -237 -3 -238 -2 0 -430 0 -430 1005 0 1005 0 0 430 0 430 -237
2 -238 3 0 1100 0 1100 70 23 c157 53 487 91 660 77 274 -22 416 -137 487
-390 l23 -80 3 -1347 3 -1348 814 0 815 0 0 430 0 430 -284 0 -285 0 -4 973
c-3 845 -6 987 -20 1084 -54 358 -155 590 -337 774 -187 189 -436 293 -789
329 -118 12 -353 11 -458 -1z"/>
<path d="M9435 4259 c-850 -69 -1334 -409 -1486 -1045 -47 -200 -51 -260 -56
-872 -7 -850 13 -1059 125 -1320 232 -538 811 -782 1852 -782 438 0 961 47
1388 126 l92 17 0 409 0 410 -27 -6 c-259 -52 -599 -80 -1103 -91 -295 -7
-452 2 -599 34 -335 73 -559 274 -643 576 -20 75 -22 104 -26 480 -4 448 3
533 58 698 128 382 444 546 982 509 89 -7 173 -15 186 -18 l22 -6 0 -299 0
-299 525 0 525 0 0 664 c0 624 -1 665 -17 670 -35 10 -381 66 -528 85 -486 64
-949 86 -1270 60z"/>
<path d="M19777 3654 c-34 -391 -227 -796 -521 -1090 -261 -260 -575 -462
-1181 -760 -170 -83 -346 -176 -390 -204 -185 -121 -275 -261 -287 -445 l-3
-50 1198 -3 1197 -2 0 1315 c0 723 -2 1315 -4 1315 -1 0 -6 -34 -9 -76z"/>
</g>
</svg>
